{"glyphs":{"0":{"ha":458,"x_min":44,"x_max":429,"o":"m 78 407 q 70 288 65 339 q 90 203 75 238 q 130 152 106 169 q 183 135 154 135 q 300 203 242 135 q 382 407 358 271 q 389 526 393 475 q 369 612 385 578 q 328 663 353 646 q 275 679 304 679 q 159 612 217 679 q 78 407 101 544 m 50 407 q 87 535 63 481 q 142 624 111 589 q 209 678 174 660 q 278 696 244 696 q 343 677 313 696 q 394 622 374 658 q 422 532 414 586 q 417 407 429 478 q 389 306 408 357 q 339 213 369 254 q 267 144 308 171 q 174 118 225 118 q 99 149 126 118 q 58 225 71 181 q 45 319 46 269 q 50 407 44 369 z "},"1":{"ha":129,"x_min":22,"x_max":113,"o":"m 26 86 q 22 140 22 94 q 26 249 22 185 q 35 389 29 314 q 50 533 42 464 q 68 655 58 601 q 89 731 78 708 q 101 729 90 733 q 113 722 113 725 q 88 586 100 661 q 68 428 76 511 q 55 260 60 346 q 50 94 50 175 q 40 88 50 90 q 26 86 29 86 z "},"2":{"ha":475,"x_min":7,"x_max":463,"o":"m 174 135 q 235 117 204 125 q 299 110 267 110 q 340 119 321 110 q 373 138 358 128 q 397 157 388 149 q 408 165 406 165 q 415 157 415 165 q 407 145 415 153 q 396 135 399 138 q 349 106 375 117 q 297 94 324 94 q 203 110 249 94 q 111 138 157 126 q 74 117 92 125 q 32 110 56 110 q 10 136 7 113 q 22 156 11 150 q 44 161 33 161 q 92 157 69 161 q 172 228 129 186 q 254 319 214 271 q 328 415 294 367 q 383 504 363 464 q 414 576 403 540 q 421 641 425 613 q 392 688 417 669 q 314 707 367 706 l 310 707 q 235 691 269 707 q 175 656 200 675 q 135 620 150 636 q 118 604 119 604 q 112 606 115 604 q 111 613 108 608 q 150 654 125 635 q 205 689 175 674 q 266 713 235 704 q 322 722 297 722 q 417 699 386 722 q 456 640 449 676 q 449 557 463 603 q 408 464 435 511 q 370 406 396 442 q 311 331 344 371 q 240 250 278 290 q 165 178 203 210 q 174 135 129 149 m 33 125 q 52 131 40 125 q 74 144 64 138 q 59 146 67 146 q 43 146 51 146 q 24 135 24 146 q 33 125 25 125 z "},"3":{"ha":489,"x_min":26,"x_max":458,"o":"m 232 353 l 232 353 l 232 353 m 76 96 q 160 79 121 79 q 245 97 206 79 q 313 142 285 115 q 354 202 340 169 q 363 264 368 235 q 333 315 358 293 q 256 343 307 338 l 253 343 l 246 343 q 236 344 239 343 q 232 349 232 344 q 238 360 232 357 q 296 402 267 374 q 349 466 325 431 q 389 540 374 501 q 405 609 404 578 q 389 660 406 640 q 332 681 372 681 q 230 648 281 681 q 142 575 179 615 q 131 563 136 569 q 121 551 126 557 q 114 549 115 549 q 110 558 107 549 q 122 573 111 561 q 136 589 132 585 q 232 665 181 633 q 336 696 283 696 q 437 652 415 696 q 442 550 458 608 q 383 435 426 492 q 288 356 340 379 q 333 343 311 351 q 373 320 356 335 q 400 283 390 306 q 407 232 410 261 q 380 157 403 189 q 322 106 357 125 q 246 76 288 86 q 164 67 204 67 q 42 93 90 67 q 33 98 39 96 q 29 107 26 100 q 38 115 32 115 q 56 107 40 115 q 76 96 72 99 z "},"4":{"ha":490,"x_min":13,"x_max":468,"o":"m 336 290 q 314 325 340 318 q 258 332 286 329 q 201 335 231 335 q 144 331 176 335 q 79 321 111 328 q 51 309 74 318 q 22 300 28 300 q 15 308 13 300 q 26 321 15 315 q 54 332 38 326 q 121 390 90 356 q 174 463 151 424 q 213 545 197 503 q 232 626 228 588 q 235 656 235 642 q 236 686 235 671 q 251 691 238 689 q 268 693 265 693 q 275 684 274 693 q 276 663 276 675 q 273 640 275 651 q 271 625 271 629 q 219 470 263 547 q 110 342 176 393 q 168 349 142 347 q 204 351 194 351 q 261 349 233 351 q 317 342 289 346 q 322 340 318 340 q 350 365 346 340 q 373 474 361 421 q 397 574 385 528 q 422 654 410 619 q 443 706 433 689 q 457 704 446 708 q 468 697 468 700 q 421 534 444 625 q 378 343 397 443 q 379 333 376 338 q 383 324 382 329 l 383 319 q 382 317 382 317 q 375 308 379 313 q 369 299 371 304 q 347 172 357 235 q 331 46 338 108 q 317 41 329 43 q 303 39 306 39 q 303 67 301 44 q 308 123 304 89 q 320 200 313 157 q 336 290 328 243 z "},"5":{"ha":489,"x_min":35,"x_max":467,"o":"m 182 496 q 203 497 193 497 q 224 497 213 497 q 311 490 267 497 q 390 465 356 483 q 446 414 425 446 q 463 333 467 382 q 427 236 458 281 q 351 159 396 192 q 253 108 306 126 q 153 89 200 89 q 129 90 149 89 q 89 94 110 92 q 51 101 68 97 q 35 113 35 106 q 43 119 38 119 q 53 117 46 119 q 64 113 61 114 q 124 103 92 103 q 223 122 172 103 q 316 172 274 140 q 387 247 358 204 q 419 335 415 289 q 403 408 424 379 q 349 453 382 436 q 278 476 317 469 q 204 483 239 483 q 154 479 179 483 q 106 475 129 475 q 99 483 99 475 q 108 519 99 488 q 128 589 117 551 q 148 657 139 626 q 157 688 157 688 l 433 688 l 432 679 q 431 674 432 676 q 431 669 431 671 l 379 669 q 303 669 343 669 q 231 671 263 669 q 194 658 210 671 q 174 626 179 646 l 149 536 q 178 496 138 496 l 182 496 z "},"6":{"ha":453,"x_min":38,"x_max":417,"o":"m 71 100 q 38 199 39 142 q 56 319 38 257 q 104 444 74 382 q 164 556 135 506 q 216 640 193 607 q 242 676 239 672 q 250 681 246 681 q 252 680 251 681 q 256 679 253 679 q 269 672 258 676 q 276 665 279 668 q 255 634 276 665 q 204 554 233 603 q 144 445 175 506 q 95 323 114 385 q 76 206 76 261 q 104 111 75 150 q 153 70 126 83 q 207 57 179 57 q 308 97 261 57 q 367 199 354 136 q 372 263 375 228 q 354 327 368 297 q 316 377 340 357 q 257 397 292 397 q 214 389 236 397 q 173 367 192 381 q 140 335 154 353 q 121 296 126 317 q 110 290 118 288 q 103 301 100 293 q 126 347 110 325 q 164 383 142 368 q 211 408 186 399 q 261 417 236 417 q 326 401 297 417 q 376 358 356 385 q 407 297 397 331 q 413 228 417 264 q 387 154 408 188 q 334 97 365 121 q 266 58 303 72 q 192 44 229 44 q 125 58 156 44 q 71 100 94 71 z "},"7":{"ha":411,"x_min":39,"x_max":385,"o":"m 113 61 q 153 150 129 97 q 204 263 178 203 q 256 385 231 324 q 300 501 281 447 q 330 594 319 554 q 338 649 340 633 q 311 672 333 665 q 257 678 289 678 q 197 674 229 678 q 137 665 165 671 q 85 656 108 660 q 53 649 63 651 q 42 656 44 646 q 49 667 39 664 q 80 674 58 669 q 130 684 101 679 q 191 692 158 689 q 254 696 224 696 q 331 687 297 696 q 376 653 364 678 q 373 589 385 636 q 338 479 361 542 q 284 347 314 417 q 226 217 254 278 q 177 112 199 157 q 150 53 156 67 q 136 47 149 47 q 118 51 126 47 q 113 61 110 56 z "},"8":{"ha":454,"x_min":22,"x_max":421,"o":"m 32 172 q 35 249 22 208 q 71 328 47 289 q 124 401 94 367 q 176 461 153 436 q 143 503 158 479 q 121 552 128 526 q 119 604 114 578 q 149 653 124 631 q 209 685 172 675 q 283 694 246 694 q 375 678 338 694 q 419 612 418 657 q 403 517 421 567 q 358 423 385 468 q 319 357 332 378 q 377 254 369 307 q 363 158 385 201 q 294 86 340 114 q 193 58 249 58 q 92 88 138 58 q 32 172 47 117 m 200 440 q 151 385 178 417 q 105 316 125 353 q 75 240 85 279 q 75 161 65 200 q 114 101 86 121 q 178 81 142 81 q 242 96 210 81 q 303 143 275 111 q 347 240 340 185 q 308 340 353 294 q 290 315 304 335 q 258 276 275 296 q 227 241 242 257 q 206 225 213 225 q 190 234 197 225 q 190 249 183 243 q 240 300 215 271 q 286 361 264 329 q 242 401 264 382 q 200 440 219 421 m 214 454 q 254 417 233 435 q 297 378 275 399 q 365 510 339 443 q 388 618 390 576 q 360 660 385 647 q 303 674 336 674 q 240 663 272 674 q 183 634 207 653 q 148 589 158 615 q 150 531 138 563 q 190 475 161 504 q 207 492 193 478 q 225 506 221 506 q 243 498 233 506 q 251 489 253 490 q 238 478 250 489 q 214 454 226 467 z "},"9":{"ha":456,"x_min":43,"x_max":421,"o":"m 392 640 q 417 544 421 600 q 392 426 414 488 q 338 303 371 364 q 272 192 304 242 q 215 111 239 143 q 188 75 190 79 q 179 71 186 71 q 175 72 176 71 q 162 78 172 75 q 154 85 151 82 q 178 116 156 86 q 233 194 201 146 q 298 301 264 242 q 354 422 332 361 q 381 537 376 482 q 358 631 385 592 q 314 670 339 658 q 261 682 289 682 q 160 643 208 682 q 94 543 113 604 q 88 480 86 514 q 100 417 89 446 q 134 368 111 388 q 190 349 157 349 q 233 357 211 349 q 275 379 256 365 q 309 411 294 393 q 331 449 324 429 q 342 454 333 457 q 347 443 351 451 q 322 399 339 419 q 283 364 306 379 q 236 340 261 349 q 186 331 211 331 q 123 347 151 331 q 76 388 94 363 q 50 447 57 414 q 49 515 43 481 q 78 588 56 556 q 133 645 101 621 q 203 683 165 669 q 276 696 240 696 q 342 683 311 696 q 392 640 372 669 z "},"\u0000":{"ha":0,"x_min":0,"x_max":0,"o":""},"\r":{"ha":347,"x_min":0,"x_max":0,"o":""}," ":{"ha":361,"x_min":0,"x_max":0,"o":""},"A":{"ha":990,"x_min":49,"x_max":1022,"o":"m 756 -4 q 735 60 738 18 q 742 157 733 103 q 769 275 751 211 q 806 406 786 339 q 811 432 811 421 q 796 442 811 443 q 670 433 729 439 q 558 417 611 426 q 508 381 526 410 q 383 183 443 274 q 269 49 324 92 q 149 0 208 0 q 89 17 115 0 q 56 68 63 33 q 64 149 49 107 q 115 231 79 190 q 242 329 160 282 q 444 411 324 376 q 553 493 514 431 q 580 535 561 506 q 625 603 599 565 q 683 681 651 640 q 749 756 715 722 q 814 810 782 789 q 872 832 846 832 q 910 817 894 832 q 927 773 925 803 q 923 702 929 743 q 903 611 917 661 q 874 504 890 561 q 877 477 868 489 q 901 465 886 465 q 961 465 932 465 q 1010 463 990 464 q 1019 453 1022 463 q 1015 444 1019 447 q 1008 442 1011 440 q 979 444 996 443 q 944 444 963 444 q 883 436 913 444 q 843 397 853 428 q 816 301 831 360 q 791 183 801 242 q 778 75 781 124 q 790 10 776 26 q 790 -4 796 1 q 774 -10 783 -10 q 762 -8 767 -10 q 756 -4 757 -6 m 490 389 q 490 398 493 394 q 483 400 488 401 q 274 319 353 368 q 147 218 194 271 q 94 75 83 146 q 116 36 100 47 q 153 25 132 25 q 209 38 181 25 q 257 65 238 50 q 311 119 283 86 q 368 195 339 153 q 428 288 397 238 q 490 389 458 338 m 858 806 q 790 765 825 796 q 718 692 754 735 q 646 596 682 649 q 574 486 610 543 q 572 458 564 471 q 594 444 579 444 l 600 444 q 690 456 644 451 q 786 464 736 461 q 821 481 810 465 q 839 519 832 496 q 866 614 854 568 q 884 698 878 660 q 890 763 890 736 q 878 801 889 790 q 864 806 872 806 l 858 806 z "},"B":{"ha":722,"x_min":11,"x_max":764,"o":"m 764 449 q 756 436 764 439 q 704 427 753 436 q 581 401 656 418 q 567 389 569 399 q 572 372 565 379 q 601 339 589 356 q 594 214 640 283 q 517 133 568 172 q 403 64 465 94 q 276 15 342 33 q 156 -3 210 -3 q 114 1 135 -3 q 75 13 93 4 q 44 35 57 21 q 25 74 31 50 q 44 176 11 124 q 114 246 69 213 q 154 293 142 265 q 175 350 167 321 q 174 362 178 357 q 163 367 169 367 q 122 375 139 367 q 99 403 97 386 q 113 422 100 414 q 142 435 125 429 q 177 444 160 440 q 204 449 194 447 q 225 468 218 451 q 238 496 232 485 q 289 615 271 569 q 314 669 307 660 q 332 679 319 679 q 344 676 336 679 q 351 652 358 671 q 329 608 344 633 q 295 556 314 583 q 263 506 276 529 q 249 469 250 483 q 269 454 249 454 l 275 454 q 306 454 290 454 q 336 453 321 454 q 405 467 371 453 q 470 505 439 482 q 528 556 501 528 q 572 611 554 585 q 579 735 625 682 q 531 772 565 750 q 435 794 497 794 q 356 784 400 794 q 257 747 313 774 q 114 653 169 707 q 67 550 58 599 q 76 528 68 538 q 99 518 85 518 q 114 533 114 518 q 117 551 114 549 q 131 560 124 560 q 149 547 142 560 q 149 525 156 535 q 122 504 136 510 q 94 499 107 499 q 61 514 75 499 q 44 549 47 529 q 53 608 40 576 q 94 672 67 640 q 160 732 121 703 q 247 783 200 761 q 337 816 292 806 q 425 826 382 826 q 528 809 481 828 q 613 749 575 790 q 608 599 668 685 q 533 523 581 560 q 431 457 486 486 q 426 447 425 453 q 433 439 426 440 q 482 423 461 432 q 529 414 503 414 q 542 415 536 414 q 556 417 549 415 q 694 447 639 436 q 751 458 750 458 q 764 449 761 458 m 243 431 q 225 418 231 431 q 217 394 219 406 q 307 422 254 403 q 310 428 311 424 q 306 432 310 432 q 288 433 299 433 q 265 433 276 433 q 243 431 254 432 m 226 371 q 209 365 217 368 q 199 350 201 361 q 191 331 194 340 q 183 311 188 321 q 185 299 181 304 q 194 294 189 294 q 197 295 196 294 q 199 296 197 296 q 446 388 297 346 q 449 389 449 389 q 453 390 450 389 q 460 401 460 393 q 453 411 460 408 q 422 420 439 415 q 392 425 406 425 q 372 422 382 425 q 354 414 363 418 q 226 371 283 383 m 119 401 q 140 390 128 393 q 164 388 153 388 q 177 388 171 388 q 190 390 183 389 q 190 410 196 401 q 172 419 183 419 l 167 419 q 133 409 143 414 q 119 401 122 404 m 567 326 q 539 358 556 343 q 501 374 522 374 q 439 361 481 374 q 351 331 397 349 q 264 297 306 314 q 203 269 222 279 q 176 247 185 260 q 161 214 168 233 q 136 188 150 188 q 132 193 132 188 q 133 205 132 200 q 135 214 135 210 q 133 222 138 219 q 125 225 129 225 q 119 224 121 225 q 88 195 103 210 q 63 165 74 181 q 45 115 44 138 q 57 76 46 93 q 86 50 68 60 q 119 38 104 40 q 160 33 139 33 q 271 49 211 33 q 387 90 331 64 q 490 152 443 117 q 561 226 536 188 q 567 326 597 283 z "},"C":{"ha":753,"x_min":10,"x_max":793,"o":"m 789 457 q 792 450 792 454 q 790 443 793 446 q 581 220 678 306 q 408 87 485 135 q 274 21 331 39 q 183 0 217 3 q 83 32 124 0 q 22 242 10 97 q 60 403 29 325 q 138 551 92 482 q 145 581 147 565 q 131 607 143 596 q 93 665 103 632 q 96 732 83 697 q 123 773 104 756 q 168 790 142 790 q 211 776 194 790 q 233 753 228 763 q 233 726 240 740 q 211 711 225 711 q 192 719 203 711 q 186 744 186 726 q 171 768 186 761 q 137 756 151 768 q 115 725 122 743 q 115 669 106 693 q 139 629 125 644 q 168 617 151 617 q 199 632 186 617 q 264 697 226 663 q 344 759 301 731 q 433 806 386 788 q 522 825 479 825 q 600 797 575 825 q 610 782 604 792 q 615 758 615 772 q 608 726 615 744 q 582 685 601 708 q 456 588 529 622 q 301 553 383 553 q 210 565 254 553 q 201 567 207 567 q 189 562 193 567 q 178 547 185 557 q 97 389 125 469 q 61 240 68 308 q 68 125 54 174 q 114 50 82 76 q 146 28 131 35 q 185 21 161 21 q 345 69 260 21 q 511 185 431 117 q 661 328 592 253 q 774 456 731 403 q 782 460 776 460 q 789 457 786 460 m 233 618 q 220 598 225 610 q 228 582 215 586 q 293 574 264 574 q 433 610 368 574 q 549 699 499 647 q 585 783 601 754 q 535 807 571 807 q 453 788 497 807 q 369 740 410 768 q 292 678 328 711 q 233 618 257 646 z "},"D":{"ha":922,"x_min":22,"x_max":968,"o":"m 954 461 q 965 451 965 461 q 954 440 968 440 l 914 440 l 871 440 q 806 397 826 438 q 706 253 768 325 q 566 126 643 182 q 403 34 489 69 q 236 -1 318 -1 q 114 38 146 -1 q 91 131 82 76 q 142 242 100 185 q 240 333 183 299 q 294 393 278 356 q 322 456 303 413 q 362 544 340 499 q 403 626 383 589 q 431 674 422 664 q 442 682 433 676 q 461 688 450 688 q 469 685 464 688 q 474 671 479 679 q 458 647 474 669 q 419 589 442 625 q 372 507 397 553 q 326 414 347 461 q 327 391 319 401 q 346 381 335 381 q 354 382 351 381 q 544 430 446 414 q 739 453 643 446 q 790 480 774 456 q 810 539 807 504 q 809 597 813 572 q 799 640 806 622 q 695 767 767 726 q 536 808 624 808 q 342 763 450 808 q 139 614 235 718 q 69 522 94 565 q 50 444 43 478 q 59 427 53 433 q 71 418 65 421 q 81 415 78 415 q 92 415 85 415 q 108 438 108 421 q 114 463 107 456 q 132 471 122 471 q 156 455 147 471 q 154 428 164 439 q 119 401 138 408 q 85 394 100 394 q 49 407 65 394 q 31 440 33 419 q 44 528 22 479 q 114 629 65 576 q 197 703 150 667 q 299 767 244 739 q 413 812 354 794 q 532 829 472 829 q 625 818 578 829 q 713 785 672 807 q 786 728 754 763 q 835 647 818 693 q 844 510 858 582 q 853 475 840 490 q 886 461 867 460 l 954 461 m 760 390 q 769 420 769 406 q 750 433 768 435 q 545 407 650 425 q 349 357 440 389 q 307 331 324 349 q 281 292 290 314 q 266 247 271 271 q 258 199 261 222 q 250 188 257 192 q 238 185 243 185 q 229 197 226 185 q 240 236 232 214 q 254 281 247 258 q 251 297 257 290 q 239 303 246 303 q 229 300 232 303 q 137 203 163 253 q 118 112 111 153 q 163 45 125 71 q 258 19 200 19 q 401 55 326 19 q 545 145 476 90 q 671 265 614 200 q 760 390 728 331 z "},"E":{"ha":721,"x_min":14,"x_max":767,"o":"m 760 458 q 763 444 767 454 q 664 303 722 381 q 533 158 606 225 q 379 45 461 90 q 211 0 297 0 q 136 13 172 0 q 73 51 100 26 q 30 108 46 75 q 14 183 14 142 q 31 274 14 228 q 78 365 49 321 q 149 449 108 410 q 233 515 189 488 q 244 533 243 522 q 236 551 244 544 q 217 572 225 560 q 202 596 210 585 q 185 617 194 607 q 161 629 175 626 q 124 640 143 632 q 90 661 104 649 q 67 692 75 674 q 64 731 60 710 q 88 769 69 757 q 128 782 106 782 q 159 775 143 782 q 185 754 175 768 q 188 725 194 742 q 165 708 181 708 q 149 715 158 708 q 141 724 146 717 q 131 739 136 731 q 118 753 125 747 q 104 760 111 760 q 85 728 90 760 q 114 668 79 693 q 138 656 125 661 q 163 651 150 651 q 183 657 174 651 q 197 678 193 663 q 223 731 204 704 q 267 778 242 757 q 322 813 292 800 q 381 826 351 826 q 419 819 404 826 q 454 790 447 807 q 455 754 461 772 q 433 719 449 736 q 400 689 417 701 q 317 646 357 661 q 240 626 276 631 q 222 613 224 625 q 230 588 221 601 q 256 563 239 574 q 296 551 274 551 q 317 554 303 551 q 322 556 318 556 q 332 540 333 556 q 324 521 331 524 q 219 468 268 504 q 133 385 169 432 q 74 286 96 339 q 51 183 51 233 q 66 117 51 147 q 106 66 81 88 q 163 33 131 44 q 229 21 194 21 q 328 40 272 21 q 449 110 383 60 q 590 244 515 160 q 744 457 664 328 q 754 461 749 461 q 760 458 757 461 m 236 678 q 233 658 233 667 q 240 649 232 649 q 276 655 256 649 q 317 670 296 661 q 356 689 338 679 q 388 707 375 699 q 436 772 439 739 q 420 796 435 790 q 390 801 406 801 q 341 790 365 801 q 296 762 317 779 q 259 722 275 744 q 236 678 243 700 z "},"F":{"ha":994,"x_min":-6,"x_max":1035,"o":"m 1028 831 q 1033 817 1032 828 q 1032 801 1035 806 q 970 751 1008 765 q 888 738 932 738 q 797 747 843 738 q 714 765 751 756 q 698 771 706 768 q 683 774 690 774 q 670 769 676 774 q 663 757 664 764 q 610 635 639 701 q 544 497 581 568 q 547 467 538 482 q 572 453 556 453 q 578 454 575 453 q 626 458 601 457 q 675 463 650 460 q 686 451 689 463 q 676 440 686 443 q 547 428 608 436 q 489 386 508 421 q 369 185 431 278 q 254 46 308 93 q 128 -4 196 -4 q 61 11 92 -4 q 18 65 31 26 q 49 218 -6 136 q 183 335 94 283 q 393 418 271 386 q 515 521 478 442 q 577 652 549 589 q 626 768 606 715 q 624 783 631 779 q 606 788 617 788 q 591 789 599 789 q 576 789 583 789 q 422 761 506 789 q 256 651 338 733 q 174 540 200 596 q 156 444 147 485 q 165 426 158 432 q 176 417 171 419 q 192 414 182 414 q 213 432 211 414 q 225 460 215 450 q 242 467 235 467 q 265 450 257 467 q 263 422 274 433 q 231 401 251 411 q 192 392 211 392 q 169 397 176 392 q 135 439 139 408 q 153 547 124 486 q 242 667 182 608 q 399 778 308 733 q 585 824 489 824 q 640 819 614 824 q 647 824 646 819 q 661 831 651 832 q 668 824 665 831 q 682 810 674 811 q 783 783 728 794 q 888 772 839 772 q 961 784 928 772 q 1014 826 994 796 q 1022 831 1017 831 l 1028 831 m 439 371 q 439 392 446 382 q 421 403 432 403 q 419 402 419 403 q 415 401 418 401 q 267 352 328 381 q 169 296 207 324 q 110 243 131 268 q 79 204 89 218 q 47 136 56 171 q 50 71 39 101 q 80 32 61 43 q 121 21 99 21 q 176 33 149 21 q 222 61 204 46 q 328 188 272 104 q 439 371 385 271 z "},"G":{"ha":632,"x_min":18,"x_max":671,"o":"m 668 453 q 661 440 671 444 q 612 417 638 429 q 561 392 586 406 q 482 306 507 363 q 429 195 458 250 q 368 97 400 140 q 300 27 336 54 q 225 0 264 0 q 143 49 158 0 q 156 129 132 85 q 233 213 181 174 q 333 281 283 249 q 436 344 383 314 q 474 383 463 360 q 496 433 485 406 q 505 459 500 447 q 513 482 510 471 q 515 492 515 492 q 514 489 515 490 q 389 366 446 414 q 287 291 332 318 q 208 253 242 264 q 153 240 175 243 q 107 244 129 240 q 65 264 85 247 q 28 324 39 286 q 22 414 18 363 q 44 513 26 460 q 93 618 61 565 q 100 650 101 633 q 88 679 99 667 q 74 760 58 714 q 97 792 81 782 q 132 803 113 803 q 194 774 168 803 q 198 745 206 763 q 175 728 190 728 q 158 735 168 728 q 147 756 151 740 q 132 779 143 772 q 124 782 126 782 q 104 772 113 782 q 93 753 96 763 q 90 727 90 743 q 103 694 89 711 q 128 683 111 683 q 150 693 142 683 q 198 739 172 715 q 252 783 224 763 q 312 815 281 803 q 376 828 343 828 q 433 807 415 828 q 440 796 436 803 q 444 778 444 789 q 440 754 444 768 q 422 724 436 740 q 332 654 385 679 q 221 629 279 629 q 178 633 199 629 q 148 630 154 633 q 128 604 142 626 q 81 505 99 554 q 60 413 63 456 q 61 364 58 390 q 73 315 64 338 q 100 276 82 292 q 144 261 118 261 q 253 295 194 261 q 369 378 313 329 q 474 478 425 426 q 551 567 522 531 q 563 565 554 567 q 569 557 572 564 q 558 519 567 550 q 535 442 550 489 q 537 422 531 431 q 554 414 543 414 q 565 417 557 414 q 608 438 586 428 q 653 460 631 449 q 658 461 654 461 q 668 453 667 461 m 197 693 q 183 669 186 682 q 194 653 179 656 q 206 651 200 651 q 217 651 211 651 q 306 672 261 651 q 392 738 350 692 q 417 776 415 761 q 417 796 419 792 q 388 808 408 808 q 338 797 365 808 q 285 767 311 785 q 235 729 258 749 q 197 693 213 710 m 440 289 q 447 308 442 292 q 446 325 453 325 q 413 307 442 325 q 350 266 385 289 q 285 222 315 243 q 246 194 254 200 q 180 128 207 167 q 163 56 153 89 q 178 30 168 39 q 213 21 189 21 q 324 89 265 21 q 440 289 382 157 z "},"H":{"ha":931,"x_min":1,"x_max":963,"o":"m 951 451 q 963 442 960 451 q 951 431 963 431 q 914 431 936 431 q 876 432 892 432 q 835 419 853 432 q 810 382 817 406 l 710 0 q 700 -7 707 -7 q 685 -2 697 -7 q 672 6 672 3 l 771 379 q 772 415 776 399 q 746 431 767 432 q 456 394 593 425 q 401 367 424 388 q 371 317 379 346 q 315 158 346 229 q 249 50 285 88 q 193 10 221 18 q 126 3 165 3 q 73 24 97 7 q 33 65 49 40 q 44 201 1 133 q 143 295 76 250 q 313 376 210 340 q 352 408 340 386 q 372 458 364 431 q 389 535 378 483 q 412 643 400 588 q 434 746 424 699 q 449 806 444 793 q 468 822 454 817 q 492 826 482 826 q 497 825 497 826 q 504 813 507 825 q 478 737 494 785 q 451 638 463 689 q 429 544 440 593 q 406 444 418 494 q 411 421 403 431 q 432 411 419 411 q 438 413 435 411 q 583 439 506 428 q 749 453 661 450 q 787 469 775 454 q 806 510 799 485 l 874 793 q 892 814 876 806 q 919 822 907 822 q 932 808 933 822 l 842 503 q 848 469 836 483 q 879 453 860 454 q 915 453 893 453 q 951 451 936 453 m 144 22 q 213 60 182 22 q 269 147 244 97 q 310 248 293 197 q 335 325 326 299 q 338 348 339 338 q 326 358 336 358 q 321 357 322 358 q 238 326 278 346 q 163 284 197 307 q 103 236 129 261 q 63 189 76 211 q 53 75 24 129 q 91 36 65 50 q 144 22 117 22 z "},"I":{"ha":471,"x_min":-33,"x_max":481,"o":"m 471 838 q 478 831 475 838 q 479 818 481 824 q 469 811 479 811 l 378 811 q 337 801 354 811 q 315 768 319 790 l 160 81 q 167 47 154 60 q 201 33 179 33 l 278 33 q 288 24 290 33 q 284 13 288 19 q 278 7 281 7 l 117 7 l 117 7 l -22 7 q -30 14 -26 7 q -33 25 -33 21 q -22 33 -32 33 l 54 33 q 98 44 79 33 q 124 79 117 56 l 278 763 q 270 798 283 785 q 235 811 257 811 l 97 811 q 88 821 88 811 q 92 831 89 825 q 99 838 94 838 l 471 838 z "},"J":{"ha":722,"x_min":22,"x_max":754,"o":"m 742 451 q 754 442 751 451 q 743 429 754 432 q 638 424 683 428 q 551 413 593 419 q 499 368 515 404 q 435 267 468 317 q 371 174 403 217 q 310 97 339 131 q 258 43 282 63 q 201 8 231 18 q 146 -3 172 -3 q 83 13 111 -3 q 38 56 54 29 q 22 119 22 83 q 44 192 22 154 q 175 312 81 254 q 421 408 269 369 q 486 449 465 419 q 526 518 507 478 q 579 649 561 592 q 589 742 597 706 q 553 792 579 776 q 492 807 528 807 q 410 793 454 807 q 323 757 367 779 q 240 707 279 735 q 174 651 201 679 q 119 574 133 611 q 121 511 106 538 q 158 492 132 492 q 201 500 179 492 q 233 518 222 508 q 242 542 243 526 q 249 565 242 558 q 267 575 257 575 q 289 561 281 575 q 292 533 297 547 q 244 492 283 515 q 163 469 206 469 q 128 476 143 469 q 103 501 113 483 q 98 576 83 533 q 157 665 113 618 q 315 781 222 733 q 504 828 408 828 q 568 818 543 828 q 608 795 593 808 q 628 767 622 782 q 635 744 635 753 q 635 710 636 732 q 626 658 633 689 q 605 587 619 628 q 565 493 590 546 q 567 458 556 474 q 599 443 579 443 l 601 443 q 660 447 629 446 q 742 451 690 449 m 446 367 q 458 385 453 376 q 457 394 464 394 l 454 394 q 349 365 407 383 q 236 319 292 346 q 135 259 181 293 q 64 182 89 225 q 44 123 44 151 q 54 72 43 94 q 87 38 65 50 q 135 25 108 25 q 176 33 154 25 q 218 58 197 40 q 263 106 236 74 q 322 181 290 139 q 385 271 353 222 q 446 367 418 319 z "},"K":{"ha":1000,"x_min":8,"x_max":1039,"o":"m 1018 825 q 1031 811 1022 822 q 1036 796 1039 800 q 927 664 990 724 q 792 553 864 604 q 643 457 721 501 q 488 372 565 413 q 475 360 482 369 q 475 346 471 353 q 578 189 531 249 q 667 96 626 129 q 739 50 707 63 q 796 35 771 38 q 806 25 806 35 q 803 9 807 21 q 796 -3 800 -3 q 701 33 749 0 q 613 111 654 65 q 536 208 571 157 q 478 300 501 260 q 458 311 469 311 q 439 300 446 311 q 375 206 413 258 q 292 108 338 154 q 194 31 246 63 q 88 -1 143 -1 q 42 10 57 -1 q 19 71 8 28 q 59 138 28 106 q 138 203 90 171 q 248 269 186 236 q 381 340 310 303 q 399 349 392 346 q 419 374 414 357 q 417 407 425 392 q 398 440 406 426 q 386 465 390 454 q 378 483 378 478 q 381 499 368 493 q 383 499 382 499 q 385 500 383 500 q 394 494 389 500 q 406 475 397 492 q 419 449 411 464 q 436 418 428 433 q 451 403 443 403 q 468 418 460 403 q 515 509 493 464 q 551 597 536 554 q 574 675 567 639 q 578 738 581 711 q 539 793 571 781 q 469 806 507 806 q 388 793 431 806 q 304 760 346 781 q 224 710 263 739 q 156 650 186 682 q 104 511 74 565 q 140 492 114 492 q 179 499 160 492 q 211 517 199 506 q 222 541 222 524 q 226 565 221 558 q 244 575 235 575 q 266 562 257 575 q 271 535 275 549 q 256 515 268 526 q 226 494 244 504 q 187 478 208 485 q 144 471 165 471 q 110 477 125 471 q 86 501 96 483 q 81 576 67 533 q 139 664 94 618 q 210 725 169 696 q 297 777 251 754 q 391 813 343 800 q 483 826 439 826 q 570 810 531 826 q 615 740 610 793 q 594 608 622 688 q 521 440 567 528 q 522 428 518 433 q 532 422 525 422 q 538 424 536 422 q 800 597 676 501 q 1004 819 924 692 q 1015 825 1008 825 l 1018 825 m 403 314 q 410 325 407 319 q 410 331 413 331 q 408 330 408 331 q 406 329 407 329 q 398 325 401 326 q 390 321 394 324 q 264 253 324 286 q 157 190 204 221 q 79 128 110 158 q 40 65 49 97 q 40 45 38 56 q 53 28 42 35 q 85 18 67 18 q 176 52 129 18 q 267 133 224 86 q 347 231 311 181 q 403 314 382 282 z "},"L":{"ha":672,"x_min":31,"x_max":644,"o":"m 643 69 q 642 54 644 67 q 635 40 640 42 q 460 1 550 13 q 279 -11 369 -11 q 208 -9 243 -11 q 139 4 172 -7 q 133 6 138 6 q 121 1 125 6 q 85 -15 103 -15 q 51 -2 65 -15 q 35 31 38 11 q 44 58 31 50 q 64 65 51 65 q 101 50 79 65 q 113 44 108 44 q 117 47 115 44 q 125 56 119 50 q 244 202 176 111 q 376 395 311 293 q 491 597 440 497 q 560 771 542 697 q 560 803 567 796 q 550 814 553 811 q 525 819 536 819 q 456 804 497 819 q 370 763 415 789 q 281 704 325 738 q 200 635 236 671 q 176 608 189 624 q 154 577 164 593 q 142 545 144 561 q 147 515 139 529 q 163 500 153 504 q 186 496 174 496 q 226 503 206 496 q 258 521 247 510 q 266 546 267 529 q 269 569 265 563 q 290 581 276 581 q 315 567 304 581 q 315 542 325 553 q 247 493 292 511 q 175 475 203 475 q 126 506 143 475 q 183 650 96 560 q 255 710 211 676 q 349 772 299 743 q 451 822 400 801 q 543 842 503 842 q 579 833 563 842 q 598 812 590 826 q 599 765 606 797 q 560 654 588 717 q 494 524 532 592 q 413 385 457 456 q 323 249 368 314 q 234 128 278 183 q 154 35 190 72 q 152 28 151 32 q 158 22 153 24 q 238 14 183 14 q 322 18 275 14 q 421 30 369 22 q 526 50 472 38 q 629 79 579 63 q 643 69 640 82 m 90 10 q 98 18 97 13 q 94 28 99 24 q 89 31 92 31 q 63 43 71 43 q 56 33 56 43 q 76 7 58 17 l 81 7 q 90 10 82 7 z "},"M":{"ha":1338,"x_min":14,"x_max":1350,"o":"m 1336 806 q 1349 750 1350 786 q 1335 667 1347 714 q 1305 563 1324 619 q 1264 443 1286 506 q 1218 308 1240 376 q 1182 182 1196 240 q 1168 80 1168 124 q 1189 18 1168 36 q 1193 6 1200 15 q 1178 1 1190 3 q 1160 0 1165 0 q 1151 1 1154 0 q 1123 67 1125 22 q 1135 172 1121 111 q 1173 303 1149 232 q 1224 450 1197 375 q 1262 560 1243 506 q 1293 660 1281 614 q 1310 742 1306 707 q 1303 794 1314 778 q 1281 806 1293 804 l 1274 806 q 1025 628 1174 806 q 690 128 876 451 q 686 121 688 124 q 683 115 685 118 q 678 109 681 113 q 671 106 676 106 q 669 106 669 106 q 665 107 668 107 q 651 117 658 111 q 646 128 644 122 q 692 225 668 169 q 740 341 717 281 q 783 463 764 401 q 814 581 803 525 q 824 683 825 638 q 807 757 824 729 q 777 784 796 776 q 738 792 758 792 q 602 720 678 792 q 410 510 526 649 q 336 384 379 454 q 244 244 293 314 q 144 112 194 174 q 51 10 94 50 q 46 7 46 7 q 36 7 43 7 q 29 8 29 7 q 61 72 32 21 q 139 197 90 124 q 250 356 188 269 q 381 524 313 442 q 444 650 417 590 q 483 758 472 710 q 483 791 489 783 q 474 800 476 799 q 447 806 464 806 q 376 791 419 806 q 287 751 333 776 q 194 694 240 726 q 114 626 149 661 q 92 601 104 615 q 72 571 81 586 q 60 540 63 556 q 64 511 57 524 q 99 492 75 492 q 147 501 122 492 q 182 522 171 511 q 188 548 192 529 q 188 574 183 567 q 208 589 196 589 q 233 577 222 589 q 236 554 243 565 q 213 524 228 539 q 177 497 197 508 q 136 477 157 485 q 97 469 115 469 q 44 501 61 469 q 100 640 14 553 q 169 699 126 667 q 261 760 213 732 q 360 808 310 789 q 449 828 410 828 q 483 819 469 828 q 509 799 494 813 q 517 754 524 785 q 501 702 510 731 q 476 640 492 674 q 475 629 471 629 q 478 631 476 629 q 626 763 554 711 q 756 814 697 814 q 806 803 783 814 q 843 768 828 792 q 863 689 863 738 q 853 583 864 640 q 824 465 843 526 q 783 346 804 403 q 784 340 781 343 q 790 338 788 338 q 794 340 794 338 q 915 528 853 440 q 1040 683 976 617 q 1167 789 1103 750 q 1290 828 1231 828 q 1300 826 1297 828 q 1336 806 1322 826 m 114 126 q 206 247 158 179 q 300 386 254 314 q 197 247 244 315 q 114 126 150 179 z "},"N":{"ha":1028,"x_min":31,"x_max":1100,"o":"m 1096 126 q 1100 113 1100 124 q 1096 99 1100 101 q 1053 62 1078 81 q 1001 27 1029 43 q 944 1 974 11 q 889 -8 915 -8 q 843 -3 869 -8 q 803 14 817 3 q 772 74 776 35 q 776 166 767 114 q 806 281 786 218 q 847 408 825 343 q 885 525 867 467 q 915 635 904 583 q 926 726 926 686 q 908 788 926 765 q 846 811 888 811 q 833 810 839 811 q 818 808 826 810 q 729 779 772 803 q 643 719 686 756 q 556 637 600 683 q 464 539 511 590 q 438 506 450 524 q 414 471 425 489 q 376 406 396 439 q 335 339 357 374 q 262 232 299 285 q 190 134 225 179 q 123 53 154 89 q 67 -4 92 18 q 63 -8 67 -4 q 51 -8 60 -8 q 40 -6 43 -8 q 60 38 40 1 q 115 130 79 74 q 199 256 150 186 q 306 400 247 326 q 339 441 322 421 q 371 481 356 461 q 415 542 393 507 q 454 614 436 576 q 486 690 472 651 q 508 761 500 728 q 508 794 515 786 q 499 804 501 801 q 472 808 489 808 q 400 793 443 808 q 309 753 357 778 q 215 694 261 728 q 133 625 168 661 q 110 599 122 614 q 88 569 97 585 q 76 537 79 553 q 79 507 72 521 q 117 488 93 488 q 165 497 140 488 q 200 518 189 507 q 206 545 208 528 q 208 569 204 563 q 231 582 217 582 q 254 569 244 582 q 257 544 264 557 q 231 516 249 531 q 192 491 214 501 q 149 474 171 481 q 111 467 128 467 q 61 497 78 467 q 117 640 31 551 q 188 700 143 667 q 282 763 232 733 q 383 811 332 792 q 474 831 433 831 q 508 824 496 831 q 535 802 519 817 q 543 757 550 788 q 497 632 532 707 q 496 619 492 619 q 500 622 499 619 q 576 692 533 656 q 666 760 618 729 q 765 812 714 792 q 865 832 815 832 q 943 801 917 832 q 965 735 964 776 q 956 640 967 693 q 926 526 946 588 q 886 401 907 465 q 846 283 865 342 q 816 174 826 224 q 808 85 806 124 q 832 31 810 47 q 885 14 857 14 q 953 31 918 14 q 1015 71 988 49 q 1081 126 1049 94 q 1088 131 1085 131 q 1096 126 1094 131 m 119 100 q 224 235 168 158 q 332 397 279 313 q 211 235 265 314 q 119 100 157 157 z "},"O":{"ha":939,"x_min":13,"x_max":986,"o":"m 979 447 q 976 432 986 438 q 913 390 971 428 q 772 304 856 353 q 694 229 725 278 q 635 148 669 190 q 560 71 601 106 q 473 14 519 36 q 376 -8 426 -8 q 278 20 325 -8 q 203 90 231 49 q 174 125 190 110 q 136 151 157 140 q 90 183 108 167 q 60 219 72 200 q 23 309 33 258 q 19 415 13 360 q 47 528 25 471 q 104 640 68 586 q 263 792 171 740 q 458 843 354 843 q 560 831 510 843 q 655 793 611 818 q 731 730 699 768 q 779 639 764 692 q 793 510 799 581 q 760 363 788 440 q 758 359 758 360 q 757 356 758 358 q 759 340 754 347 q 772 333 764 333 q 803 349 775 333 q 865 386 832 365 q 928 426 899 407 q 964 450 958 444 q 971 451 967 451 q 979 447 978 451 m 649 219 q 653 232 651 226 q 651 238 654 238 q 649 237 650 238 q 647 236 649 236 q 463 156 557 190 q 267 121 369 121 q 242 122 250 121 q 225 115 231 124 q 226 96 219 106 q 291 37 250 60 q 376 14 332 14 q 456 34 417 14 q 531 85 494 54 q 597 153 567 117 q 649 219 628 189 m 606 249 q 685 310 651 272 q 733 397 718 349 q 757 519 753 458 q 746 633 761 579 q 701 717 732 682 q 629 776 669 753 q 542 810 589 799 q 447 821 494 821 q 268 772 351 821 q 122 628 185 722 q 67 522 88 576 q 41 415 47 467 q 44 315 35 363 q 78 232 53 268 q 91 216 82 226 q 110 196 100 206 q 131 178 121 186 q 149 171 142 171 q 157 190 160 171 q 155 209 156 200 q 154 229 154 218 q 167 334 151 282 q 211 432 182 386 q 249 478 225 453 q 301 524 272 503 q 364 563 331 546 q 429 585 397 579 l 432 585 q 448 577 442 585 q 455 560 454 569 q 451 542 456 550 q 433 531 446 533 q 414 535 426 528 q 389 543 401 543 q 383 542 385 543 q 378 540 379 542 q 374 539 375 540 q 288 481 324 517 q 228 403 251 444 q 194 316 206 361 q 185 229 183 271 q 204 164 185 183 q 272 144 224 144 q 390 157 326 144 q 493 193 440 168 q 606 249 546 218 z "},"P":{"ha":847,"x_min":10,"x_max":833,"o":"m 829 638 q 797 509 833 575 q 690 385 761 443 q 519 282 619 326 q 296 206 419 238 q 271 190 279 201 q 258 161 263 178 l 222 7 q 211 1 221 4 q 199 -1 201 -1 q 194 0 196 -1 q 188 14 185 3 l 231 175 q 228 186 233 182 q 218 189 224 190 q 204 199 204 189 q 214 210 204 210 q 249 243 242 217 l 381 742 q 378 755 383 749 q 365 761 372 761 q 360 760 361 761 q 217 681 282 728 q 108 583 151 635 q 46 436 33 499 q 85 407 53 407 q 101 411 96 407 q 109 439 110 422 q 113 463 108 456 q 132 475 121 475 q 154 463 144 475 q 161 438 164 451 q 138 409 154 422 q 104 388 122 396 l 104 389 q 83 385 94 385 q 44 397 61 385 q 25 432 28 410 q 92 599 10 504 q 215 707 140 656 q 378 790 290 758 q 400 815 396 797 q 411 824 403 824 q 414 822 414 824 l 428 822 q 437 814 435 817 q 443 811 439 811 q 446 812 444 811 q 450 813 447 813 q 506 823 478 819 q 563 826 535 826 q 653 816 607 826 q 737 783 699 806 q 801 724 775 760 q 829 638 826 689 m 301 229 q 533 311 438 263 q 687 415 628 360 q 772 527 746 469 q 794 636 799 585 q 768 714 792 682 q 710 767 744 746 q 633 797 675 788 q 551 806 592 806 q 500 801 524 806 q 447 790 476 797 q 426 774 432 786 q 417 747 421 763 l 288 257 q 286 238 285 246 q 297 229 288 229 l 301 229 z "},"Q":{"ha":854,"x_min":18,"x_max":1078,"o":"m 1078 -89 q 1076 -106 1078 -94 q 1069 -119 1074 -118 q 985 -132 1028 -132 q 879 -117 933 -132 q 772 -77 825 -101 q 667 -24 718 -53 q 568 35 615 6 l 565 36 q 542 43 554 43 q 518 36 529 43 q 382 -8 446 -8 q 299 10 336 -8 q 233 60 261 29 q 190 131 206 90 q 172 214 175 171 q 226 419 165 322 q 337 533 267 485 q 486 581 407 581 q 561 567 525 581 q 624 526 597 554 q 645 493 636 513 q 656 446 654 474 q 650 383 658 418 q 618 301 642 347 q 556 208 589 247 q 492 140 524 168 q 483 120 482 132 q 496 103 485 108 q 526 93 511 93 q 563 113 543 93 q 567 118 565 115 q 572 124 569 121 q 656 231 617 169 q 722 360 696 293 q 756 497 747 428 q 744 628 764 567 q 700 711 731 676 q 629 769 669 746 q 542 803 589 792 q 449 814 496 814 q 154 656 281 814 q 92 557 117 610 q 57 451 68 504 q 49 347 46 397 q 69 257 51 297 q 95 239 76 242 q 119 229 114 236 q 123 197 135 213 q 97 182 111 182 q 83 188 88 182 q 30 299 42 236 q 29 427 18 361 q 69 556 40 493 q 138 669 99 619 q 286 794 203 751 q 463 836 369 836 q 564 824 514 836 q 657 788 614 813 q 733 724 700 763 q 782 633 765 686 q 795 505 800 575 q 763 358 790 435 q 697 223 736 288 q 607 107 658 158 q 592 93 600 99 q 576 81 583 88 q 579 54 561 65 q 673 1 624 28 q 773 -47 722 -26 q 874 -81 824 -68 q 974 -94 925 -94 q 1064 -81 1022 -94 q 1073 -82 1068 -79 q 1078 -89 1078 -85 m 465 42 q 488 63 479 49 q 485 83 497 76 q 478 88 479 86 q 443 96 461 96 q 415 90 426 96 q 350 72 375 72 q 338 74 343 72 q 326 78 332 75 q 312 93 317 82 q 315 121 307 104 q 368 151 331 151 q 413 143 388 151 q 429 139 424 139 q 458 156 440 139 q 518 217 486 179 q 581 311 550 254 q 590 513 650 444 q 488 558 550 558 q 411 546 444 558 q 314 486 356 524 q 245 403 272 449 q 206 310 218 358 q 194 215 193 261 q 238 88 199 140 q 343 18 276 36 q 376 13 360 13 q 418 20 397 13 q 465 42 439 28 m 390 104 q 399 115 399 107 q 389 126 399 124 q 378 129 383 128 q 367 131 372 131 q 335 111 344 131 q 333 101 331 104 q 336 97 335 99 q 347 96 339 96 q 390 104 364 96 z "},"R":{"ha":860,"x_min":14,"x_max":882,"o":"m 879 99 q 880 83 882 94 q 875 69 878 72 q 749 13 808 29 q 636 -4 689 -4 q 481 32 549 -4 q 364 114 413 68 q 319 132 343 132 q 311 131 314 132 q 294 130 301 131 q 276 129 286 129 q 225 88 235 126 l 204 8 q 194 0 201 0 q 190 1 192 0 q 177 6 186 3 q 171 15 168 10 l 190 90 q 192 119 194 106 q 175 136 190 133 q 133 149 156 136 q 101 179 110 161 q 103 226 88 203 q 172 269 121 265 q 178 270 175 269 q 183 271 181 271 q 226 276 213 271 q 250 315 240 282 l 361 735 q 363 752 364 744 q 354 760 361 760 q 351 759 353 760 q 349 758 350 758 q 209 680 272 726 q 103 583 146 633 q 42 438 28 500 q 50 419 44 425 q 63 410 56 413 q 78 407 74 407 q 86 408 83 407 q 97 417 93 410 q 102 431 100 424 q 106 446 104 439 q 113 456 108 453 q 129 463 119 463 q 153 447 144 463 q 151 419 161 431 q 116 394 138 401 q 76 388 94 388 q 39 399 54 388 q 21 432 24 410 q 31 510 14 468 q 86 599 47 553 q 203 707 135 656 q 360 790 272 758 q 369 799 368 793 q 371 815 371 806 q 380 821 372 819 q 394 822 388 822 l 399 822 q 435 811 413 811 q 440 812 438 811 q 444 813 442 813 q 557 825 501 825 q 664 804 617 825 q 738 725 711 783 q 757 635 756 685 q 745 531 758 585 q 706 424 732 478 q 639 319 679 369 q 401 151 540 196 q 388 135 390 147 q 394 115 385 122 q 499 47 442 74 q 621 21 557 21 q 740 42 679 21 q 864 101 801 64 q 869 104 867 104 q 879 99 874 104 m 217 190 q 217 231 224 213 q 186 249 210 249 l 175 249 q 122 217 133 244 q 121 188 113 203 q 138 169 125 176 q 165 160 150 163 q 172 158 168 158 q 179 157 176 158 q 205 164 199 157 q 217 190 211 171 m 296 151 q 309 160 306 151 q 306 176 313 169 l 289 197 q 272 203 282 203 q 251 186 256 203 l 242 151 q 253 150 247 150 q 264 150 258 150 q 280 150 272 150 q 296 151 288 150 m 322 190 q 360 167 342 167 q 376 169 371 167 q 502 231 443 190 q 610 333 561 272 q 673 431 647 379 q 711 535 699 483 q 722 633 724 586 q 704 717 721 679 q 639 786 681 767 q 544 806 597 806 q 498 803 522 806 q 453 791 474 800 q 416 766 432 782 q 393 725 400 750 l 281 297 q 303 213 267 249 q 313 202 308 207 q 322 190 318 197 z "},"S":{"ha":569,"x_min":-1,"x_max":624,"o":"m 621 446 q 613 432 624 435 q 531 406 569 421 q 456 373 493 392 q 380 331 418 354 q 297 281 342 308 q 286 263 286 274 q 293 244 286 253 q 352 179 331 213 q 367 115 374 146 q 333 73 361 93 q 266 37 304 53 q 185 12 228 21 q 106 3 142 3 q 54 10 75 3 q 31 36 33 18 q 66 119 25 64 q 221 256 107 175 l 221 256 q 220 266 226 260 q 208 278 214 272 q 187 293 197 285 q 167 310 176 301 q 78 380 118 346 q 25 443 38 414 q 50 589 -1 507 q 116 657 67 615 q 228 738 165 699 q 356 804 290 776 q 472 832 422 832 q 549 793 526 832 q 556 765 554 782 q 552 722 558 747 q 528 664 546 697 q 478 586 511 631 q 472 583 476 583 q 463 582 467 582 q 450 583 451 582 q 449 599 443 590 q 476 638 460 614 q 504 688 492 661 q 522 740 517 714 q 517 783 526 765 q 458 811 499 811 q 356 783 415 811 q 240 717 297 756 q 139 639 183 678 q 81 576 94 600 q 57 451 36 506 q 108 394 68 426 q 192 326 147 361 q 209 313 200 319 q 225 300 218 307 q 257 290 239 290 q 283 297 269 290 q 448 391 374 354 q 607 453 522 428 q 609 453 608 453 q 611 454 610 454 q 621 446 618 454 m 332 119 q 317 175 339 146 q 258 236 294 204 q 244 244 250 244 q 233 239 244 244 q 92 117 138 171 q 51 40 46 64 q 65 28 53 32 q 97 25 78 25 q 165 32 126 25 q 238 51 203 39 q 300 81 274 64 q 332 119 326 99 z "},"T":{"ha":994,"x_min":14,"x_max":1035,"o":"m 1028 847 q 1033 834 1032 844 q 1032 819 1035 824 q 969 769 1008 783 q 886 756 931 756 q 788 766 838 756 q 699 788 738 776 q 685 789 693 789 q 644 761 656 789 q 564 576 613 681 q 460 369 515 471 q 346 180 404 267 q 235 49 288 93 q 117 0 179 0 q 82 6 97 0 q 15 69 32 19 q 23 83 14 74 q 38 94 32 93 q 49 88 46 97 q 70 39 58 56 q 117 22 82 22 q 210 68 160 22 q 310 185 260 114 q 408 344 360 257 q 497 515 457 432 q 568 667 538 599 q 613 771 599 736 q 610 794 617 782 q 589 807 603 807 q 406 768 486 807 q 254 657 326 729 q 172 544 197 600 q 154 449 146 489 q 163 430 157 436 q 175 421 169 424 q 193 417 183 417 q 206 419 200 417 q 217 445 217 426 q 222 471 217 464 q 242 481 231 481 q 267 466 257 481 q 265 439 276 451 q 225 407 246 415 q 189 399 204 399 q 133 443 142 399 q 152 551 124 490 q 240 671 181 611 q 397 784 310 740 q 585 828 485 828 q 609 827 597 828 q 633 825 621 826 q 649 831 643 825 q 660 836 654 836 q 667 829 667 836 q 681 815 668 818 q 774 792 725 800 q 869 783 822 783 q 953 796 914 783 q 1014 844 992 808 q 1022 849 1017 849 q 1028 847 1026 849 z "},"U":{"ha":1096,"x_min":47,"x_max":1139,"o":"m 1128 33 q 1139 24 1139 36 q 1136 10 1139 19 q 1129 0 1133 0 q 1108 -2 1118 -1 q 1088 -3 1099 -3 q 989 13 1035 -3 q 918 61 943 29 q 879 198 878 114 q 903 374 881 282 q 960 558 926 467 q 1021 717 994 650 q 1022 724 1022 721 q 1018 725 1022 729 q 984 678 1003 704 q 946 625 965 653 q 773 394 858 507 q 610 195 688 282 q 468 56 533 108 q 356 3 403 3 q 325 10 342 3 q 285 78 289 31 q 299 187 281 125 q 349 322 317 249 q 418 467 382 394 q 495 633 471 571 q 526 728 519 694 q 525 776 532 763 q 507 799 518 790 q 454 813 488 813 q 376 799 419 813 q 290 762 332 785 q 209 710 247 739 q 146 653 171 682 q 83 549 101 600 q 81 461 65 497 q 102 438 88 446 q 133 431 117 431 q 174 440 153 431 q 207 468 194 449 q 205 497 214 481 q 196 522 196 513 q 221 543 200 543 q 241 537 232 543 q 250 519 250 531 q 233 469 247 490 q 199 435 218 449 q 160 417 179 422 q 128 411 140 411 q 58 465 74 411 q 63 555 47 510 q 110 642 78 600 q 189 722 143 685 q 285 788 235 760 q 383 831 335 815 q 472 847 432 847 q 530 834 506 847 q 563 793 554 821 q 563 737 569 771 q 542 659 557 703 q 505 565 528 615 q 456 457 482 514 q 392 322 424 390 q 342 193 361 253 q 323 90 324 133 q 353 28 322 46 q 371 22 361 22 q 447 60 400 22 q 551 159 494 99 q 666 292 607 219 q 777 433 725 364 q 869 557 829 501 q 928 639 910 613 q 978 707 956 676 q 1018 760 1001 738 q 1049 798 1039 788 q 1067 808 1060 808 q 1070 808 1069 808 q 1074 807 1071 807 q 1079 792 1081 801 q 1075 775 1078 783 q 1064 746 1071 763 q 1050 710 1057 729 q 994 560 1026 649 q 940 379 961 471 q 917 206 918 288 q 953 74 915 124 q 1001 40 972 50 q 1069 31 1029 31 q 1098 31 1083 31 q 1128 33 1113 32 z "},"V":{"ha":1008,"x_min":10,"x_max":1008,"o":"m 993 892 q 968 712 1008 822 q 840 467 928 601 q 785 388 819 435 q 708 290 751 342 q 616 185 665 238 q 516 92 567 133 q 415 24 465 50 q 321 -1 365 -1 q 274 11 292 -1 q 233 78 236 32 q 248 186 231 125 q 298 320 265 247 q 365 467 331 393 q 412 567 389 517 q 451 660 435 617 q 474 737 467 704 q 474 783 481 769 q 417 807 460 807 q 340 793 383 807 q 253 758 297 779 q 172 708 210 736 q 110 653 133 681 q 48 549 65 600 q 46 461 31 497 q 67 439 53 446 q 97 432 82 432 q 140 441 117 432 q 174 472 163 450 q 169 499 181 483 q 160 524 158 515 q 168 543 161 538 q 185 549 175 549 q 204 542 196 549 q 213 525 213 536 q 199 473 213 494 q 167 438 186 451 q 129 417 149 424 q 96 411 110 411 q 54 422 74 411 q 26 453 35 432 q 21 537 10 493 q 63 624 32 581 q 138 705 93 667 q 232 772 182 743 q 332 819 282 801 q 422 836 382 836 q 510 793 485 836 q 514 738 519 772 q 493 660 508 704 q 453 565 478 617 q 401 457 429 514 q 338 322 369 390 q 288 194 307 253 q 269 91 269 135 q 300 29 269 47 q 328 22 311 22 q 454 85 369 22 q 541 158 496 115 q 632 251 586 200 q 722 360 678 303 q 806 478 767 418 q 924 719 892 608 q 942 896 956 831 q 950 908 939 906 q 973 903 954 910 q 993 892 992 896 z "},"W":{"ha":1396,"x_min":7,"x_max":1444,"o":"m 1429 890 q 1405 710 1444 821 q 1278 465 1365 600 q 1225 390 1258 436 q 1149 292 1192 343 q 1058 188 1107 240 q 959 94 1008 136 q 861 26 910 53 q 771 0 813 0 q 728 10 746 0 q 690 65 696 28 q 694 153 683 103 q 731 265 706 204 q 785 389 756 325 q 697 276 751 343 q 577 149 642 210 q 446 44 513 88 q 324 0 379 0 q 295 2 313 0 q 269 10 278 4 q 230 77 233 31 q 244 185 226 124 q 295 319 263 247 q 363 465 328 392 q 409 564 386 515 q 449 656 432 613 q 472 731 465 699 q 469 782 478 764 q 407 817 453 817 q 326 797 371 817 q 237 751 281 778 q 158 697 193 725 q 108 651 124 669 q 46 547 64 599 q 43 461 28 496 q 65 438 50 446 q 97 431 81 431 q 138 439 117 431 q 169 468 160 447 q 167 494 175 479 q 160 517 158 510 q 185 538 164 538 q 206 531 196 538 q 213 513 215 524 q 193 465 207 485 q 161 433 179 446 q 125 415 143 421 q 94 410 107 410 q 52 420 71 410 q 24 453 33 431 q 19 538 7 493 q 61 624 31 582 q 136 705 92 667 q 231 772 181 743 q 330 818 281 801 q 419 835 379 835 q 506 792 483 835 q 510 737 515 771 q 490 659 506 703 q 451 564 474 615 q 400 456 428 513 q 337 320 368 389 q 287 192 306 251 q 268 89 268 133 q 297 28 268 44 q 326 21 308 21 q 361 26 344 21 q 475 92 411 42 q 607 218 539 143 q 741 384 675 293 q 860 571 807 475 q 867 574 861 574 q 881 575 874 575 q 892 574 889 575 q 893 560 899 568 q 882 538 889 549 q 867 510 875 524 q 853 482 860 497 q 847 468 850 475 q 840 456 843 461 q 777 320 808 389 q 727 192 746 251 q 708 88 708 132 q 739 28 708 44 q 763 22 749 22 q 888 83 801 22 q 974 157 929 114 q 1065 251 1019 200 q 1155 360 1111 301 q 1238 478 1199 418 q 1354 715 1322 608 q 1372 886 1386 821 q 1381 899 1369 896 q 1407 897 1386 899 q 1429 890 1428 894 z "},"X":{"ha":997,"x_min":46,"x_max":946,"o":"m 638 525 q 601 418 593 482 q 606 400 604 407 q 633 250 618 324 q 672 113 649 176 q 726 -1 694 49 q 804 -78 758 -50 q 807 -92 813 -83 q 798 -104 804 -99 q 785 -110 792 -110 q 702 -26 736 -79 q 644 96 668 28 q 603 242 619 164 q 575 399 588 319 q 572 413 575 404 q 551 435 568 435 q 536 428 543 435 l 85 0 q 78 -3 82 -3 q 65 -2 75 -3 q 53 0 56 -1 q 53 15 46 8 l 504 443 q 538 554 553 490 q 512 654 528 607 q 473 737 496 701 q 420 793 450 772 q 353 814 390 814 q 272 792 317 814 q 175 722 228 771 q 108 615 122 674 q 113 511 93 556 q 144 478 124 489 q 189 467 165 467 q 215 472 203 467 q 238 488 228 476 q 242 513 244 497 q 243 536 239 529 q 264 550 251 550 q 288 538 278 550 q 292 515 297 526 q 238 461 272 475 q 179 447 204 447 q 158 450 164 447 q 119 469 136 454 q 93 503 103 483 q 88 617 69 554 q 158 738 106 679 q 252 808 199 779 q 365 838 306 838 q 459 809 422 838 q 519 738 496 781 q 556 643 543 694 q 578 547 569 592 q 593 529 582 529 q 606 535 599 529 l 911 826 q 925 829 914 829 q 939 826 933 829 q 939 810 946 818 l 638 525 z "},"Y":{"ha":783,"x_min":13,"x_max":801,"o":"m 793 825 q 800 813 801 821 q 796 797 799 804 q 784 756 790 782 q 769 696 778 729 q 740 565 757 639 q 695 415 722 492 q 631 263 668 338 q 542 131 593 189 q 424 36 490 72 q 271 0 357 0 q 253 9 261 0 q 244 29 246 18 q 247 49 242 40 q 265 58 251 58 q 270 58 268 58 q 275 57 272 57 q 298 53 286 54 q 321 51 310 51 q 434 88 382 51 q 530 182 486 124 q 608 313 574 240 q 669 460 643 386 q 713 602 696 535 q 740 717 731 669 q 738 732 743 732 q 731 726 735 732 q 715 706 724 715 q 699 685 707 696 q 569 512 633 596 q 447 362 506 428 q 340 256 389 296 q 254 217 290 217 q 235 218 247 217 q 218 222 224 219 q 186 274 189 239 q 197 356 183 310 q 235 458 210 403 q 286 568 260 513 q 322 642 304 606 q 353 711 340 679 q 370 767 365 743 q 367 804 375 792 q 319 826 350 826 q 258 812 292 826 q 192 777 224 797 q 135 737 160 757 q 99 704 110 717 q 53 628 67 665 q 51 564 40 590 q 85 543 58 546 q 108 546 96 543 q 132 560 121 549 q 133 589 143 571 q 125 618 124 607 q 150 639 131 639 q 170 631 161 639 q 181 613 179 624 q 172 578 181 594 q 148 550 163 563 q 115 531 133 538 q 81 524 97 524 q 32 554 46 524 q 40 652 13 600 q 117 747 67 704 q 226 819 167 790 q 332 847 286 847 q 399 813 382 847 q 387 713 414 781 q 319 558 360 644 q 274 460 297 511 q 235 365 250 410 q 220 288 221 321 q 242 242 219 254 q 256 238 249 238 q 296 252 272 238 q 344 288 319 267 q 393 335 369 310 q 435 381 417 360 q 565 540 500 454 q 682 697 631 626 q 719 749 701 725 q 749 789 736 772 q 773 817 765 808 q 788 826 781 826 q 793 825 792 826 z "},"Z":{"ha":901,"x_min":46,"x_max":851,"o":"m 824 208 q 840 203 828 207 q 851 194 851 199 q 843 170 851 194 q 812 115 835 146 q 747 51 789 83 q 633 4 704 19 q 572 -1 611 -1 q 472 5 528 -1 q 357 18 415 11 q 313 24 335 21 q 269 29 292 26 q 207 26 233 29 q 147 4 181 24 q 135 -3 140 0 q 122 -10 129 -7 q 82 -19 99 -19 q 53 -6 64 -19 q 47 12 46 4 q 50 25 47 19 q 78 47 57 40 q 114 57 99 54 q 118 58 117 57 q 121 58 119 58 q 188 80 161 63 q 243 126 214 97 q 367 264 301 186 q 497 423 433 342 q 619 581 561 504 q 719 715 676 657 q 729 728 724 719 q 739 744 736 735 q 735 753 742 753 q 729 751 732 753 q 626 722 683 736 q 508 697 568 708 q 389 680 447 686 q 282 674 331 674 q 235 677 263 674 q 183 690 208 681 q 141 716 158 700 q 124 758 124 732 q 138 800 122 782 q 169 824 154 818 q 193 828 182 828 q 235 807 221 828 q 241 797 236 806 q 251 777 246 789 q 258 752 256 765 q 260 728 261 739 q 250 711 258 717 q 231 706 242 706 q 213 711 221 706 q 204 732 206 717 q 215 753 204 739 q 224 779 225 767 q 221 786 222 782 q 218 793 219 790 q 209 801 215 797 q 192 806 203 806 q 160 792 174 806 q 146 760 146 778 q 161 728 146 740 q 199 708 176 715 q 244 699 221 701 q 281 696 267 696 q 415 706 338 696 q 569 733 492 717 q 710 769 646 750 q 807 807 775 789 q 828 833 822 826 q 838 839 835 839 q 851 828 851 839 q 828 794 851 811 q 825 792 826 793 q 822 790 824 792 q 792 751 810 775 q 756 701 775 728 q 647 556 708 638 q 519 391 586 475 q 385 228 453 307 q 258 92 318 150 q 252 67 247 81 q 272 51 257 54 q 315 46 293 49 q 360 40 336 43 q 472 26 417 33 q 571 19 526 19 q 725 63 658 19 q 810 199 792 107 q 824 208 813 211 m 138 25 q 142 32 143 28 q 136 36 140 36 q 125 35 129 36 q 118 35 121 35 q 84 26 96 32 q 69 17 72 21 q 69 13 69 15 q 72 7 69 11 q 83 3 75 3 q 115 11 94 3 q 126 17 119 14 q 138 25 132 21 z "},"d":{"ha":474,"x_min":-22,"x_max":601,"o":"m 489 426 q 493 411 499 422 q 475 378 492 407 q 432 309 458 350 q 372 219 406 268 q 302 128 339 171 q 227 53 265 85 q 156 11 189 21 q 151 10 154 11 q 140 10 147 10 q 114 15 129 10 q 88 35 99 19 q 72 80 76 50 q 79 160 68 110 q 101 245 88 197 q 133 346 114 293 q 133 355 136 351 q 124 358 129 358 q 118 357 119 358 q 89 340 104 347 q 53 328 72 332 q 22 324 35 324 q -3 331 7 324 q -17 351 -11 336 q -3 399 -22 367 q 65 461 22 442 q 139 481 107 481 q 158 478 147 481 q 160 477 160 478 q 163 476 161 476 q 165 476 164 476 q 168 475 167 475 q 188 488 183 475 q 224 571 200 518 q 278 685 247 624 q 343 810 308 746 q 413 925 378 874 q 481 1009 447 976 q 539 1042 514 1042 q 557 1038 547 1042 q 575 1018 567 1033 q 469 768 601 965 q 349 597 415 686 q 206 422 282 508 q 176 371 192 407 q 148 294 161 335 q 125 214 135 253 q 113 154 115 175 q 106 91 106 115 q 112 53 107 67 q 124 36 117 40 q 138 32 131 32 q 150 35 144 32 q 357 240 231 57 q 403 308 382 275 q 439 365 424 340 q 463 406 454 390 q 472 422 472 422 q 482 428 474 428 q 489 426 486 428 m 313 683 q 269 594 290 639 q 229 504 249 549 q 235 494 226 494 q 240 497 238 494 q 353 642 301 569 q 449 781 404 715 q 542 940 519 885 q 554 1007 565 994 q 543 1013 549 1013 q 503 986 528 1013 q 447 915 478 960 q 381 810 415 871 q 313 683 346 750 m 19 350 q 32 347 25 347 q 93 368 54 347 q 165 432 132 389 q 166 434 165 433 q 167 438 167 435 q 164 446 164 440 q 163 450 164 447 q 153 456 161 453 q 139 457 149 457 q 81 440 114 457 q 26 386 47 422 q 19 350 8 357 z "},"t":{"ha":300,"x_min":-125,"x_max":443,"o":"m 376 732 q 389 722 389 732 q 378 708 392 708 l 310 708 q 244 676 269 708 q 101 496 181 589 q 6 336 43 428 q -46 156 -31 244 q -53 65 -60 88 q -40 39 -46 42 q -24 33 -31 33 q -8 36 -15 33 q 199 242 72 58 q 244 312 224 278 q 281 372 265 346 q 307 414 296 399 q 326 429 318 429 q 331 428 329 429 q 335 413 340 424 q 297 348 321 388 q 244 263 274 308 q 179 173 214 218 q 109 91 144 128 q 39 31 74 54 q -26 8 4 8 q -61 18 -42 8 q -79 161 -101 40 q -51 272 -69 210 q -6 403 -32 333 q 53 547 21 472 q 124 696 86 622 q 124 704 126 700 q 115 708 121 708 l -112 708 q -125 722 -125 708 q -112 732 -125 732 l 101 732 q 161 768 140 732 q 198 836 172 790 q 255 928 224 882 q 320 1008 286 974 q 381 1043 354 1043 q 399 1039 389 1043 q 417 1019 408 1035 q 311 769 443 967 l 311 768 q 309 744 303 757 q 329 732 315 732 l 376 732 m 396 1008 q 385 1014 392 1014 q 350 994 371 1014 q 304 940 329 974 q 252 863 279 907 q 199 769 225 818 q 194 744 192 757 q 211 732 196 732 l 228 732 q 274 756 254 732 q 292 782 282 771 q 383 940 361 886 q 396 1008 406 994 m 47 471 q 213 672 136 569 q 215 696 221 683 q 194 708 208 708 l 183 708 q 165 702 171 708 q 154 685 160 696 q 99 578 128 632 q 47 471 69 524 z "},"p":{"ha":343,"x_min":-139,"x_max":369,"o":"m 361 428 q 363 411 369 421 q 311 350 335 372 q 267 328 288 328 l 261 328 q 216 356 233 331 q 188 410 199 382 q 151 456 169 456 q 106 424 131 456 q 60 349 82 392 q 24 266 39 307 q 4 206 8 225 l -106 -351 q -115 -359 -107 -358 q -126 -360 -122 -360 l -129 -360 q -137 -346 -139 -358 l 35 494 q 49 503 38 506 q 61 497 54 501 q 67 489 68 493 l 42 379 q 46 375 42 375 q 49 376 49 375 q 57 388 51 379 q 124 474 101 456 q 158 493 147 492 l 161 493 q 181 485 169 493 q 197 460 189 474 q 211 429 204 446 q 234 384 222 406 q 263 360 246 363 q 293 371 274 358 q 344 426 313 383 q 353 431 349 431 q 361 428 358 431 z "},"a":{"ha":340,"x_min":-25,"x_max":383,"o":"m 375 429 q 378 414 383 422 q 178 214 251 214 q 156 219 169 214 q 124 262 132 232 q 117 315 117 292 q 117 340 117 324 q 111 350 118 356 q 68 319 94 336 q 18 301 42 301 q -15 317 -1 301 q -24 340 -22 325 q -12 382 -25 356 q 45 451 13 435 q 106 467 78 467 q 135 464 121 467 q 147 460 142 461 q 153 444 158 454 q 147 439 151 440 q 154 438 151 439 q 163 429 158 435 q 164 408 167 424 q 152 355 156 382 q 150 304 149 328 q 158 263 151 281 q 175 240 164 246 q 186 238 181 238 q 208 244 194 238 q 241 272 221 251 q 290 328 261 292 q 358 426 319 365 q 368 432 364 432 q 375 429 369 432 m 14 331 q 31 326 22 326 q 63 338 46 326 q 94 365 79 350 q 119 395 108 381 q 133 417 131 410 q 139 432 136 425 q 144 438 139 435 q 138 439 139 438 q 128 442 136 439 q 108 444 121 444 q 65 431 89 444 q 18 372 40 417 q 14 331 4 342 z "},"z":{"ha":367,"x_min":-99,"x_max":393,"o":"m 386 426 q 385 410 393 418 q 335 366 382 408 q 222 257 289 324 q 211 193 194 228 q 236 105 231 149 q 239 24 242 61 q 213 -114 236 -53 q 157 -219 190 -175 q 85 -291 124 -264 q 15 -325 47 -318 q -10 -328 -1 -328 q -71 -293 -53 -328 q -89 -181 -99 -243 q -46 -53 -79 -119 q 38 78 -12 13 q 140 204 88 144 q 146 231 151 215 q 129 258 140 247 q 121 265 126 260 q 63 306 88 296 q 38 315 39 315 q 33 318 35 317 q 31 323 32 321 q 29 329 29 325 q 31 332 29 331 q 35 338 31 336 q 108 405 76 365 q 136 474 139 444 q 131 489 136 485 q 122 494 126 493 q 108 497 114 497 q 72 485 90 497 q 39 455 54 472 q 11 419 24 438 q -10 388 -1 400 q -19 382 -12 382 q -28 385 -22 382 q -29 400 -35 392 q -7 439 -21 418 q 25 477 7 460 q 65 506 43 494 q 111 518 86 518 q 149 507 131 518 q 169 475 168 496 q 152 412 171 447 q 100 347 133 376 q 90 332 93 340 q 93 319 86 324 q 119 304 106 313 q 146 283 132 296 q 158 272 154 275 q 182 261 169 261 q 204 271 194 261 q 315 380 268 338 q 369 428 363 422 q 376 431 372 431 q 386 426 382 431 m 207 25 q 185 175 210 113 q 168 190 178 190 q 153 182 160 190 q 54 62 101 125 q -24 -62 7 -1 q -65 -181 -56 -124 q -50 -282 -75 -237 q -31 -300 -43 -296 q -8 -304 -19 -304 q 11 -303 6 -304 q 75 -269 42 -296 q 137 -201 108 -243 q 185 -101 165 -158 q 207 25 204 -44 z "},"n":{"ha":401,"x_min":-39,"x_max":418,"o":"m -11 285 q -19 286 -17 285 q -26 292 -22 289 q -33 301 -31 294 q -35 338 -39 315 q -23 385 -31 361 q -7 428 -15 408 q 6 456 1 449 q 13 460 7 458 q 24 463 18 463 q 27 462 26 463 q 31 461 28 461 q 36 446 42 456 q 23 414 31 432 q 9 378 15 396 q -1 344 3 360 q -6 318 -6 328 q -1 314 -6 314 q 4 317 1 314 q 24 355 11 331 q 55 403 38 379 q 91 445 72 428 q 128 463 110 463 q 164 444 146 463 q 184 415 175 431 q 203 381 193 399 q 230 333 217 354 q 263 310 243 313 q 390 424 307 307 q 401 429 396 429 q 403 428 403 429 q 406 428 404 428 q 410 410 418 421 q 380 372 397 393 q 342 333 363 351 q 298 301 321 314 q 251 288 275 288 q 206 315 224 290 q 172 371 188 340 q 156 402 164 386 q 138 429 147 418 q 117 439 128 439 q 85 408 104 438 q 50 351 67 379 q 18 303 32 322 q -11 285 4 285 z "},"g":{"ha":289,"x_min":-226,"x_max":322,"o":"m 315 449 q 314 432 322 440 q 234 342 278 396 q 139 226 190 289 q 100 140 111 190 q 64 -34 82 46 q 26 -174 46 -114 q -17 -272 6 -235 q -65 -317 -39 -308 q -78 -319 -74 -319 q -107 -313 -90 -319 q -136 -293 -124 -307 q 29 136 -226 -197 q 44 155 36 146 q 58 172 51 164 q 81 222 76 197 q 106 351 93 293 q 106 371 107 358 q 101 383 106 383 q 99 382 100 383 q 61 356 88 371 q 11 342 35 342 q -21 356 -8 342 q -28 379 -28 364 q -18 421 -29 394 q 40 490 7 474 q 100 506 74 506 q 131 503 117 506 q 142 499 136 500 q 147 483 153 493 q 136 476 144 476 q 132 478 133 476 q 123 481 131 478 q 103 483 115 483 q 59 469 83 483 q 13 411 35 456 q 3 386 6 397 q 8 369 1 375 q 26 363 18 363 q 59 376 42 363 q 92 406 76 389 q 117 440 107 424 q 131 464 128 457 q 138 469 132 467 q 149 471 143 471 q 156 469 154 471 q 163 457 165 467 l 163 451 q 142 370 153 419 q 121 260 132 321 q 128 250 118 250 q 133 253 131 250 q 251 392 204 338 q 299 449 297 447 q 307 453 301 453 q 315 449 311 453 m -81 -294 q -40 -250 -60 -289 q -3 -154 -21 -211 q 31 -28 15 -97 q 60 110 46 42 q 51 119 61 119 q 44 117 46 119 q -42 -5 -3 56 q -106 -118 -82 -65 q -136 -212 -131 -171 q -119 -278 -142 -254 q -101 -292 -108 -290 q -81 -294 -94 -294 z "},"h":{"ha":513,"x_min":-87,"x_max":543,"o":"m 535 424 q 535 407 543 415 q 431 299 475 340 q 354 233 386 257 q 301 200 322 208 q 265 192 279 192 q 250 194 258 192 q 219 234 225 203 q 211 301 214 265 q 203 357 208 331 q 185 394 199 383 q 172 399 179 399 q 107 352 142 399 q 42 244 72 306 q -9 124 11 183 q -29 39 -29 65 q -32 32 -31 33 l -35 29 q -36 28 -36 29 q -37 28 -36 28 l -40 28 q -47 29 -46 28 q -69 165 -87 54 q -43 274 -61 213 q 1 403 -25 335 q 59 547 26 472 q 129 696 92 622 q 172 777 142 719 q 240 894 201 835 q 318 999 278 954 q 390 1044 358 1044 q 426 1021 414 1044 q 318 768 454 967 q 213 624 272 700 q 90 474 154 549 q 40 397 63 442 q 1 305 18 353 q -26 208 -15 257 q -42 117 -37 158 q -39 108 -42 108 l -37 110 q -36 114 -37 113 q -8 195 -28 143 q 40 297 13 247 q 103 385 68 347 q 175 422 138 422 q 204 415 188 422 q 235 372 229 404 q 244 303 242 339 q 251 249 247 275 q 268 217 254 222 q 271 216 269 217 q 275 215 272 215 q 303 224 285 215 q 349 256 321 233 q 419 319 378 279 q 517 422 460 360 q 526 426 521 426 q 535 424 529 426 m 83 521 q 85 507 79 507 q 90 510 88 507 q 202 649 149 579 q 299 781 256 718 q 392 940 369 885 q 406 1010 415 996 q 393 1017 401 1017 q 347 987 375 1017 q 289 910 319 957 q 226 807 258 864 q 167 695 194 750 q 117 593 139 640 q 83 521 94 546 z "},"r":{"ha":325,"x_min":-40,"x_max":353,"o":"m -15 272 q -23 272 -17 272 q -31 274 -29 272 q -37 279 -35 275 q -37 301 -40 283 q -25 353 -35 318 q 7 453 -15 389 q 18 460 10 458 q 32 461 26 461 q 40 446 43 457 q 8 346 21 392 q 15 362 11 354 q 22 378 19 369 q 74 477 51 440 q 122 515 97 514 q 158 489 143 517 l 163 481 q 206 413 185 443 q 251 379 226 382 q 293 393 275 379 q 326 424 311 407 q 336 428 331 428 q 344 425 339 428 q 344 407 353 417 q 302 366 325 386 q 249 346 279 346 q 190 384 214 350 q 142 460 165 418 q 135 476 138 468 q 128 487 132 482 q 122 492 125 492 q 104 479 114 492 q 84 448 94 467 q 63 408 74 429 q 44 368 53 386 q 24 324 33 344 q 4 289 14 304 q -3 278 1 283 q -15 272 -8 272 z "},"i":{"ha":222,"x_min":-22,"x_max":242,"o":"m -6 282 q -22 330 -22 301 q -13 384 -21 358 q 3 429 -6 410 q 13 450 13 449 q 31 456 17 456 q 39 454 36 456 q 43 439 49 450 q 30 410 38 429 q 17 371 22 392 q 12 330 11 350 q 22 297 13 310 q 51 286 32 286 q 96 302 72 288 q 142 337 119 317 q 185 380 165 357 q 215 421 204 403 q 224 426 217 426 q 231 425 228 426 q 235 408 242 417 q 200 365 222 389 q 151 319 178 340 q 97 282 125 297 q 44 264 68 267 q 17 267 29 264 q -6 282 6 271 m 47 471 q 40 471 46 471 q 32 472 35 471 q 28 488 22 476 l 42 517 q 50 522 43 522 q 57 521 54 522 q 68 514 61 518 q 72 506 75 510 l 57 476 q 47 471 54 471 z "},"b":{"ha":371,"x_min":-90,"x_max":440,"o":"m 381 425 q 389 428 383 428 q 399 422 394 428 q 396 406 404 414 q 355 376 394 406 q 258 299 315 346 q 219 226 224 271 q 200 133 217 190 q 157 21 183 76 q 97 -78 131 -35 q 26 -129 64 -121 q 13 -131 22 -131 q -12 -124 1 -131 q -39 -101 -26 -118 q -54 -36 -58 -76 q 175 258 -37 69 q 188 284 186 269 q 186 314 189 299 q 181 342 185 325 q 169 374 176 358 q 151 399 163 389 q 125 410 140 410 q 60 373 90 410 q 6 287 29 336 q -33 188 -17 238 q -56 110 -49 138 l -56 100 q -62 88 -57 89 q -71 86 -67 86 q -86 95 -82 86 q -90 111 -90 104 q -62 250 -82 179 q -15 391 -42 321 q 41 528 11 461 q 100 657 71 596 q 148 752 115 690 q 219 877 181 814 q 297 990 257 940 q 369 1046 338 1039 q 376 1047 372 1047 q 414 1022 401 1047 q 307 772 440 968 q 206 633 263 706 q 88 488 150 560 q 31 403 53 447 q -7 319 8 360 q -3 317 -7 317 l 0 317 q 24 356 11 335 q 55 394 38 376 q 92 422 72 411 q 136 433 113 433 q 170 423 156 433 q 194 397 185 413 q 210 362 204 381 q 218 326 215 343 q 233 315 221 315 q 243 318 240 315 q 297 361 272 342 q 340 394 321 381 q 381 425 363 411 m 72 517 q 72 506 67 506 l 75 508 q 190 650 135 579 q 288 785 244 721 q 378 942 358 889 q 392 1011 399 996 q 383 1018 389 1018 q 342 988 369 1018 q 278 906 314 957 q 205 788 243 854 q 131 647 167 721 q 101 581 115 614 q 72 517 86 549 m 179 188 q 183 202 182 194 q 185 217 183 210 q 182 228 188 228 q 181 228 181 228 q 176 225 179 228 q 100 155 136 193 q 37 80 64 117 q -8 11 10 43 q -29 -40 -25 -21 q -20 -87 -36 -68 q 11 -106 -4 -106 q 58 -79 33 -106 q 106 -11 83 -53 q 149 83 129 31 q 179 188 168 135 z "},"e":{"ha":265,"x_min":-76,"x_max":293,"o":"m 6 200 q -43 217 -22 200 q -68 299 -76 242 q -52 344 -64 317 q -22 399 -40 372 q 17 444 -4 425 q 60 464 38 464 q 83 456 74 464 q 88 417 99 440 q 63 381 79 399 q 19 357 46 364 q -32 304 -24 346 q -33 299 -33 301 q -35 294 -33 297 q -19 235 -40 254 q 14 224 -4 224 q 81 247 44 224 q 152 303 117 271 q 218 372 188 336 q 267 431 249 407 q 276 435 271 435 q 283 432 281 435 q 286 415 293 425 q 275 402 285 414 q 249 372 265 390 q 213 331 233 354 q 167 286 192 308 q 6 200 69 200 m 60 440 q 54 439 57 440 q 34 426 43 436 q 14 401 25 417 q 10 390 10 396 q 17 385 11 385 q 43 401 25 385 q 65 426 61 418 q 67 439 69 435 q 64 440 65 439 q 60 440 63 440 z "},"q":{"ha":319,"x_min":-94,"x_max":351,"o":"m 340 464 q 347 444 351 458 q 236 278 299 357 q 79 158 174 199 q 67 147 71 156 q 67 129 63 139 q 80 53 76 99 q 75 -64 83 7 q 63 -126 72 -83 q 40 -211 54 -168 q 7 -287 26 -254 q -37 -325 -12 -321 q -66 -315 -57 -325 q -82 -287 -75 -304 q -94 -211 -94 -257 q -82 -110 -93 -165 q -52 5 -71 -56 q -11 125 -33 65 q -12 141 -7 132 q -24 154 -17 150 q -52 169 -37 157 q -60 196 -67 181 q -33 210 -54 210 q 8 199 -18 210 q 15 199 11 199 q 21 204 19 200 q 40 254 31 231 q 61 301 50 278 q 60 313 64 308 q 50 317 57 317 l 46 317 q 34 313 40 314 q 22 310 28 311 q -6 312 8 310 q -28 328 -19 314 q -37 354 -35 338 q -24 399 -39 371 q 38 474 4 457 q 99 492 71 492 q 128 489 114 492 q 140 485 135 486 q 147 468 153 479 q 140 463 146 463 q 133 465 139 463 q 125 467 132 465 q 107 469 118 469 q 61 455 88 469 q 10 389 35 440 q 3 343 -7 356 q 22 335 8 335 q 60 350 38 335 q 111 410 83 365 q 123 438 117 421 q 144 454 129 454 q 153 453 150 454 q 157 441 154 451 q 146 399 160 431 q 103 308 131 367 q 47 178 76 249 q 74 187 47 178 q 140 225 100 196 q 229 310 181 254 q 324 457 278 365 q 340 464 328 464 m -31 183 q -17 177 -25 181 q 6 172 -8 174 q -1 176 0 175 q -19 181 -12 179 q -31 183 -25 182 m 47 -60 q 51 44 54 -8 q 32 133 49 97 q 31 139 29 139 q 31 133 32 139 q 3 56 22 108 q -31 -57 -15 4 q -55 -178 -47 -118 q -50 -279 -62 -239 q -36 -297 -44 -297 q -10 -266 -24 -297 q 16 -194 4 -235 q 37 -114 28 -153 q 47 -60 46 -75 z "},"u":{"ha":351,"x_min":-19,"x_max":376,"o":"m 367 428 q 371 411 376 422 q 171 211 244 211 q 146 217 157 211 q 115 266 121 232 q 110 325 110 300 q 100 335 110 335 q 92 332 94 335 q 64 311 79 319 q 32 303 49 303 q 6 310 18 303 q -12 329 -7 317 q -19 364 -19 344 q -13 402 -18 383 q -3 435 -8 421 q 4 451 3 449 q 11 456 6 454 q 22 457 17 457 q 31 456 29 457 q 35 440 40 451 q 18 392 28 425 q 18 339 8 358 q 42 326 24 326 q 70 338 57 326 q 95 365 83 349 q 116 399 107 381 q 132 432 125 417 q 135 439 135 435 q 139 446 136 443 q 156 453 146 453 q 167 449 163 453 q 169 436 172 444 l 168 432 q 164 424 167 431 q 147 367 153 397 q 142 311 142 338 q 149 265 143 285 q 167 238 154 244 q 178 235 172 235 q 199 241 186 235 q 233 267 213 247 q 283 324 254 288 q 351 422 313 361 q 363 429 354 429 q 367 428 365 429 z "},"c":{"ha":268,"x_min":-76,"x_max":294,"o":"m 7 194 q -42 211 -21 194 q -65 293 -76 238 q -51 339 -62 311 q -21 393 -39 367 q 18 439 -3 419 q 61 458 39 458 q 85 450 75 458 q 90 413 100 435 q 79 404 86 404 q 74 406 75 404 q 68 422 64 411 q 71 431 69 425 q 65 433 72 436 q 38 415 53 429 q 8 381 22 401 q -17 336 -7 360 q -32 289 -28 313 q -17 229 -40 249 q 17 218 -4 218 q 83 242 47 218 q 154 298 119 265 q 219 366 189 331 q 268 425 250 401 q 278 429 272 429 q 286 426 281 429 q 288 410 294 418 q 278 397 288 408 q 252 367 268 385 q 215 326 236 349 q 168 281 193 303 q 7 194 71 194 z "},"k":{"ha":349,"x_min":-90,"x_max":440,"o":"m 357 422 q 360 406 368 417 q 308 331 338 368 q 244 263 279 293 q 169 214 210 233 q 81 194 128 194 q 24 203 49 194 q -15 219 0 211 q -25 222 -24 222 q -36 207 -33 222 q -50 148 -44 178 q -56 97 -56 118 q -61 85 -56 86 q -71 83 -67 83 q -86 92 -82 83 q -89 108 -90 101 q -64 233 -85 161 q -60 269 -60 249 q -58 272 -58 271 q -46 297 -50 283 q 17 467 -19 376 q 100 654 54 558 q 148 749 115 688 q 219 874 181 811 q 297 987 257 938 q 369 1043 338 1036 q 395 1039 385 1043 q 414 1019 406 1035 q 308 769 440 967 q 208 630 264 703 q 89 485 151 557 q -25 282 10 393 l -25 281 q 6 314 -8 297 q 33 350 19 331 q 94 425 64 390 q 156 460 125 460 q 175 436 175 460 q 160 425 172 422 l 154 425 q 105 396 133 425 q 53 335 76 367 q 23 296 38 314 q -4 267 8 278 q -10 251 -11 260 q -1 239 -8 243 q 81 219 38 219 q 135 228 106 219 q 199 258 165 236 q 267 319 232 281 q 340 419 303 358 q 350 425 343 425 q 357 422 351 425 m 132 644 q 101 578 117 611 q 72 514 86 546 q 71 503 69 503 q 75 506 72 503 q 190 647 135 576 q 288 782 244 718 q 379 940 358 886 q 393 1008 400 993 q 385 1014 392 1014 q 342 983 371 1014 q 279 902 314 953 q 206 785 244 851 q 132 644 167 718 z "},"o":{"ha":267,"x_min":-26,"x_max":292,"o":"m 31 294 q -14 338 -1 301 q -11 412 -26 374 q 28 478 4 450 q 43 482 32 482 q 53 479 50 482 q 56 463 63 472 q 18 395 24 426 q 18 344 13 364 q 46 324 22 324 q 85 347 67 324 q 82 375 97 363 q 62 408 67 390 q 58 443 57 426 q 71 481 61 461 q 103 500 81 500 q 135 482 121 500 q 147 443 146 467 q 138 390 149 419 q 138 382 135 386 q 147 378 142 378 q 197 392 167 381 q 269 433 226 404 q 276 436 275 436 q 286 429 282 436 q 282 414 292 421 q 198 367 233 381 q 138 354 163 354 q 110 340 119 354 q 103 333 107 336 q 97 325 100 329 q 67 300 81 306 q 31 294 54 294 m 88 442 q 90 415 85 426 q 101 397 94 404 q 108 393 106 393 q 117 400 113 393 q 124 440 125 424 q 117 468 124 457 q 103 478 110 478 q 93 470 97 478 q 88 442 89 463 z "},"w":{"ha":532,"x_min":-22,"x_max":561,"o":"m 553 425 q 553 408 561 417 q 451 331 494 356 q 376 299 408 306 q 333 281 353 294 q 306 246 314 268 q 256 166 282 189 q 207 143 231 143 q 163 169 181 143 q 135 229 146 194 q 119 299 125 264 q 113 351 114 333 q 101 360 111 360 q 94 357 97 360 q 57 315 76 332 q 18 299 38 299 q 8 300 11 299 q -15 319 -8 304 q -22 356 -22 335 q -16 397 -21 376 q -6 431 -11 417 q 0 450 -1 446 q 11 456 3 456 l 17 456 q 27 449 21 453 q 31 440 33 444 q 23 417 28 432 q 15 387 18 403 q 12 356 13 371 q 15 331 11 340 q 28 321 17 321 q 53 338 36 321 q 107 415 71 356 q 131 431 115 431 q 133 430 132 431 q 138 429 135 429 q 142 413 146 425 l 142 413 q 143 365 140 403 q 155 285 146 328 q 178 208 164 243 q 211 167 192 172 q 215 165 213 165 q 245 188 226 165 q 300 289 264 210 q 294 322 310 307 l 294 322 q 265 388 272 347 q 263 471 258 428 q 282 551 268 514 q 315 607 296 589 q 358 631 342 631 q 374 626 365 631 q 381 620 376 625 q 388 604 385 615 q 394 574 392 593 q 393 521 396 554 q 375 426 388 471 q 346 338 363 382 q 347 325 343 331 q 358 321 351 319 q 536 425 426 324 q 543 428 539 428 q 553 425 547 428 m 328 354 q 339 385 333 369 q 351 419 344 401 q 363 467 357 435 q 371 531 368 499 q 372 585 374 563 q 358 607 369 608 q 324 576 340 606 q 297 506 307 546 q 289 423 288 465 q 310 353 290 381 q 318 344 314 344 q 328 354 322 344 z "},"f":{"ha":322,"x_min":-81,"x_max":350,"o":"m 25 -336 q -25 -303 3 -336 q -74 -56 -81 -235 q -49 172 -71 46 q -57 214 -47 196 q -58 217 -58 215 q -61 226 -61 219 q -54 240 -61 233 q -32 275 -39 256 q -21 315 -25 294 q 26 506 0 410 q 81 688 53 601 q 139 846 110 774 q 194 964 168 918 q 203 969 197 967 q 214 971 208 971 q 221 969 219 971 q 225 953 231 963 q 171 835 200 907 q 113 676 142 764 q 56 490 83 589 q 7 293 28 392 q 18 248 1 268 q 58 228 35 228 q 74 231 63 228 q 199 293 129 246 q 325 426 268 340 q 335 432 331 432 q 342 429 339 432 q 344 414 350 422 q 286 339 319 375 q 213 274 253 303 q 129 224 174 244 q 38 196 85 204 q 16 183 24 193 q 13 158 8 172 q 25 110 18 136 q 36 64 32 83 q 60 -89 51 -12 q 68 -221 69 -165 q 33 -335 68 -322 q 25 -336 31 -336 m -3 158 q -11 165 -6 165 q -18 158 -18 165 q -37 14 -31 83 q -42 -114 -43 -56 q -29 -217 -40 -172 q 3 -289 -18 -262 q 22 -301 14 -301 q 36 -290 31 -301 q 43 -261 42 -279 q 42 -135 49 -212 q 19 29 35 -58 q 7 103 13 71 q -3 158 1 135 z "},"x":{"ha":428,"x_min":-83,"x_max":453,"o":"m 443 428 q 450 413 453 425 q 434 379 449 410 q 394 309 419 349 q 335 233 369 269 q 260 181 301 196 q 228 175 244 175 q 154 202 189 175 q 90 268 119 229 q 56 288 76 288 q 39 281 46 288 l -58 189 q -65 185 -61 185 q -74 189 -72 185 q -74 206 -83 196 l 29 304 q 38 350 50 325 q 0 420 17 388 q -19 457 -17 453 q -12 472 -22 468 q 1 471 -7 472 q 13 465 10 469 q 24 439 18 453 q 38 412 31 428 q 56 376 46 396 q 79 363 64 363 q 97 369 90 363 l 186 456 q 193 458 189 458 q 201 454 197 458 q 201 439 210 447 l 107 347 q 96 324 97 338 q 103 299 94 310 q 126 270 113 286 q 156 240 140 254 q 191 217 172 226 q 228 208 210 208 q 253 213 240 208 q 321 263 289 228 q 376 333 353 297 q 414 395 400 368 q 428 422 428 422 q 439 429 431 429 q 443 428 442 429 z "},"j":{"ha":174,"x_min":-357,"x_max":190,"o":"m -208 -335 q -237 -328 -221 -335 q -267 -308 -254 -322 q -101 121 -357 -212 q -87 140 -94 131 q -72 157 -79 149 q -49 207 -54 182 q -20 356 -33 290 q 6 457 -7 422 q 16 464 7 461 q 29 465 25 467 q 38 450 40 461 q 15 372 26 422 q -7 257 4 321 q -3 243 -10 243 q 3 247 -1 243 q 117 376 69 325 q 167 428 165 426 q 175 432 169 432 q 183 428 179 432 q 183 411 190 418 q 108 333 151 379 q 18 231 65 286 q -19 167 -7 201 q -37 94 -31 132 q -72 -68 -54 7 q -108 -199 -89 -143 q -149 -290 -128 -256 q -196 -332 -171 -325 q -208 -335 -204 -335 m -72 88 q -82 100 -69 100 q -90 96 -86 100 q -175 -24 -136 36 q -237 -135 -214 -83 q -266 -228 -261 -187 q -249 -293 -271 -269 q -231 -308 -237 -306 q -211 -310 -225 -310 q -171 -267 -190 -304 q -133 -173 -151 -229 q -100 -49 -115 -117 q -72 88 -85 19 m 38 482 q 32 481 35 481 q 27 480 29 481 q 24 479 25 479 q 15 493 13 482 l 22 525 q 36 533 24 533 q 48 529 40 532 q 54 522 56 526 l 46 490 q 38 482 46 485 z "},"m":{"ha":557,"x_min":-26,"x_max":594,"o":"m 585 431 q 586 414 594 422 q 507 334 543 363 q 439 306 471 306 q 392 322 413 306 q 358 362 372 338 q 335 413 344 386 q 319 460 326 439 q 312 483 318 464 q 300 503 306 503 q 288 493 294 503 q 276 469 282 483 q 263 438 269 454 q 253 410 257 422 q 234 362 243 386 q 214 315 225 338 q 193 288 206 301 q 163 275 181 275 q 139 301 147 278 q 122 368 131 324 q 115 411 119 385 q 104 438 110 438 q 97 425 103 436 q 85 401 92 414 q 72 377 78 389 q 65 363 67 365 q 43 317 54 339 q 21 275 32 294 q 7 264 18 271 q -11 257 -4 257 q -17 258 -14 257 q -24 264 -21 260 q -26 280 -26 268 q -22 313 -25 292 q -10 369 -18 333 q -1 403 -6 388 q 7 433 3 419 q 14 463 10 449 q 24 469 15 468 q 38 471 33 471 q 46 457 49 468 q 13 324 26 382 q 17 319 13 319 q 19 321 19 319 q 32 346 26 333 q 44 372 38 358 q 81 443 67 419 q 113 467 96 467 q 136 444 128 467 q 147 410 143 429 q 154 372 151 392 q 160 344 157 360 q 168 315 164 328 q 178 308 171 308 q 186 313 185 308 q 189 319 188 315 q 192 325 190 322 q 212 371 203 347 q 231 418 221 394 q 269 508 254 478 q 301 538 283 538 q 320 527 314 538 q 329 513 326 517 q 335 497 332 506 q 340 476 338 488 q 355 435 347 458 q 373 392 363 413 q 397 358 383 372 q 429 339 411 343 q 434 338 432 339 q 439 338 436 338 q 569 429 493 338 q 578 433 574 433 q 585 431 582 433 z "},"s":{"ha":365,"x_min":-314,"x_max":378,"o":"m -231 -308 q -297 -269 -275 -308 q -307 -208 -314 -239 q -274 -142 -300 -176 q -206 -68 -249 -107 q -108 15 -162 -29 q -71 69 -81 38 q -61 135 -61 100 q -53 239 -61 174 q -26 367 -46 304 q 27 475 -7 429 q 117 521 61 521 q 162 509 140 521 q 203 469 183 497 q 222 410 219 443 q 218 365 225 378 q 207 358 214 358 q 196 365 200 358 q 197 376 194 368 q 199 408 200 382 q 182 458 197 433 q 121 493 160 493 q 43 444 72 493 q -1 331 14 396 q -21 203 -17 267 q -25 108 -25 139 q -12 96 -25 96 q -6 99 -11 96 q 170 247 78 165 q 353 426 263 328 q 361 431 357 431 q 369 428 367 431 q 371 410 378 419 q 188 230 279 311 q 13 82 96 149 q -26 8 -24 54 q -40 -81 -29 -32 q -73 -176 -51 -131 q -126 -258 -94 -222 q -204 -306 -158 -293 q -217 -308 -211 -307 q -231 -308 -224 -308 m -61 -1 q -68 15 -58 15 q -75 11 -71 15 q -172 -70 -129 -32 q -243 -142 -215 -108 q -281 -204 -271 -175 q -276 -258 -290 -233 q -261 -278 -269 -271 q -239 -285 -253 -285 q -221 -282 -235 -285 q -173 -256 -199 -276 q -124 -201 -147 -236 q -84 -117 -101 -167 q -61 -1 -67 -68 z "},"v":{"ha":367,"x_min":-19,"x_max":404,"o":"m -19 453 q -8 465 -19 465 q 5 462 -3 465 q 13 454 13 458 q 16 390 13 422 q 24 330 19 357 q 35 284 29 303 q 50 263 42 265 q 60 265 54 260 q 68 274 65 271 q 103 322 83 289 q 144 396 124 356 q 153 456 160 424 q 144 524 144 489 q 158 602 144 571 q 199 642 172 633 q 218 646 210 646 q 240 633 235 646 q 196 447 265 599 l 196 446 q 196 404 185 425 q 246 357 219 365 q 267 353 257 353 q 379 428 315 353 q 388 432 383 432 q 396 428 392 432 q 396 413 404 421 q 337 356 371 382 q 265 331 303 331 q 219 345 239 331 q 183 381 199 360 q 174 386 179 386 q 161 379 165 386 q 121 306 140 339 q 86 258 101 274 q 64 243 75 247 q 43 239 53 239 q 8 267 21 239 q -10 331 -4 294 q -18 402 -17 367 q -19 453 -19 438 m 217 622 q 206 621 208 622 q 178 588 188 614 q 168 524 168 563 q 168 505 168 514 q 171 488 168 496 q 179 479 171 479 q 188 485 186 479 q 220 578 213 544 q 221 621 228 613 q 217 622 221 622 z "},"l":{"ha":300,"x_min":-111,"x_max":432,"o":"m -82 18 q -106 66 -101 32 q -100 161 -111 100 q -72 272 -90 210 q -26 403 -53 333 q 33 547 0 472 q 103 696 65 622 q 128 746 111 714 q 167 817 144 778 q 214 896 189 856 q 265 969 239 936 q 315 1022 290 1001 q 360 1043 339 1043 q 383 1039 369 1043 q 406 1019 397 1035 q 299 769 432 965 q 195 626 253 700 q 74 478 138 551 q -18 327 15 411 q -67 156 -51 243 q -74 65 -81 88 q -61 39 -67 42 q -39 33 -51 33 q -19 36 -26 33 q 188 242 58 57 q 233 309 213 276 q 269 367 254 342 q 294 408 285 392 q 303 424 303 424 q 313 429 304 429 q 318 428 317 429 q 324 413 329 424 q 260 306 303 374 q 165 171 217 238 q 56 56 113 104 q -46 7 0 7 q -82 18 -67 7 m 369 1019 l 367 1019 q 318 985 346 1017 q 260 908 290 954 q 198 805 229 861 q 139 694 167 749 q 89 592 111 639 q 56 518 67 546 q 64 507 53 507 q 84 525 68 507 q 122 571 100 543 q 169 632 144 599 q 217 696 194 665 q 257 750 240 726 q 279 782 274 774 q 371 940 350 886 q 383 1008 392 993 q 369 1019 379 1019 z "},"y":{"ha":329,"x_min":-196,"x_max":351,"o":"m 346 432 q 344 415 351 422 q 272 335 313 382 q 186 232 231 288 q 124 100 139 176 q 90 -65 107 11 q 53 -197 72 -140 q 14 -289 35 -254 q -33 -328 -7 -324 q -47 -329 -37 -329 q -104 -304 -83 -329 q 61 125 -196 -208 q 89 161 74 143 q 113 211 106 182 q 128 297 121 256 q 143 371 136 338 q 99 328 126 347 q 46 310 72 310 q 19 317 32 310 q 1 336 7 324 q -5 371 -6 351 q 1 409 -4 390 q 11 442 6 428 q 18 458 17 456 q 29 465 21 465 q 33 464 32 465 q 44 457 38 461 q 49 449 51 453 q 41 427 46 440 q 33 399 36 414 q 28 370 29 385 q 32 346 28 356 q 56 333 38 333 q 90 347 72 333 q 122 380 107 361 q 147 419 136 399 q 163 453 157 440 q 165 457 163 454 q 167 461 167 460 q 186 469 169 469 q 192 468 190 469 q 199 454 201 465 q 176 375 188 426 q 154 258 165 324 q 164 246 151 246 q 172 250 168 246 q 283 380 239 329 q 328 432 328 431 q 336 436 332 436 q 346 432 342 436 m -50 -306 q -8 -261 -28 -300 q 29 -165 11 -222 q 63 -37 47 -107 q 92 101 78 33 q 90 108 93 106 q 83 111 86 111 q 78 108 79 111 q -10 -14 31 47 q -75 -128 -50 -75 q -105 -223 -100 -181 q -87 -289 -110 -265 q -70 -303 -76 -301 q -50 -306 -64 -306 z "},"'":{"ha":110,"x_min":10,"x_max":67,"o":"m 39 796 q 31 800 35 796 q 13 839 17 817 q 12 881 10 861 q 18 913 14 900 q 22 928 22 926 q 44 944 29 944 q 51 944 49 944 q 56 943 54 943 q 63 933 60 940 q 64 921 67 925 q 57 909 64 921 q 44 881 50 897 q 38 845 39 864 q 47 813 36 826 q 46 799 56 804 q 39 796 40 796 z "},",":{"ha":75,"x_min":11,"x_max":65,"o":"m 22 204 q 17 208 18 207 q 19 219 11 214 q 34 242 31 228 q 37 271 38 257 q 33 296 36 285 q 31 307 31 307 q 35 316 31 310 q 43 322 40 322 q 55 320 46 322 q 65 303 64 318 q 65 290 65 301 q 63 264 65 279 q 52 233 60 249 q 29 206 44 217 q 22 204 26 204 z "},".":{"ha":51,"x_min":10,"x_max":42,"o":"m 10 306 q 26 322 10 322 q 42 306 42 322 q 26 288 42 288 q 10 306 10 288 z "},"-":{"ha":250,"x_min":26,"x_max":222,"o":"m 213 381 q 222 371 222 381 q 213 360 222 360 l 36 360 q 26 371 26 360 q 36 381 26 381 l 213 381 z "},"+":{"ha":258,"x_min":24,"x_max":235,"o":"m 224 381 q 235 371 235 381 q 224 360 235 360 l 154 360 q 140 346 140 360 l 140 275 q 129 265 140 265 q 118 275 118 265 l 118 346 q 104 360 118 360 l 35 360 q 24 371 24 360 q 35 381 24 381 l 104 381 q 118 396 118 381 l 118 465 q 129 476 118 476 q 140 465 140 476 l 140 396 q 154 381 140 381 l 224 381 z "},"*":{"ha":171,"x_min":28,"x_max":138,"o":"m 126 779 q 138 769 135 779 q 126 758 138 758 l 119 758 q 115 756 117 758 q 117 750 114 753 l 121 744 q 122 731 128 738 q 113 726 118 726 q 106 731 110 726 l 101 735 q 97 736 100 736 q 93 731 93 736 l 93 724 q 82 714 93 711 q 72 725 72 714 l 72 731 q 67 736 72 736 q 64 735 64 736 l 58 731 q 53 726 57 726 q 43 731 47 726 q 44 744 38 738 l 49 750 q 50 756 51 753 q 46 758 49 758 l 38 758 q 28 769 28 758 q 39 779 28 779 l 46 779 q 50 782 49 779 q 49 788 51 785 l 44 793 q 44 808 36 800 q 51 810 46 810 q 58 807 56 810 l 64 801 q 67 800 65 800 q 72 806 72 800 l 72 813 q 83 824 72 824 q 93 813 93 821 l 93 806 q 97 800 93 800 q 99 801 99 800 q 101 801 100 801 l 107 807 q 114 810 110 810 q 122 807 117 810 q 121 792 128 799 l 117 788 q 115 782 114 785 q 119 779 117 779 l 126 779 z "},"^":{"ha":294,"x_min":31,"x_max":267,"o":"m 264 550 q 258 538 267 540 q 250 539 253 538 q 246 544 246 539 l 167 740 q 154 749 163 749 q 143 742 147 749 l 51 544 q 43 540 49 539 l 39 540 q 35 554 31 546 l 147 797 q 156 801 150 801 q 164 796 161 801 l 264 550 z "},"/":{"ha":110,"x_min":-121,"x_max":161,"o":"m 149 813 q 156 799 161 810 l -96 74 q -111 67 -99 67 q -118 82 -121 71 l 135 806 q 146 814 138 814 q 149 813 147 814 z "},"\\":{"ha":88,"x_min":-121,"x_max":161,"o":"m -111 813 q -107 814 -110 814 q -96 806 -99 814 l 156 82 q 149 67 161 72 q 135 74 138 67 l -118 799 q -111 813 -121 810 z "},":":{"ha":94,"x_min":31,"x_max":63,"o":"m 31 306 q 47 322 31 322 q 63 306 63 322 q 47 288 63 288 q 31 306 31 288 m 31 572 q 47 589 31 589 q 63 572 63 589 q 47 554 63 554 q 31 572 31 554 z "},";":{"ha":97,"x_min":11,"x_max":65,"o":"m 31 574 q 47 590 31 590 q 63 574 63 590 q 47 556 63 556 q 31 574 31 556 m 22 204 q 17 208 18 207 q 19 219 11 214 q 34 242 31 228 q 37 271 38 257 q 33 296 36 285 q 31 307 31 307 q 35 316 31 310 q 43 322 40 322 q 55 320 46 322 q 65 303 64 318 q 65 290 65 301 q 63 264 65 279 q 52 233 60 249 q 29 206 44 217 q 22 204 26 204 z "},"<":{"ha":250,"x_min":29,"x_max":225,"o":"m 222 226 q 225 221 225 224 q 222 214 225 217 q 214 211 217 211 q 206 214 211 211 l 32 347 q 29 353 29 350 q 32 360 29 357 l 206 493 q 214 496 211 496 q 222 493 217 496 q 225 486 225 488 q 222 479 225 485 l 82 374 q 71 353 71 365 q 82 333 71 342 l 222 226 z "},"=":{"ha":263,"x_min":26,"x_max":222,"o":"m 213 360 q 222 350 222 360 q 213 339 222 339 l 36 339 q 26 350 26 339 q 36 360 26 360 l 213 360 m 213 408 q 222 399 222 408 q 213 388 222 388 l 36 388 q 26 399 26 388 q 36 408 26 408 l 213 408 z "},">":{"ha":239,"x_min":29,"x_max":225,"o":"m 172 333 q 183 353 183 342 q 172 374 183 365 l 32 479 q 29 486 29 485 q 32 493 29 488 q 40 496 38 496 q 49 493 43 496 l 222 360 q 225 353 225 357 q 222 347 225 350 l 49 214 q 40 211 43 211 q 32 214 38 211 q 29 221 29 217 q 32 226 29 224 l 172 333 z "},"!":{"ha":133,"x_min":40,"x_max":97,"o":"m 40 306 q 57 322 40 322 q 72 306 72 322 q 57 288 72 288 q 40 306 40 288 m 97 992 q 94 957 97 990 q 88 869 92 924 q 81 747 85 815 q 74 609 76 679 q 70 474 71 539 q 71 361 69 408 q 58 349 71 349 q 46 360 46 349 q 45 473 44 408 q 49 606 46 538 q 56 742 51 675 q 63 864 60 810 q 69 953 67 918 q 72 993 72 989 q 85 1004 72 1007 q 97 992 97 1004 z "},"?":{"ha":482,"x_min":28,"x_max":458,"o":"m 169 306 q 186 322 169 322 q 201 306 201 322 q 186 288 201 288 q 169 306 169 288 m 31 824 q 108 903 67 868 q 193 964 150 939 q 277 1002 236 989 q 353 1015 318 1015 q 429 988 400 1015 q 458 901 458 961 q 419 747 457 842 q 296 519 382 653 q 231 417 260 464 q 200 350 203 369 q 188 339 200 339 q 178 343 182 339 q 175 351 175 349 q 205 421 178 375 q 275 533 232 467 q 393 746 356 658 q 435 888 431 833 q 415 967 439 943 q 351 992 392 992 q 282 978 321 992 q 203 941 243 965 q 123 883 163 917 q 50 807 83 849 q 40 803 46 803 q 28 814 28 803 q 31 824 28 821 z "},"\"":{"ha":197,"x_min":24,"x_max":151,"o":"m 53 711 q 44 715 49 711 q 27 754 31 732 q 26 796 24 776 q 32 828 28 815 q 36 843 36 842 q 47 857 40 854 q 58 860 53 860 q 65 859 63 860 q 69 858 67 858 q 77 848 74 856 q 78 836 81 840 q 71 824 78 836 q 58 796 64 813 q 51 760 53 779 q 61 728 50 742 q 60 714 69 719 q 53 711 54 711 m 124 711 q 115 715 119 711 q 98 754 101 732 q 97 796 94 776 q 103 828 99 815 q 107 843 107 842 q 117 857 111 854 q 129 860 124 860 q 135 859 133 860 q 140 858 138 858 q 148 848 144 856 q 149 836 151 840 q 142 824 149 836 q 129 796 135 813 q 122 760 124 779 q 132 728 121 742 q 131 714 140 719 q 124 711 125 711 z "},"#":{"ha":738,"x_min":40,"x_max":682,"o":"m 669 579 q 682 567 682 579 q 671 556 682 556 l 536 550 q 521 538 524 550 q 505 447 513 492 q 489 356 497 401 q 493 343 488 350 q 504 338 499 338 l 611 343 q 619 339 615 343 q 624 331 621 338 q 611 319 624 319 l 493 314 q 479 301 482 314 q 458 188 467 231 q 444 124 450 146 q 426 90 438 90 q 411 93 422 90 q 400 106 400 96 q 406 115 400 113 q 418 176 410 132 q 440 293 426 221 q 436 306 443 301 q 424 311 432 311 l 196 301 q 181 289 183 301 q 149 122 158 160 q 140 97 143 103 q 131 90 138 90 q 115 93 126 90 q 104 106 104 96 q 110 115 128 113 q 122 172 114 131 q 142 282 131 214 q 139 294 143 288 q 126 300 135 300 l 53 297 q 40 308 40 297 q 51 321 40 321 l 138 324 q 153 336 150 324 q 167 423 160 376 q 185 522 175 469 q 182 535 188 529 q 169 540 176 540 l 85 538 q 74 550 74 538 q 85 561 74 561 l 179 564 q 194 578 192 564 q 216 701 206 639 q 236 822 226 763 q 253 832 238 832 q 272 818 274 832 q 259 734 269 799 q 233 585 249 669 q 236 571 232 578 q 249 565 242 565 l 476 574 q 492 586 489 574 q 513 704 503 644 q 532 822 522 764 q 549 832 533 832 q 563 828 557 832 q 568 818 569 825 q 555 737 565 799 q 531 593 544 675 q 533 581 529 585 q 546 575 539 575 l 669 579 m 450 349 q 465 435 457 389 q 482 531 474 481 q 479 543 485 538 q 467 549 475 549 l 238 542 q 224 529 226 542 q 207 437 215 483 q 190 344 199 390 q 194 332 190 336 q 207 326 199 326 l 436 336 q 450 349 447 336 z "},"$":{"ha":589,"x_min":58,"x_max":628,"o":"m 625 856 q 615 840 628 843 q 518 813 571 829 q 417 781 465 797 q 404 765 407 779 l 375 503 q 382 493 375 496 q 468 464 428 479 q 537 427 508 449 q 581 374 565 406 q 592 299 596 343 q 565 217 588 256 q 507 149 542 179 q 431 97 472 118 q 350 67 390 76 q 325 40 328 63 l 318 -18 q 303 -31 318 -31 q 292 -15 289 -28 l 299 49 q 296 57 299 51 q 289 60 293 60 q 128 136 185 60 q 85 296 71 217 q 110 366 92 335 q 148 419 128 397 q 185 453 168 440 q 203 467 201 465 q 214 469 208 469 q 230 467 221 469 q 244 463 239 465 q 250 455 250 460 q 242 444 250 450 q 226 433 242 444 q 192 402 211 422 q 156 353 174 382 q 133 292 139 325 q 140 222 128 257 q 175 159 151 188 q 231 113 199 131 q 300 96 264 96 l 303 96 l 343 460 q 329 479 346 476 q 227 510 281 494 q 117 550 174 526 q 60 614 58 575 q 153 704 64 654 q 235 743 188 724 q 340 785 282 763 q 385 840 381 799 l 404 1021 q 410 1031 407 1028 q 419 1033 415 1033 q 432 1018 432 1031 l 411 835 q 418 819 411 824 q 429 815 422 815 l 435 815 q 468 826 442 818 q 525 844 494 835 q 581 860 556 853 q 611 867 606 867 q 625 856 622 867 m 125 611 q 153 582 124 599 q 222 550 183 565 q 297 522 261 535 q 344 507 333 510 q 349 514 349 510 l 374 739 q 367 756 375 749 q 356 760 363 760 q 350 758 351 760 q 220 705 265 729 q 154 663 175 681 q 129 632 133 644 q 125 611 125 619 m 335 96 q 343 94 340 93 q 417 120 379 101 q 485 166 454 139 q 538 228 517 193 q 564 301 560 263 q 525 403 571 369 q 383 464 479 436 q 381 465 381 465 q 375 463 378 465 q 371 456 371 461 l 332 104 q 335 96 332 99 z "},"":{"ha":794,"x_min":-11,"x_max":793,"o":"m 233 618 q 221 599 225 610 q 228 582 215 586 q 292 574 261 574 q 432 610 367 574 q 549 699 497 646 q 583 749 572 724 q 585 783 592 771 q 535 807 569 807 q 456 788 499 807 q 372 741 414 769 q 294 680 331 713 q 233 618 257 647 m 119 376 q 83 350 93 376 q 104 324 76 324 l 339 324 q 358 304 358 324 q 339 286 358 286 l 111 286 q 78 274 92 286 q 61 240 64 261 q 68 125 54 169 q 114 50 83 78 q 183 21 143 21 q 192 22 189 21 l 201 22 q 356 75 275 28 q 513 188 436 122 q 658 326 590 253 q 774 456 726 399 q 782 460 778 460 q 793 450 790 460 q 790 443 793 446 q 674 310 742 385 q 529 170 607 236 q 368 56 451 104 q 203 1 285 8 q 183 0 199 0 q 83 32 124 0 q 22 242 10 97 q 24 252 24 247 q 25 263 24 257 q 6 286 26 282 q -11 304 -11 289 q 7 324 -11 324 l 13 324 q 42 347 38 324 q 21 376 50 376 l 7 376 q -11 396 -11 376 q 7 414 -11 414 l 31 414 q 78 446 64 414 q 100 490 89 468 q 125 532 111 511 q 132 540 129 536 q 135 546 133 543 q 139 551 136 549 q 146 581 147 567 q 131 607 143 596 q 93 665 104 632 q 96 732 83 696 q 116 765 103 750 q 147 788 129 781 q 160 790 154 789 q 168 790 165 790 q 206 780 188 790 q 233 753 224 769 q 233 726 239 740 q 210 711 225 711 q 192 719 203 711 q 189 729 189 722 q 185 751 188 740 q 171 768 182 763 q 168 769 168 768 l 164 769 q 134 753 149 769 q 115 725 119 738 q 115 669 104 693 q 134 635 122 651 q 167 618 146 618 q 199 632 186 618 q 264 697 226 663 q 344 759 301 731 q 433 806 388 788 q 522 825 479 825 q 600 797 575 825 q 615 758 615 778 q 598 707 615 733 q 556 657 581 681 q 503 615 531 633 q 457 588 476 597 q 301 553 386 553 q 210 565 251 553 q 200 567 207 567 q 189 563 193 567 q 151 507 168 538 q 121 449 135 476 q 120 424 114 433 q 143 414 126 414 l 339 414 q 358 396 358 414 q 339 376 358 376 l 119 376 z "},"%":{"ha":633,"x_min":53,"x_max":583,"o":"m 565 960 q 530 890 554 936 q 465 768 506 843 q 360 569 417 678 q 255 360 303 461 q 176 176 207 260 q 149 53 144 93 q 151 40 150 43 q 154 35 153 36 q 185 58 165 35 q 229 117 204 81 q 281 197 254 153 q 331 281 307 240 q 374 353 356 321 q 400 400 392 386 l 404 407 q 465 549 397 511 q 494 558 481 558 q 513 553 506 558 q 525 543 521 547 q 539 510 535 531 q 543 466 543 490 q 540 415 543 442 q 532 364 538 389 q 495 244 519 299 q 442 157 471 190 q 419 135 435 150 q 388 121 404 121 q 374 125 381 121 q 358 153 361 133 q 356 197 354 172 q 364 249 358 222 q 375 297 369 275 q 234 74 286 142 q 153 6 182 6 q 128 20 135 6 q 121 50 122 35 q 147 179 117 94 q 226 367 178 264 q 333 581 275 471 q 440 782 390 690 q 490 875 467 831 q 529 950 514 919 q 408 896 479 914 q 268 878 338 878 q 247 878 257 878 q 226 879 236 878 q 215 875 221 881 q 213 863 210 869 q 229 760 226 808 q 208 660 232 688 q 158 626 185 632 q 149 624 153 625 q 139 624 144 624 q 86 649 107 624 q 60 703 68 669 q 53 778 53 738 q 62 863 54 819 q 83 944 69 907 q 82 990 74 964 q 97 1015 88 1010 q 114 1021 107 1021 q 138 1011 126 1021 q 158 988 149 1001 q 174 961 167 975 q 186 938 182 947 q 226 908 197 911 q 249 906 238 907 q 271 906 260 906 q 345 911 307 906 q 419 928 383 917 q 485 956 454 939 q 536 996 515 972 q 549 1008 542 1001 q 563 1014 556 1014 q 565 1013 564 1014 q 568 1013 567 1013 l 572 1010 q 565 960 583 1000 m 108 667 q 139 653 121 653 q 153 654 147 653 q 193 694 185 661 q 200 758 201 726 q 198 795 200 774 q 190 837 196 817 q 174 874 185 857 q 147 896 164 890 q 104 918 121 903 q 89 846 94 883 q 83 774 83 808 q 89 710 83 739 q 108 667 94 682 m 114 992 q 113 989 113 990 q 108 981 111 988 q 111 953 104 964 q 131 934 118 942 q 156 922 144 926 q 158 924 158 922 q 131 975 143 960 q 114 992 119 990 m 421 176 q 470 260 449 208 q 503 365 492 311 q 516 463 515 418 q 503 525 517 508 q 499 528 500 526 q 493 529 497 529 q 456 503 472 529 q 436 460 440 478 q 443 463 439 463 q 451 461 449 463 q 459 447 461 456 q 449 419 457 439 l 447 418 q 442 350 433 385 q 450 322 446 332 q 453 311 451 315 q 444 292 457 297 l 439 292 q 426 300 429 292 q 415 333 424 304 q 385 205 389 253 q 388 150 381 157 q 397 153 390 150 q 421 176 404 157 z "},"&":{"ha":464,"x_min":17,"x_max":456,"o":"m 254 210 q 246 204 247 207 q 246 193 244 199 q 280 125 264 156 q 307 72 296 94 q 332 25 321 46 q 326 8 338 13 q 321 6 324 6 q 310 13 314 6 q 283 61 297 35 q 256 117 272 85 q 221 189 240 150 q 203 199 213 199 q 141 190 168 193 q 94 188 114 188 q 29 210 39 188 q 44 269 17 233 q 119 354 71 304 q 133 379 129 365 q 131 407 136 393 q 56 767 51 628 q 111 918 58 857 q 257 979 164 979 q 374 944 322 979 q 444 790 453 889 q 417 690 439 740 q 360 589 394 639 q 282 490 325 539 q 193 394 239 442 q 182 340 171 372 q 202 292 192 317 q 224 244 213 268 q 242 232 229 232 q 244 233 243 232 q 246 233 244 233 q 431 325 371 263 q 439 329 435 329 q 449 326 443 329 q 449 308 456 318 q 254 210 383 242 m 133 335 q 83 245 78 272 q 142 218 88 218 q 155 218 146 218 q 174 219 164 218 q 192 222 183 221 q 201 226 200 224 l 201 233 q 181 280 193 251 q 160 329 168 308 q 149 339 158 336 q 133 335 138 339 m 419 792 q 413 859 424 829 q 381 910 401 889 q 333 943 361 932 q 275 954 306 954 q 185 925 229 954 q 115 833 140 896 q 95 668 90 769 q 151 422 100 567 q 167 411 156 411 q 179 415 174 411 q 265 508 224 461 q 338 601 306 554 q 393 697 371 649 q 419 792 415 744 z "},"(":{"ha":228,"x_min":53,"x_max":229,"o":"m 219 1006 q 222 989 229 999 q 202 958 222 989 q 158 872 182 928 q 112 733 133 815 q 84 547 90 651 q 95 316 78 442 q 168 46 113 190 q 161 31 172 36 q 159 30 160 31 q 157 29 158 29 q 144 38 150 29 q 71 314 89 185 q 59 550 53 443 q 88 741 65 657 q 137 883 111 825 q 183 972 163 942 q 203 1004 203 1003 q 213 1008 207 1008 q 219 1006 218 1008 z "},")":{"ha":196,"x_min":19,"x_max":197,"o":"m 31 1013 q 38 1014 33 1014 q 47 1010 46 1014 q 69 977 49 1008 q 114 888 89 946 q 162 745 139 829 q 191 553 185 661 q 179 316 197 446 q 106 38 161 186 q 94 29 103 29 q 92 30 93 29 q 90 31 92 31 q 83 46 78 36 q 156 318 139 192 q 167 549 174 444 q 139 737 161 654 q 92 876 117 819 q 48 964 68 933 q 28 994 28 994 q 31 1013 19 1004 z "},"{":{"ha":349,"x_min":39,"x_max":333,"o":"m 322 1007 q 328 990 333 1003 q 317 985 324 985 q 311 986 313 985 q 301 990 307 988 q 279 993 290 993 q 223 965 244 993 q 190 897 201 936 q 174 817 178 857 q 168 754 169 778 q 154 652 165 694 q 129 580 143 610 q 100 533 115 550 q 74 506 85 515 q 97 481 83 497 q 122 440 111 465 q 139 381 133 415 q 138 300 144 346 q 181 106 121 171 q 285 63 221 63 q 299 64 294 63 q 311 51 311 64 q 300 39 314 39 q 226 48 260 39 q 163 89 192 57 q 117 180 129 125 q 114 304 104 235 q 112 394 121 358 q 89 453 103 431 q 61 485 75 475 q 46 496 47 494 q 39 507 39 499 q 46 518 39 514 q 60 528 46 518 q 91 565 74 539 q 124 638 108 592 q 143 756 139 683 q 150 830 144 785 q 170 917 156 875 q 211 988 185 958 q 279 1018 238 1018 q 310 1013 297 1018 q 322 1007 322 1008 z "},"|":{"ha":172,"x_min":38,"x_max":154,"o":"m 128 1007 q 142 1019 131 1019 q 150 1017 146 1019 q 153 1008 154 1014 l 63 1 q 50 -11 63 -11 q 38 0 38 -11 l 128 1007 z "},"}":{"ha":313,"x_min":33,"x_max":322,"o":"m 63 46 q 57 63 51 51 q 68 69 61 69 q 72 69 71 69 q 74 68 72 68 q 82 65 78 67 q 103 61 90 61 q 159 90 139 61 q 190 159 179 119 q 203 240 200 199 q 206 303 206 281 q 215 404 206 361 q 237 477 224 447 q 264 525 250 507 q 289 553 278 543 q 265 575 279 560 q 238 615 250 590 q 218 673 225 639 q 215 753 211 707 q 165 944 228 882 q 110 976 138 972 q 47 981 83 981 q 33 992 36 978 q 44 1004 33 1004 q 57 1006 51 1006 q 68 1006 63 1006 q 183 961 136 1006 q 240 750 253 892 q 245 662 235 697 q 271 605 256 626 q 300 574 286 583 q 315 564 314 564 q 322 553 322 561 q 315 542 322 546 q 274 493 292 525 q 244 421 258 467 q 229 303 231 375 q 226 228 229 274 q 209 141 222 183 q 171 68 196 99 q 103 38 146 38 q 75 42 86 38 q 63 46 64 46 z "},"[":{"ha":260,"x_min":38,"x_max":251,"o":"m 239 999 q 246 983 251 996 q 235 974 243 974 q 233 974 233 974 q 231 975 232 975 q 219 978 225 976 q 194 981 208 981 q 135 960 157 981 q 106 903 114 939 q 95 846 101 886 q 83 751 89 806 q 72 632 76 697 q 64 497 67 567 q 63 374 63 439 q 69 251 63 310 q 88 144 75 192 q 121 71 100 96 q 163 50 140 49 q 172 47 167 50 q 176 38 176 43 q 174 29 176 35 q 164 25 169 25 q 101 54 126 25 q 65 132 79 82 q 45 243 51 182 q 38 370 39 304 q 39 496 38 436 q 47 633 42 567 q 58 755 51 700 q 70 851 64 810 q 81 910 76 892 q 120 980 92 954 q 194 1006 149 1006 q 225 1003 213 1006 q 239 999 238 1000 z "},"]":{"ha":249,"x_min":22,"x_max":233,"o":"m 33 32 q 26 49 22 36 q 32 56 26 53 q 42 56 38 58 q 51 54 46 54 q 78 51 65 51 q 135 72 114 51 q 165 128 157 92 q 176 184 169 144 q 188 278 182 224 q 199 397 193 332 q 206 529 204 461 q 208 651 208 588 q 201 772 207 714 q 183 878 194 831 q 150 951 171 926 q 108 972 133 972 q 99 975 104 969 q 94 983 99 975 q 98 992 94 988 q 107 997 101 997 q 169 967 143 997 q 205 891 192 940 q 224 781 218 842 q 232 656 231 721 q 231 531 233 590 q 224 395 229 461 q 213 274 218 329 q 201 179 207 219 q 190 121 194 139 q 151 52 179 78 q 78 26 124 26 q 47 29 58 26 q 33 32 35 32 z "},"":{"ha":147,"x_min":47,"x_max":104,"o":"m 76 860 q 83 857 78 860 q 85 843 92 851 q 74 810 72 829 q 82 775 76 792 q 94 747 88 758 q 101 735 101 735 q 101 723 104 731 q 93 713 97 715 q 88 712 90 713 q 82 711 86 711 q 70 714 76 711 q 60 728 64 717 q 56 742 60 729 q 49 775 51 756 q 51 817 47 794 q 68 856 54 839 q 76 860 72 860 z "},"":{"ha":153,"x_min":47,"x_max":104,"o":"m 75 711 q 68 714 74 711 q 67 728 58 718 q 76 760 78 740 q 69 796 75 779 q 57 824 64 813 q 50 836 50 836 q 51 848 47 840 q 58 858 54 856 q 63 859 61 858 q 69 860 65 860 q 81 857 75 860 q 92 843 88 854 q 96 828 92 842 q 102 796 100 815 q 101 754 104 776 q 83 715 97 732 q 75 711 79 711 z "},"":{"ha":231,"x_min":47,"x_max":182,"o":"m 76 860 q 83 857 78 860 q 85 843 92 851 q 74 810 72 829 q 82 775 76 792 q 94 747 88 758 q 101 735 101 735 q 101 723 104 731 q 93 713 97 715 q 88 712 90 713 q 82 711 86 711 q 70 714 76 711 q 60 728 64 717 q 56 742 60 729 q 49 775 51 756 q 51 817 47 794 q 68 856 54 839 q 76 860 72 860 m 154 860 q 161 857 156 860 q 163 843 171 851 q 153 810 151 829 q 160 775 154 792 q 172 747 165 758 q 179 735 179 735 q 178 723 182 731 q 171 713 175 715 q 166 712 168 713 q 160 711 164 711 q 148 714 154 711 q 138 728 142 717 q 133 742 138 729 q 127 775 129 756 q 128 817 125 794 q 146 856 132 839 q 154 860 150 860 z "},"":{"ha":228,"x_min":47,"x_max":182,"o":"m 153 711 q 146 714 151 711 q 144 728 138 718 q 155 760 157 740 q 147 796 153 779 q 135 824 142 813 q 128 836 128 836 q 128 848 125 840 q 136 858 132 856 q 141 859 139 858 q 147 860 143 860 q 159 857 153 860 q 169 843 165 854 q 174 828 169 842 q 180 796 178 815 q 178 754 182 776 q 161 715 175 732 q 153 711 157 711 m 75 711 q 68 714 74 711 q 67 728 58 718 q 76 760 78 740 q 69 796 75 779 q 57 824 64 813 q 50 836 50 836 q 51 848 47 840 q 58 858 54 856 q 63 859 61 858 q 69 860 65 860 q 81 857 75 860 q 92 843 88 854 q 96 828 92 842 q 102 796 100 815 q 101 754 104 776 q 83 715 97 732 q 75 711 79 711 z "},"":{"ha":156,"x_min":47,"x_max":104,"o":"m 75 -82 q 68 -79 74 -82 q 67 -65 58 -75 q 76 -33 78 -53 q 69 3 75 -14 q 57 31 64 19 q 50 43 50 43 q 51 55 47 47 q 58 65 54 63 q 63 66 61 65 q 69 67 65 67 q 81 64 75 67 q 92 50 88 61 q 96 35 92 49 q 102 3 100 22 q 101 -39 104 -17 q 83 -78 97 -61 q 75 -82 79 -83 z "},"":{"ha":229,"x_min":40,"x_max":175,"o":"m 146 -68 q 139 -65 144 -68 q 138 -51 131 -61 q 148 -19 150 -39 q 140 17 146 0 q 128 45 135 33 q 121 57 121 57 q 122 69 118 61 q 129 79 125 76 q 134 80 132 79 q 140 81 136 81 q 152 78 146 81 q 163 64 158 75 q 167 49 163 63 q 173 17 171 36 q 172 -25 175 -3 q 154 -64 169 -47 q 146 -68 151 -68 m 68 -68 q 61 -65 67 -68 q 60 -51 51 -61 q 69 -19 71 -39 q 63 17 68 0 q 50 45 57 33 q 43 57 43 57 q 44 69 40 61 q 51 79 47 76 q 56 80 54 79 q 63 81 58 81 q 74 78 68 81 q 85 64 81 75 q 89 49 85 63 q 95 17 93 36 q 94 -25 97 -3 q 76 -64 90 -47 q 68 -68 72 -68 z "},"":{"ha":206,"x_min":50,"x_max":161,"o":"m 50 497 q 66 558 50 533 q 106 582 82 582 q 145 558 129 582 q 161 497 161 533 q 145 438 161 463 q 106 414 129 414 q 66 438 82 414 q 50 497 50 463 z "},"_":{"ha":617,"x_min":40,"x_max":564,"o":"m 549 113 q 564 97 564 113 q 549 83 564 83 l 56 83 q 40 97 40 81 q 56 113 40 110 l 549 113 z "},"":{"ha":694,"x_min":40,"x_max":643,"o":"m 628 392 q 643 376 643 392 q 628 361 643 361 l 56 361 q 40 376 40 361 q 56 392 40 389 l 628 392 z "},"":{"ha":1389,"x_min":40,"x_max":1317,"o":"m 1301 392 q 1317 376 1317 392 q 1301 361 1317 361 l 56 361 q 40 376 40 361 q 56 392 40 389 l 1301 392 z "},"":{"ha":694,"x_min":40,"x_max":643,"o":"m 628 942 q 643 926 643 942 q 628 911 643 911 l 56 911 q 40 926 40 911 q 56 942 40 939 l 628 942 z "},"":{"ha":843,"x_min":82,"x_max":767,"o":"m 379 818 q 381 815 381 818 q 381 810 382 811 q 363 796 374 800 q 338 792 351 792 q 309 794 324 792 q 283 801 294 797 q 279 801 282 801 q 267 793 271 801 q 244 739 258 769 q 213 678 229 708 q 180 623 197 649 q 147 583 163 597 q 113 569 131 569 q 101 571 107 569 q 82 590 88 575 q 85 594 82 592 q 89 597 88 597 q 92 596 92 599 q 98 581 94 586 q 113 576 101 576 q 140 590 125 576 q 169 624 154 603 q 198 671 183 646 q 224 720 213 696 q 245 765 236 744 q 258 796 254 786 q 257 803 258 799 q 251 807 256 807 q 197 795 221 807 q 153 763 174 783 q 128 730 136 746 q 124 701 121 714 q 126 696 124 697 q 129 693 128 694 q 135 692 132 692 q 139 693 136 692 q 141 695 140 693 q 142 700 142 697 q 142 705 142 703 q 143 708 143 707 q 149 711 146 711 q 156 707 153 711 q 156 699 160 703 q 144 689 150 692 q 133 686 138 686 q 128 688 131 686 q 117 700 119 690 q 122 731 114 714 q 149 767 131 749 q 195 800 169 788 q 250 813 221 813 q 256 813 253 813 q 264 813 260 813 q 268 814 267 813 q 272 815 269 815 q 274 813 274 815 q 275 810 274 811 q 278 810 276 810 q 305 802 290 804 q 333 800 319 800 q 358 803 346 800 q 375 818 369 807 q 378 819 376 819 q 379 818 379 819 m 763 806 q 766 790 767 800 q 762 765 765 779 q 753 735 758 751 q 742 700 747 718 q 728 660 735 681 q 717 623 721 640 q 713 593 713 606 q 719 575 713 581 q 721 574 721 575 q 721 571 721 572 q 716 570 719 571 q 710 569 713 569 q 708 569 708 569 q 699 590 700 576 q 703 620 699 603 q 714 658 707 638 q 729 701 721 679 q 740 734 735 718 q 749 764 746 750 q 754 788 753 778 q 753 803 756 799 q 746 806 750 806 l 744 806 q 711 792 729 806 q 671 754 693 779 q 624 692 649 729 q 572 607 600 656 q 572 605 572 606 q 571 604 571 604 q 569 602 569 603 q 567 601 568 601 q 565 601 567 601 q 562 604 564 603 q 560 607 560 606 q 574 636 567 619 q 588 670 581 653 q 600 706 594 688 q 609 740 606 724 q 612 770 613 757 q 607 792 611 783 q 598 800 604 797 q 586 803 592 803 q 547 781 569 803 q 490 719 525 760 q 468 683 481 703 q 441 642 456 663 q 412 603 426 621 q 383 572 397 585 q 381 572 382 572 q 378 572 379 572 q 378 573 378 572 q 376 576 378 574 q 387 593 378 579 q 410 628 396 607 q 443 674 425 649 q 482 724 461 700 q 500 760 492 743 q 513 792 508 778 q 512 802 514 800 q 508 804 510 804 q 501 806 506 806 q 481 801 493 806 q 454 790 468 797 q 427 774 440 783 q 403 754 414 764 q 397 746 400 750 q 391 738 393 742 q 388 728 389 733 q 389 719 386 724 q 396 714 392 715 q 410 715 404 714 q 424 724 417 717 q 425 726 425 724 q 425 731 425 728 q 425 735 425 733 q 425 738 425 738 q 431 743 428 743 q 438 740 435 743 q 439 732 442 736 q 432 724 436 728 q 422 716 428 719 q 410 710 417 713 q 399 708 404 708 q 394 708 396 708 q 383 717 388 710 q 399 758 374 732 q 419 775 407 765 q 447 793 432 785 q 476 807 461 801 q 501 813 490 813 q 513 810 508 813 q 519 804 515 808 q 522 792 524 800 q 517 776 519 785 q 510 758 514 768 q 508 754 508 754 q 510 754 510 754 q 526 772 517 763 q 547 789 536 781 q 570 803 558 797 q 593 808 582 808 q 618 796 610 808 q 624 772 624 786 q 621 741 624 758 q 612 706 618 724 q 600 671 606 688 q 601 669 599 669 q 603 669 603 669 q 639 725 621 699 q 675 771 657 751 q 712 801 693 790 q 749 813 731 813 q 751 813 751 813 q 763 806 758 813 m 403 607 q 431 642 417 622 q 458 683 444 663 q 428 642 442 663 q 403 607 414 622 z "},"":{"ha":638,"x_min":64,"x_max":579,"o":"m 322 122 q 222 148 268 122 q 140 217 175 174 q 84 319 104 261 q 64 444 64 378 q 84 570 64 511 q 140 673 104 629 q 222 742 175 717 q 322 767 268 767 q 422 742 375 767 q 504 673 469 717 q 559 570 539 629 q 579 444 579 511 q 559 319 579 378 q 504 217 539 261 q 422 148 469 174 q 322 122 375 122 m 322 754 q 226 730 271 754 q 149 663 182 706 q 96 565 115 621 q 76 444 76 508 q 96 324 76 381 q 149 226 115 268 q 226 159 182 183 q 322 135 271 135 q 417 159 372 135 q 494 226 461 183 q 547 324 528 268 q 567 444 567 381 q 547 565 567 508 q 494 663 528 621 q 417 730 461 706 q 322 754 372 754 m 515 311 q 515 303 517 308 q 513 297 514 299 q 455 272 482 279 q 403 264 428 264 q 333 280 364 264 q 279 318 301 296 q 267 324 272 324 q 254 325 261 325 q 247 325 250 325 q 239 325 243 325 q 223 319 229 324 q 215 306 217 314 l 206 269 q 201 265 204 265 q 199 265 200 265 q 193 268 197 267 q 190 272 189 269 l 199 307 q 200 320 201 314 q 192 328 199 326 q 186 329 189 328 q 158 347 165 333 q 158 369 151 358 q 190 389 167 388 q 196 389 192 389 q 201 389 200 389 q 218 394 213 389 q 226 410 224 399 l 278 601 q 278 610 279 607 q 274 614 278 614 q 272 613 272 614 q 208 577 236 599 q 158 532 179 556 q 135 497 143 514 q 131 465 128 479 q 135 457 132 460 q 140 453 138 454 q 144 452 143 453 q 147 451 146 451 q 151 453 150 451 q 156 456 154 453 q 159 463 158 460 q 160 469 160 467 q 164 474 161 472 q 171 478 167 478 q 177 476 174 478 q 182 470 181 474 q 183 463 183 467 q 181 457 183 460 q 165 446 175 449 q 147 443 156 443 q 136 444 142 443 q 121 464 124 449 q 126 499 118 479 q 151 540 133 518 q 205 589 174 565 q 276 628 236 613 q 281 632 281 629 q 282 639 282 635 q 288 641 283 640 q 294 642 292 642 q 302 638 297 639 q 311 638 307 638 q 313 638 313 638 q 315 638 314 638 q 347 642 332 642 q 378 643 361 643 q 450 597 431 640 q 459 556 458 579 q 453 509 460 533 q 435 460 447 485 q 404 411 424 435 q 296 335 360 356 q 289 327 290 333 q 293 318 288 321 q 341 287 315 299 q 396 275 367 275 q 451 285 424 275 q 508 311 479 294 q 510 313 508 313 q 515 311 514 313 m 211 353 q 211 371 214 363 q 197 379 208 379 l 192 379 q 177 374 183 378 q 168 365 171 371 q 167 351 164 358 q 175 343 169 346 q 188 339 181 340 q 191 338 189 338 q 194 338 193 338 q 206 341 203 338 q 211 353 208 344 m 247 335 q 253 339 251 335 q 251 346 256 343 l 244 356 q 238 358 242 358 q 226 350 229 358 l 222 335 l 247 335 m 276 342 q 285 343 279 342 q 342 372 315 353 q 392 418 369 390 q 420 463 408 439 q 438 510 432 486 q 442 555 443 533 q 435 593 442 576 q 372 633 418 631 q 348 633 361 633 q 324 628 335 632 q 304 618 313 625 q 292 597 296 611 l 240 401 q 250 363 235 379 q 255 358 253 360 q 260 353 257 356 q 268 344 264 347 q 276 342 272 342 z "},"":{"ha":642,"x_min":64,"x_max":579,"o":"m 322 122 q 222 148 268 122 q 140 217 175 174 q 84 319 104 261 q 64 444 64 378 q 84 570 64 511 q 140 673 104 629 q 222 742 175 717 q 322 767 268 767 q 422 742 375 767 q 504 673 469 717 q 559 570 539 629 q 579 444 579 511 q 559 319 579 378 q 504 217 539 261 q 422 148 469 174 q 322 122 375 122 m 322 754 q 226 730 271 754 q 149 663 182 706 q 96 565 115 621 q 76 444 76 508 q 96 324 76 381 q 149 226 115 268 q 226 159 182 183 q 322 135 271 135 q 417 159 372 135 q 494 226 461 183 q 547 324 528 268 q 567 444 567 381 q 547 565 567 508 q 494 663 528 621 q 417 730 461 706 q 322 754 372 754 m 526 471 q 528 467 528 469 q 526 464 528 465 q 428 357 474 397 q 349 294 383 317 q 288 263 314 271 q 252 253 261 254 q 236 251 243 251 q 189 267 208 251 q 160 367 153 299 q 175 437 163 401 q 208 506 188 472 q 211 510 210 507 q 215 515 213 513 q 218 529 219 522 q 211 542 217 536 q 192 574 197 554 q 198 610 186 594 q 226 627 210 625 q 250 623 242 629 q 260 611 258 617 q 260 599 264 606 q 249 592 257 592 q 240 596 246 592 q 239 601 239 597 q 238 607 239 604 q 236 615 238 610 q 228 620 235 619 q 213 613 221 621 q 202 594 206 604 q 203 572 199 583 q 215 553 208 560 q 228 547 221 547 q 243 554 238 547 q 275 585 257 568 q 314 615 293 601 q 356 637 335 628 q 399 646 378 646 q 436 633 424 646 q 440 626 438 631 q 443 615 443 621 q 440 599 443 608 q 428 579 436 590 q 367 533 401 549 q 293 517 332 517 q 249 522 269 517 q 244 522 247 522 q 240 520 242 522 q 233 514 238 518 q 194 438 208 476 q 178 367 181 399 q 181 311 175 335 q 203 275 188 288 q 218 265 211 268 q 236 261 225 261 q 256 263 239 261 q 303 279 272 264 q 369 322 335 294 q 442 386 404 349 q 519 469 481 424 q 522 472 521 472 q 526 471 525 472 m 260 547 q 254 538 257 543 q 258 531 251 532 q 289 526 274 526 q 356 544 324 526 q 411 586 388 561 q 428 610 424 599 q 428 626 432 621 q 404 638 422 638 q 366 628 386 638 q 326 606 346 619 q 288 576 306 592 q 260 547 271 560 z "},"":{"ha":340,"x_min":44,"x_max":290,"o":"m 288 304 q 290 297 290 301 q 286 290 288 292 q 279 289 283 289 q 271 293 275 289 l 226 350 q 172 335 200 335 q 115 351 140 335 l 69 293 q 61 289 68 289 q 56 290 57 289 q 53 304 44 296 l 100 364 q 68 442 67 399 q 99 511 69 482 l 50 572 q 53 586 46 579 q 61 588 56 588 q 68 583 64 588 l 114 524 q 171 542 142 542 q 225 526 199 542 l 269 583 q 276 588 272 588 q 283 586 282 588 q 288 579 288 585 q 286 572 289 578 l 242 514 q 267 478 257 499 q 275 435 276 458 q 242 363 274 392 l 288 304 m 89 442 q 111 381 88 406 q 168 354 135 356 q 228 376 204 354 q 254 435 253 399 q 233 495 256 469 q 175 522 210 521 q 116 499 140 522 q 89 442 92 476 z "},"":{"ha":313,"x_min":-26,"x_max":344,"o":"m 8 211 q -15 293 -26 238 q -1 340 -12 311 q 29 394 11 368 q 68 440 47 421 q 86 453 76 447 l 93 499 q 104 510 96 510 q 114 500 117 510 l 107 458 q 111 458 108 458 q 135 450 125 458 q 140 413 150 435 q 129 404 139 404 q 124 406 125 404 q 118 422 114 411 q 121 431 119 425 q 115 433 122 436 q 88 415 103 429 q 58 381 72 401 q 33 336 43 360 q 18 289 22 313 q 33 229 10 249 q 67 218 49 218 q 133 242 97 218 q 204 298 169 265 q 269 366 239 331 q 318 425 300 401 q 328 429 322 429 q 336 426 331 429 q 338 410 344 418 q 328 397 338 408 q 302 367 318 385 q 265 326 286 349 q 218 281 243 303 q 67 194 128 201 l 58 147 q 47 136 58 136 q 38 146 35 136 l 46 196 q 8 211 25 197 z "},"":{"ha":658,"x_min":56,"x_max":601,"o":"m 597 160 q 600 151 601 156 q 596 143 600 146 q 582 132 596 143 q 542 108 568 121 q 478 84 515 94 q 396 74 442 74 q 271 97 335 74 q 201 117 232 111 q 158 85 182 93 q 107 78 135 78 q 61 94 69 78 q 65 119 56 107 q 97 138 75 131 q 153 146 119 146 q 172 145 163 146 q 190 143 181 144 q 224 245 215 181 q 238 385 232 310 l 165 385 q 154 397 154 385 q 165 410 154 410 l 239 410 q 249 515 242 446 q 275 652 256 583 q 329 772 294 721 q 421 824 364 824 q 496 799 463 824 q 543 735 529 775 q 536 719 547 725 q 526 719 532 717 q 521 726 521 722 q 483 778 510 758 q 422 799 456 799 q 364 775 389 799 q 322 715 339 751 q 294 633 306 678 q 277 545 283 589 q 268 465 271 501 q 264 410 265 429 l 489 410 q 500 397 500 410 q 489 385 500 385 l 263 385 q 249 247 257 311 q 217 139 240 182 q 248 131 232 136 q 279 121 264 126 q 340 103 311 108 q 396 99 369 99 q 472 108 438 99 q 530 129 506 118 q 567 151 554 140 q 581 161 581 161 q 589 164 586 164 q 597 160 596 164 m 85 104 q 107 101 90 101 q 141 105 125 101 q 171 121 157 108 l 153 121 q 109 116 126 121 q 85 104 92 111 z "},"":{"ha":794,"x_min":19,"x_max":801,"o":"m 743 386 q 756 374 756 386 q 743 361 756 361 l 675 361 q 667 342 671 351 q 660 324 664 333 l 743 324 q 756 311 756 324 q 743 299 756 299 l 647 299 q 583 185 619 239 q 501 90 547 131 q 398 24 456 49 q 271 0 340 0 q 253 10 260 0 q 244 29 246 19 q 247 50 242 42 q 265 58 251 58 l 271 58 q 275 57 272 57 q 321 51 296 51 q 413 75 371 51 q 490 135 456 99 q 553 215 525 171 q 600 299 581 258 l 515 299 q 503 311 503 299 q 515 324 503 324 l 613 324 l 629 361 l 515 361 q 503 374 503 361 q 515 386 503 386 l 640 386 q 697 545 672 464 q 739 708 722 626 q 740 717 739 713 q 738 732 743 732 q 731 726 735 732 q 715 706 726 719 l 699 685 q 634 597 667 640 q 569 513 601 554 q 463 377 518 444 q 340 257 407 310 q 254 217 289 217 q 236 218 247 217 q 218 222 225 219 q 186 275 189 239 q 197 357 183 313 q 235 458 210 401 q 277 550 256 504 q 322 643 299 596 q 351 703 338 672 q 371 768 364 735 q 367 804 375 792 q 319 826 350 826 q 265 815 296 826 q 202 784 233 803 q 143 744 171 765 q 99 704 115 724 q 54 628 65 663 q 51 564 40 593 q 85 543 58 546 q 118 549 99 543 q 138 574 138 556 q 133 590 135 581 q 128 606 131 599 q 125 618 125 614 q 150 639 132 639 q 170 631 161 639 q 181 613 179 624 q 148 550 181 576 q 81 524 115 524 q 32 554 46 524 q 28 619 19 585 q 71 699 38 658 q 148 772 104 739 q 241 826 192 806 q 332 847 290 847 q 371 840 353 847 q 399 813 389 832 q 403 771 407 796 q 385 704 397 736 q 358 640 372 672 q 340 601 349 621 q 319 558 331 581 q 297 510 308 535 q 274 461 285 486 q 239 376 257 425 q 221 288 221 328 q 242 242 219 254 q 256 238 249 238 q 329 276 285 238 q 420 364 374 314 q 507 465 467 414 q 565 540 547 515 q 658 665 613 603 q 749 789 703 726 q 774 818 765 808 q 788 826 781 826 q 793 825 792 826 q 800 813 801 821 q 796 797 797 801 q 790 780 793 790 q 785 756 788 769 q 778 727 782 742 q 769 696 774 713 q 732 539 751 617 q 685 386 713 461 l 743 386 z "},"":{"ha":289,"x_min":49,"x_max":244,"o":"m 235 381 q 244 371 244 381 q 235 360 244 360 l 58 360 q 49 371 49 360 q 58 381 49 381 l 235 381 z "},"":{"ha":315,"x_min":49,"x_max":260,"o":"m 249 511 q 260 501 260 511 q 249 490 260 490 l 179 490 q 165 476 165 490 l 165 406 q 154 396 165 396 q 143 406 143 396 l 143 476 q 129 490 143 490 l 60 490 q 49 501 49 490 q 60 511 49 511 l 129 511 q 143 526 143 511 l 143 596 q 154 607 143 607 q 165 596 165 607 l 165 526 q 179 511 165 511 l 249 511 m 238 381 q 247 371 247 381 q 238 360 247 360 l 61 360 q 51 371 51 360 q 61 381 51 381 l 238 381 z "},"":{"ha":258,"x_min":-19,"x_max":279,"o":"m -65 469 q -58 462 -58 469 q -65 454 -58 454 l -115 454 q -124 445 -124 454 l -124 394 q -132 388 -124 388 q -140 394 -140 388 l -140 445 q -150 454 -140 454 l -199 454 q -207 462 -207 454 q -199 469 -207 469 l -150 469 q -140 480 -140 469 l -140 529 q -132 537 -140 537 q -124 529 -124 537 l -124 480 q -115 469 -124 469 l -65 469 z "},"":{"ha":246,"x_min":26,"x_max":222,"o":"m 213 381 q 222 371 222 381 q 213 360 222 360 l 36 360 q 26 371 26 360 q 36 381 26 381 l 213 381 m 108 306 q 125 322 108 322 q 140 306 140 322 q 125 288 140 288 q 108 306 108 288 m 108 432 q 125 449 108 449 q 140 432 140 449 q 125 414 140 414 q 108 432 108 414 z "},"":{"ha":154,"x_min":10,"x_max":144,"o":"m 10 306 q 26 322 10 322 q 42 306 42 322 q 26 288 42 288 q 10 306 10 288 m 61 306 q 78 322 61 322 q 93 306 93 322 q 78 288 93 288 q 61 306 61 288 m 113 306 q 129 322 113 322 q 144 306 144 322 q 129 288 144 288 q 113 306 113 288 z "},"":{"ha":206,"x_min":56,"x_max":146,"o":"m 56 478 q 69 510 56 497 q 101 524 82 524 q 133 510 119 524 q 146 478 146 497 q 133 445 146 458 q 101 432 119 432 q 69 445 82 432 q 56 478 56 458 z "},"":{"ha":146,"x_min":25,"x_max":83,"o":"m 82 672 q 65 656 82 656 q 50 672 50 656 q 65 690 50 690 q 82 672 82 690 m 25 -14 q 28 21 25 -12 q 34 108 31 54 q 42 231 38 163 q 49 369 46 299 q 52 504 51 439 q 51 617 53 569 q 64 629 51 629 q 76 618 76 629 q 77 505 78 569 q 74 372 76 440 q 67 235 71 303 q 59 114 63 168 q 53 24 56 60 q 50 -15 50 -11 q 38 -26 50 -29 q 25 -14 25 -26 z "},"":{"ha":469,"x_min":-28,"x_max":404,"o":"m 261 672 q 244 656 261 656 q 229 672 229 656 q 244 690 229 690 q 261 672 261 690 m 400 154 q 322 74 364 110 q 238 14 281 39 q 153 -24 194 -11 q 78 -37 113 -37 q 1 -10 31 -37 q -27 76 -28 17 q 11 231 -26 136 q 135 458 49 325 q 199 561 171 514 q 231 628 228 608 q 243 639 231 639 q 253 635 249 639 q 256 626 256 629 q 226 557 253 603 q 156 444 199 511 q 38 232 75 319 q -4 90 0 144 q 15 10 -8 35 q 79 -14 39 -14 q 149 -1 110 -14 q 228 37 188 13 q 308 95 268 61 q 381 171 347 129 q 390 175 385 175 q 403 164 403 175 q 400 154 403 157 z "},"":{"ha":114,"x_min":31,"x_max":92,"o":"m 61 760 q 83 751 74 760 q 92 729 92 742 q 83 708 92 717 q 61 699 74 699 q 40 708 49 699 q 31 729 31 717 q 40 751 31 742 q 61 760 49 760 m 61 711 q 79 729 79 711 q 61 747 79 747 q 43 729 43 747 q 61 711 43 711 z "},"~":{"ha":794,"x_min":314,"x_max":481,"o":"m 474 753 q 476 738 481 746 q 451 714 467 714 q 433 722 443 714 q 412 738 422 729 q 390 755 401 747 q 367 763 379 763 q 326 732 346 763 q 319 735 322 732 q 318 750 314 740 q 368 790 343 790 q 392 782 381 790 q 413 763 403 774 q 431 744 422 753 q 447 735 440 735 q 463 749 454 735 q 469 754 465 754 q 472 753 471 754 q 474 753 472 753 z "},"":{"ha":147,"x_min":13,"x_max":139,"o":"m 132 268 q 128 257 139 261 q 125 256 126 257 q 121 256 124 256 q 111 260 115 256 l 17 338 q 17 346 13 342 l 111 424 q 121 428 115 428 q 125 427 124 428 q 129 426 126 426 q 132 415 139 422 l 68 364 q 68 319 43 342 l 132 268 z "},"":{"ha":149,"x_min":11,"x_max":139,"o":"m 81 319 q 81 364 106 342 l 18 415 q 21 426 11 422 q 24 427 22 426 q 28 428 25 428 q 38 424 36 428 l 132 346 q 132 338 139 342 l 38 260 q 28 256 36 256 q 24 256 25 256 q 21 257 22 257 q 18 268 11 261 l 81 319 z "},"":{"ha":222,"x_min":13,"x_max":211,"o":"m 132 268 q 128 257 139 261 q 125 256 126 257 q 121 256 124 256 q 111 260 115 256 l 17 338 q 17 346 13 342 l 111 424 q 121 428 115 428 q 125 427 124 428 q 129 426 126 426 q 132 415 139 422 l 68 364 q 68 319 43 342 l 132 268 m 207 265 q 203 254 211 258 q 200 253 201 254 q 196 253 199 253 q 186 256 189 253 l 92 335 q 92 343 88 339 l 186 421 q 196 424 189 424 l 203 424 q 207 413 211 419 l 143 361 q 143 317 118 339 l 207 265 z "},"":{"ha":225,"x_min":11,"x_max":211,"o":"m 156 319 q 156 364 181 342 l 93 415 q 96 426 86 422 q 99 427 97 426 q 103 428 100 428 q 113 424 111 428 l 207 346 q 207 338 211 342 l 113 260 q 103 256 111 256 q 99 256 100 256 q 96 257 97 257 q 93 268 86 261 l 156 319 m 81 317 q 81 361 106 339 l 18 413 q 21 424 11 419 l 28 424 q 38 421 36 424 l 132 343 q 132 335 139 339 l 38 256 q 28 253 35 253 q 24 253 25 253 q 21 254 22 254 q 18 265 11 258 l 81 317 z "},"":{"ha":204,"x_min":29,"x_max":174,"o":"m 168 753 q 171 738 174 747 q 162 724 168 731 q 146 717 156 717 q 122 728 135 717 q 97 754 110 739 l 89 763 q 75 768 82 769 q 54 751 64 765 q 44 738 49 746 q 39 733 43 733 q 33 735 38 732 q 32 750 29 740 q 51 775 39 761 q 78 789 63 789 q 99 779 89 789 l 107 771 q 129 747 118 758 q 149 738 140 735 q 157 749 154 740 q 164 754 160 754 q 166 753 165 754 q 168 753 167 753 z "},"":{"ha":119,"x_min":21,"x_max":100,"o":"m 94 765 q 100 758 100 765 q 88 731 100 742 q 61 719 76 719 q 33 731 44 719 q 21 758 21 742 q 26 765 21 765 q 33 758 33 765 q 42 740 33 747 q 61 732 50 732 q 80 740 72 732 q 88 758 88 747 q 94 765 88 765 z "},"":{"ha":64,"x_min":21,"x_max":46,"o":"m 21 707 q 33 719 21 719 q 46 707 46 719 q 33 694 46 694 q 21 707 21 694 z "},"":{"ha":114,"x_min":25,"x_max":88,"o":"m 57 756 q 78 747 69 756 q 88 725 88 738 q 78 702 88 711 q 57 693 69 693 q 34 702 43 693 q 25 725 25 711 q 34 747 25 738 q 57 756 43 756 m 57 707 q 75 725 75 707 q 57 742 75 742 q 39 725 39 742 q 57 707 39 707 z "},"":{"ha":165,"x_min":7,"x_max":140,"o":"m -4 669 q -9 672 -8 671 q -6 682 -14 677 q 6 702 3 690 q 9 727 9 715 q 6 749 8 740 q 3 759 3 759 q 8 767 3 762 q 14 773 12 773 q 25 771 17 773 q 34 756 33 769 q 34 745 34 754 q 31 721 34 735 q 22 694 29 708 q 2 670 16 680 q -4 669 0 669 m 40 669 q 36 672 37 671 q 38 682 31 677 q 51 702 48 690 q 53 727 54 715 q 50 749 53 740 q 48 759 48 759 q 52 767 48 762 q 59 773 56 773 q 69 771 61 773 q 78 756 77 769 q 78 745 78 754 q 76 721 78 735 q 67 694 73 708 q 47 670 60 680 q 40 669 44 669 z "},"":{"ha":139,"x_min":26,"x_max":111,"o":"m 111 51 q 111 44 111 51 q 92 21 104 33 q 64 8 79 8 q 39 20 49 8 q 28 47 29 32 q 39 90 26 71 q 54 113 51 110 q 60 115 56 115 q 64 114 63 115 q 65 103 71 108 q 53 85 58 94 q 45 67 49 76 q 42 49 42 58 q 49 32 43 39 q 67 25 56 25 q 89 40 78 26 q 99 53 94 46 q 103 57 99 57 q 111 51 111 57 z "},"":{"ha":114,"x_min":18,"x_max":96,"o":"m 93 754 q 90 746 96 749 l 58 721 q 56 719 56 719 q 51 721 53 719 l 21 746 q 18 750 18 749 l 18 754 q 22 758 18 754 q 28 757 26 758 l 56 733 l 83 757 q 89 758 85 758 q 93 754 93 754 z "},"":{"ha":222,"x_min":-22,"x_max":242,"o":"m -6 282 q -22 330 -22 301 q -13 384 -21 358 q 3 429 -6 410 q 13 450 13 449 q 31 456 17 456 q 39 454 36 456 q 43 439 49 450 q 30 410 38 429 q 17 371 22 392 q 12 330 11 350 q 22 297 13 310 q 51 286 32 286 q 96 302 72 288 q 142 337 119 317 q 185 380 165 357 q 215 421 204 403 q 224 426 217 426 q 231 425 228 426 q 235 408 242 417 q 200 365 222 389 q 151 319 178 340 q 97 282 125 297 q 44 264 68 267 q 17 267 29 264 q -6 282 6 271 z "},"`":{"ha":93,"x_min":26,"x_max":65,"o":"m 12 309 q 17 305 16 307 q 15 296 22 300 q 2 275 5 288 q 0 250 -1 263 q 3 228 0 238 q 5 219 5 219 q 1 211 5 216 q -6 205 -4 205 q -16 207 -8 205 q -26 222 -24 209 q -26 233 -26 223 q -23 256 -26 243 q -14 284 -21 270 q 6 308 -7 298 q 12 309 9 309 z "},"":{"ha":114,"x_min":18,"x_max":96,"o":"m 93 724 q 89 719 93 724 q 83 721 85 719 l 56 744 l 28 721 q 22 719 26 719 q 18 724 18 724 l 18 728 q 21 732 18 729 l 51 757 q 56 758 53 758 q 58 757 57 758 l 90 732 q 93 724 96 729 z "},"":{"ha":89,"x_min":19,"x_max":76,"o":"m 19 707 q 32 719 19 719 q 44 707 44 719 q 32 694 44 694 q 19 707 19 694 m 51 707 q 64 719 51 719 q 76 707 76 719 q 64 694 76 694 q 51 707 51 694 z "},"":{"ha":86,"x_min":-1,"x_max":69,"o":"m -30 669 q -35 672 -34 671 q -33 682 -40 677 q -20 702 -23 690 q -18 727 -17 715 q -21 749 -18 740 q -23 759 -23 759 q -19 767 -23 762 q -12 773 -15 773 q -2 771 -10 773 q 8 756 6 769 q 8 745 8 754 q 5 721 8 735 q -4 694 3 708 q -24 670 -11 680 q -30 669 -27 669 z "},"":{"ha":144,"x_min":31,"x_max":110,"o":"m 71 -12 q 98 -20 86 -12 q 110 -46 110 -28 q 99 -77 110 -67 q 75 -90 88 -87 q 65 -92 71 -92 q 33 -72 40 -92 q 36 -64 31 -67 q 44 -67 42 -61 q 65 -79 51 -79 q 72 -78 69 -79 q 89 -68 81 -75 q 97 -47 97 -61 q 69 -25 96 -25 q 63 -26 64 -25 q 60 -26 61 -26 q 54 -24 57 -26 q 53 -17 50 -19 l 72 17 q 78 19 72 19 q 81 18 79 19 q 83 14 83 18 q 83 10 83 14 l 71 -12 z "},"":{"ha":990,"x_min":49,"x_max":1022,"o":"m 756 -4 q 735 60 738 18 q 742 157 733 103 q 769 275 751 211 q 806 406 786 339 q 811 432 811 421 q 796 442 811 443 q 670 433 729 439 q 558 417 611 426 q 508 381 526 410 q 383 183 443 274 q 269 49 324 92 q 149 0 208 0 q 89 17 115 0 q 56 68 63 33 q 64 149 49 107 q 115 231 79 190 q 242 329 160 282 q 444 411 324 376 q 553 493 514 431 q 580 535 561 506 q 625 603 599 565 q 683 681 651 640 q 749 756 715 722 q 814 810 782 789 q 872 832 846 832 q 910 817 894 832 q 927 773 925 803 q 923 702 929 743 q 903 611 917 661 q 874 504 890 561 q 877 477 868 489 q 901 465 886 465 q 961 465 932 465 q 1010 463 990 464 q 1019 453 1022 463 q 1015 444 1019 447 q 1008 442 1011 440 q 979 444 996 443 q 944 444 963 444 q 883 436 913 444 q 843 397 853 428 q 816 301 831 360 q 791 183 801 242 q 778 75 781 124 q 790 10 776 26 q 790 -4 796 1 q 774 -10 783 -10 q 762 -8 767 -10 q 756 -4 757 -6 m 490 389 q 490 398 493 394 q 483 400 488 401 q 274 319 353 368 q 147 218 194 271 q 94 75 83 146 q 116 36 100 47 q 153 25 132 25 q 209 38 181 25 q 257 65 238 50 q 311 119 283 86 q 368 195 339 153 q 428 288 397 238 q 490 389 458 338 m 858 806 q 790 765 825 796 q 718 692 754 735 q 646 596 682 649 q 574 486 610 543 q 572 458 564 471 q 594 444 579 444 l 600 444 q 690 456 644 451 q 786 464 736 461 q 821 481 810 465 q 839 519 832 496 q 866 614 854 568 q 884 698 878 660 q 890 763 890 736 q 878 801 889 790 q 864 806 872 806 l 858 806 m 840 524 q 845 521 844 522 q 843 511 850 516 q 830 491 833 504 q 827 466 827 478 q 830 444 828 453 q 833 434 833 434 q 829 426 833 431 q 822 420 824 420 q 811 422 819 420 q 802 437 803 424 q 802 448 802 439 q 805 472 802 458 q 814 499 807 485 q 834 523 821 513 q 840 524 836 524 z "},"":{"ha":990,"x_min":49,"x_max":1022,"o":"m 756 -4 q 735 60 738 18 q 742 157 733 103 q 769 275 751 211 q 806 406 786 339 q 811 432 811 421 q 796 442 811 443 q 670 433 729 439 q 558 417 611 426 q 508 381 526 410 q 383 183 443 274 q 269 49 324 92 q 149 0 208 0 q 89 17 115 0 q 56 68 63 33 q 64 149 49 107 q 115 231 79 190 q 242 329 160 282 q 444 411 324 376 q 553 493 514 431 q 580 535 561 506 q 625 603 599 565 q 683 681 651 640 q 749 756 715 722 q 814 810 782 789 q 872 832 846 832 q 910 817 894 832 q 927 773 925 803 q 923 702 929 743 q 903 611 917 661 q 874 504 890 561 q 877 477 868 489 q 901 465 886 465 q 961 465 932 465 q 1010 463 990 464 q 1019 453 1022 463 q 1015 444 1019 447 q 1008 442 1011 440 q 979 444 996 443 q 944 444 963 444 q 883 436 913 444 q 843 397 853 428 q 816 301 831 360 q 791 183 801 242 q 778 75 781 124 q 790 10 776 26 q 790 -4 796 1 q 774 -10 783 -10 q 762 -8 767 -10 q 756 -4 757 -6 m 490 389 q 490 398 493 394 q 483 400 488 401 q 274 319 353 368 q 147 218 194 271 q 94 75 83 146 q 116 36 100 47 q 153 25 132 25 q 209 38 181 25 q 257 65 238 50 q 311 119 283 86 q 368 195 339 153 q 428 288 397 238 q 490 389 458 338 m 858 806 q 790 765 825 796 q 718 692 754 735 q 646 596 682 649 q 574 486 610 543 q 572 458 564 471 q 594 444 579 444 l 600 444 q 690 456 644 451 q 786 464 736 461 q 821 481 810 465 q 839 519 832 496 q 866 614 854 568 q 884 698 878 660 q 890 763 890 736 q 878 801 889 790 q 864 806 872 806 l 858 806 m 833 884 q 829 888 830 886 q 831 897 824 893 q 844 918 841 905 q 846 943 847 931 q 843 965 846 955 q 841 975 841 975 q 845 983 841 977 q 852 988 849 988 q 862 986 854 988 q 871 971 870 984 q 871 960 871 970 q 869 937 871 950 q 860 909 866 923 q 840 885 853 895 q 833 884 837 884 z "},"":{"ha":990,"x_min":49,"x_max":1022,"o":"m 756 -4 q 735 60 738 18 q 742 157 733 103 q 769 275 751 211 q 806 406 786 339 q 811 432 811 421 q 796 442 811 443 q 670 433 729 439 q 558 417 611 426 q 508 381 526 410 q 383 183 443 274 q 269 49 324 92 q 149 0 208 0 q 89 17 115 0 q 56 68 63 33 q 64 149 49 107 q 115 231 79 190 q 242 329 160 282 q 444 411 324 376 q 553 493 514 431 q 580 535 561 506 q 625 603 599 565 q 683 681 651 640 q 749 756 715 722 q 814 810 782 789 q 872 832 846 832 q 910 817 894 832 q 927 773 925 803 q 923 702 929 743 q 903 611 917 661 q 874 504 890 561 q 877 477 868 489 q 901 465 886 465 q 961 465 932 465 q 1010 463 990 464 q 1019 453 1022 463 q 1015 444 1019 447 q 1008 442 1011 440 q 979 444 996 443 q 944 444 963 444 q 883 436 913 444 q 843 397 853 428 q 816 301 831 360 q 791 183 801 242 q 778 75 781 124 q 790 10 776 26 q 790 -4 796 1 q 774 -10 783 -10 q 762 -8 767 -10 q 756 -4 757 -6 m 490 389 q 490 398 493 394 q 483 400 488 401 q 274 319 353 368 q 147 218 194 271 q 94 75 83 146 q 116 36 100 47 q 153 25 132 25 q 209 38 181 25 q 257 65 238 50 q 311 119 283 86 q 368 195 339 153 q 428 288 397 238 q 490 389 458 338 m 858 806 q 790 765 825 796 q 718 692 754 735 q 646 596 682 649 q 574 486 610 543 q 572 458 564 471 q 594 444 579 444 l 600 444 q 690 456 644 451 q 786 464 736 461 q 821 481 810 465 q 839 519 832 496 q 866 614 854 568 q 884 698 878 660 q 890 763 890 736 q 878 801 889 790 q 864 806 872 806 l 858 806 m 908 856 q 904 851 908 856 q 899 853 900 851 l 871 876 l 843 853 q 838 851 842 851 q 833 856 833 856 l 833 860 q 836 864 833 861 l 867 889 q 871 890 868 890 q 874 889 872 890 l 906 864 q 908 856 911 861 z "},"":{"ha":990,"x_min":49,"x_max":1022,"o":"m 756 -4 q 735 60 738 18 q 742 157 733 103 q 769 275 751 211 q 806 406 786 339 q 811 432 811 421 q 796 442 811 443 q 670 433 729 439 q 558 417 611 426 q 508 381 526 410 q 383 183 443 274 q 269 49 324 92 q 149 0 208 0 q 89 17 115 0 q 56 68 63 33 q 64 149 49 107 q 115 231 79 190 q 242 329 160 282 q 444 411 324 376 q 553 493 514 431 q 580 535 561 506 q 625 603 599 565 q 683 681 651 640 q 749 756 715 722 q 814 810 782 789 q 872 832 846 832 q 910 817 894 832 q 927 773 925 803 q 923 702 929 743 q 903 611 917 661 q 874 504 890 561 q 877 477 868 489 q 901 465 886 465 q 961 465 932 465 q 1010 463 990 464 q 1019 453 1022 463 q 1015 444 1019 447 q 1008 442 1011 440 q 979 444 996 443 q 944 444 963 444 q 883 436 913 444 q 843 397 853 428 q 816 301 831 360 q 791 183 801 242 q 778 75 781 124 q 790 10 776 26 q 790 -4 796 1 q 774 -10 783 -10 q 762 -8 767 -10 q 756 -4 757 -6 m 490 389 q 490 398 493 394 q 483 400 488 401 q 274 319 353 368 q 147 218 194 271 q 94 75 83 146 q 116 36 100 47 q 153 25 132 25 q 209 38 181 25 q 257 65 238 50 q 311 119 283 86 q 368 195 339 153 q 428 288 397 238 q 490 389 458 338 m 858 806 q 790 765 825 796 q 718 692 754 735 q 646 596 682 649 q 574 486 610 543 q 572 458 564 471 q 594 444 579 444 l 600 444 q 690 456 644 451 q 786 464 736 461 q 821 481 810 465 q 839 519 832 496 q 866 614 854 568 q 884 698 878 660 q 890 763 890 736 q 878 801 889 790 q 864 806 872 806 l 858 806 m 935 885 q 938 869 940 879 q 928 856 935 863 q 913 849 922 849 q 889 860 901 849 q 864 886 876 871 l 856 894 q 842 900 849 901 q 821 883 831 897 q 811 869 815 878 q 806 865 810 865 q 800 867 804 864 q 799 882 796 872 q 817 907 806 893 q 844 921 829 921 q 865 911 856 921 l 874 903 q 896 878 885 890 q 915 869 907 867 q 924 881 921 872 q 931 886 926 886 q 933 885 932 886 q 935 885 933 885 z "},"":{"ha":990,"x_min":49,"x_max":1022,"o":"m 756 -4 q 735 60 738 18 q 742 157 733 103 q 769 275 751 211 q 806 406 786 339 q 811 432 811 421 q 796 442 811 443 q 670 433 729 439 q 558 417 611 426 q 508 381 526 410 q 383 183 443 274 q 269 49 324 92 q 149 0 208 0 q 89 17 115 0 q 56 68 63 33 q 64 149 49 107 q 115 231 79 190 q 242 329 160 282 q 444 411 324 376 q 553 493 514 431 q 580 535 561 506 q 625 603 599 565 q 683 681 651 640 q 749 756 715 722 q 814 810 782 789 q 872 832 846 832 q 910 817 894 832 q 927 773 925 803 q 923 702 929 743 q 903 611 917 661 q 874 504 890 561 q 877 477 868 489 q 901 465 886 465 q 961 465 932 465 q 1010 463 990 464 q 1019 453 1022 463 q 1015 444 1019 447 q 1008 442 1011 440 q 979 444 996 443 q 944 444 963 444 q 883 436 913 444 q 843 397 853 428 q 816 301 831 360 q 791 183 801 242 q 778 75 781 124 q 790 10 776 26 q 790 -4 796 1 q 774 -10 783 -10 q 762 -8 767 -10 q 756 -4 757 -6 m 490 389 q 490 398 493 394 q 483 400 488 401 q 274 319 353 368 q 147 218 194 271 q 94 75 83 146 q 116 36 100 47 q 153 25 132 25 q 209 38 181 25 q 257 65 238 50 q 311 119 283 86 q 368 195 339 153 q 428 288 397 238 q 490 389 458 338 m 858 806 q 790 765 825 796 q 718 692 754 735 q 646 596 682 649 q 574 486 610 543 q 572 458 564 471 q 594 444 579 444 l 600 444 q 690 456 644 451 q 786 464 736 461 q 821 481 810 465 q 839 519 832 496 q 866 614 854 568 q 884 698 878 660 q 890 763 890 736 q 878 801 889 790 q 864 806 872 806 l 858 806 m 843 864 q 856 876 843 876 q 868 864 868 876 q 856 851 868 851 q 843 864 843 851 m 875 864 q 888 876 875 876 q 900 864 900 876 q 888 851 900 851 q 875 864 875 851 z "},"":{"ha":990,"x_min":49,"x_max":1022,"o":"m 756 -4 q 735 60 738 18 q 742 157 733 103 q 769 275 751 211 q 806 406 786 339 q 811 432 811 421 q 796 442 811 443 q 670 433 729 439 q 558 417 611 426 q 508 381 526 410 q 383 183 443 274 q 269 49 324 92 q 149 0 208 0 q 89 17 115 0 q 56 68 63 33 q 64 149 49 107 q 115 231 79 190 q 242 329 160 282 q 444 411 324 376 q 553 493 514 431 q 580 535 561 506 q 625 603 599 565 q 683 681 651 640 q 749 756 715 722 q 814 810 782 789 q 872 832 846 832 q 910 817 894 832 q 927 773 925 803 q 923 702 929 743 q 903 611 917 661 q 874 504 890 561 q 877 477 868 489 q 901 465 886 465 q 961 465 932 465 q 1010 463 990 464 q 1019 453 1022 463 q 1015 444 1019 447 q 1008 442 1011 440 q 979 444 996 443 q 944 444 963 444 q 883 436 913 444 q 843 397 853 428 q 816 301 831 360 q 791 183 801 242 q 778 75 781 124 q 790 10 776 26 q 790 -4 796 1 q 774 -10 783 -10 q 762 -8 767 -10 q 756 -4 757 -6 m 490 389 q 490 398 493 394 q 483 400 488 401 q 274 319 353 368 q 147 218 194 271 q 94 75 83 146 q 116 36 100 47 q 153 25 132 25 q 209 38 181 25 q 257 65 238 50 q 311 119 283 86 q 368 195 339 153 q 428 288 397 238 q 490 389 458 338 m 858 806 q 790 765 825 796 q 718 692 754 735 q 646 596 682 649 q 574 486 610 543 q 572 458 564 471 q 594 444 579 444 l 600 444 q 690 456 644 451 q 786 464 736 461 q 821 481 810 465 q 839 519 832 496 q 866 614 854 568 q 884 698 878 660 q 890 763 890 736 q 878 801 889 790 q 864 806 872 806 l 858 806 m 878 888 q 899 878 890 888 q 908 857 908 869 q 899 834 908 843 q 878 825 890 825 q 855 834 864 825 q 846 857 846 843 q 855 878 846 869 q 878 888 864 888 m 878 839 q 896 857 896 839 q 878 874 896 874 q 860 857 860 874 q 878 839 860 839 z "},"":{"ha":1572,"x_min":49,"x_max":1594,"o":"m 756 -4 q 735 60 738 18 q 742 157 733 103 q 769 275 751 211 q 806 406 786 339 q 811 432 811 421 q 796 442 811 443 q 670 433 729 439 q 558 417 611 426 q 508 381 526 410 q 383 183 443 274 q 269 49 324 92 q 149 0 208 0 q 89 17 115 0 q 56 68 63 33 q 64 149 49 107 q 115 231 79 190 q 242 329 160 282 q 444 411 324 376 q 553 493 514 431 q 580 535 561 506 q 625 603 599 565 q 683 681 651 640 q 749 756 715 722 q 814 810 782 789 q 872 832 846 832 q 910 817 894 832 q 927 773 925 803 q 923 702 929 743 q 903 611 917 661 q 874 504 890 561 q 877 477 868 489 q 901 465 886 465 q 961 465 932 465 q 1010 463 990 464 q 1019 453 1022 463 q 1015 444 1019 447 q 1008 442 1011 440 q 979 444 996 443 q 944 444 963 444 q 883 436 913 444 q 843 397 853 428 q 816 301 831 360 q 791 183 801 242 q 778 75 781 124 q 790 10 776 26 q 790 -4 796 1 q 774 -10 783 -10 q 762 -8 767 -10 q 756 -4 757 -6 m 490 389 q 490 398 493 394 q 483 400 488 401 q 274 319 353 368 q 147 218 194 271 q 94 75 83 146 q 116 36 100 47 q 153 25 132 25 q 209 38 181 25 q 257 65 238 50 q 311 119 283 86 q 368 195 339 153 q 428 288 397 238 q 490 389 458 338 m 858 806 q 790 765 825 796 q 718 692 754 735 q 646 596 682 649 q 574 486 610 543 q 572 458 564 471 q 594 444 579 444 l 600 444 q 690 456 644 451 q 786 464 736 461 q 821 481 810 465 q 839 519 832 496 q 866 614 854 568 q 884 698 878 660 q 890 763 890 736 q 878 801 889 790 q 864 806 872 806 l 858 806 m 1588 458 q 1590 444 1594 454 q 1492 303 1550 381 q 1361 158 1433 225 q 1207 45 1289 90 q 1039 0 1125 0 q 964 13 1000 0 q 901 51 928 26 q 858 108 874 75 q 842 183 842 142 q 859 274 842 228 q 906 365 876 321 q 976 449 936 410 q 1061 515 1017 488 q 1072 533 1071 522 q 1064 551 1072 544 q 1045 572 1053 560 q 1030 596 1038 585 q 1013 617 1022 607 q 989 629 1003 626 q 951 640 971 632 q 917 661 932 649 q 895 692 903 674 q 892 731 888 710 q 915 769 897 757 q 956 782 933 782 q 987 775 971 782 q 1013 754 1003 768 q 1015 725 1022 742 q 993 708 1008 708 q 976 715 986 708 q 969 724 974 717 q 958 739 964 731 q 946 753 953 747 q 932 760 939 760 q 913 728 918 760 q 942 668 907 693 q 965 656 953 661 q 990 651 978 651 q 1011 657 1001 651 q 1025 678 1021 663 q 1051 731 1032 704 q 1094 778 1069 757 q 1149 813 1119 800 q 1208 826 1179 826 q 1247 819 1232 826 q 1282 790 1275 807 q 1283 754 1289 772 q 1260 719 1276 736 q 1228 689 1244 701 q 1144 646 1185 661 q 1068 626 1104 631 q 1050 613 1051 625 q 1058 588 1049 601 q 1084 563 1067 574 q 1124 551 1101 551 q 1144 554 1131 551 q 1150 556 1146 556 q 1160 540 1161 556 q 1151 521 1158 524 q 1047 468 1096 504 q 960 385 997 432 q 901 286 924 339 q 879 183 879 233 q 894 117 879 147 q 933 66 908 88 q 990 33 958 44 q 1057 21 1022 21 q 1156 40 1100 21 q 1277 110 1211 60 q 1417 244 1343 160 q 1572 457 1492 328 q 1582 461 1576 461 q 1588 458 1585 461 m 1064 678 q 1060 658 1061 667 q 1068 649 1060 649 q 1103 655 1083 649 q 1144 670 1124 661 q 1184 689 1165 679 q 1215 707 1203 699 q 1264 772 1267 739 q 1248 796 1263 790 q 1218 801 1233 801 q 1169 790 1193 801 q 1124 762 1144 779 q 1087 722 1103 744 q 1064 678 1071 700 z "},"":{"ha":781,"x_min":10,"x_max":793,"o":"m 789 457 q 792 450 792 454 q 790 443 793 446 q 581 220 678 306 q 408 87 485 135 q 274 21 331 39 q 183 0 217 3 q 83 32 124 0 q 22 242 10 97 q 60 403 29 325 q 138 551 92 482 q 145 581 147 565 q 131 607 143 596 q 93 665 103 632 q 96 732 83 697 q 123 773 104 756 q 168 790 142 790 q 211 776 194 790 q 233 753 228 763 q 233 726 240 740 q 211 711 225 711 q 192 719 203 711 q 186 744 186 726 q 171 768 186 761 q 137 756 151 768 q 115 725 122 743 q 115 669 106 693 q 139 629 125 644 q 168 617 151 617 q 199 632 186 617 q 264 697 226 663 q 344 759 301 731 q 433 806 386 788 q 522 825 479 825 q 600 797 575 825 q 610 782 604 792 q 615 758 615 772 q 608 726 615 744 q 582 685 601 708 q 456 588 529 622 q 301 553 383 553 q 210 565 254 553 q 201 567 207 567 q 189 562 193 567 q 178 547 185 557 q 97 389 125 469 q 61 240 68 308 q 68 125 54 174 q 114 50 82 76 q 146 28 131 35 q 185 21 161 21 q 345 69 260 21 q 511 185 431 117 q 661 328 592 253 q 774 456 731 403 q 782 460 776 460 q 789 457 786 460 m 233 618 q 220 598 225 610 q 228 582 215 586 q 293 574 264 574 q 433 610 368 574 q 549 699 499 647 q 585 783 601 754 q 535 807 571 807 q 453 788 497 807 q 369 740 410 768 q 292 678 328 711 q 233 618 257 646 m 164 -12 q 191 -20 179 -12 q 203 -46 203 -28 q 192 -77 203 -67 q 168 -90 181 -87 q 158 -92 164 -92 q 126 -72 133 -92 q 129 -64 124 -67 q 138 -67 135 -61 q 158 -79 144 -79 q 165 -78 163 -79 q 182 -68 174 -75 q 190 -47 190 -61 q 163 -25 189 -25 q 156 -26 157 -25 q 153 -26 154 -26 q 147 -24 150 -26 q 146 -17 143 -19 l 165 17 q 171 19 165 19 q 174 18 172 19 q 176 14 176 18 q 176 10 176 14 l 164 -12 z "},"":{"ha":939,"x_min":-42,"x_max":968,"o":"m 954 461 q 965 451 965 461 q 954 440 968 440 l 914 440 l 871 440 q 806 397 826 438 q 706 253 768 325 q 566 126 643 182 q 403 34 489 69 q 236 -1 318 -1 q 114 38 146 -1 q 91 131 82 76 q 142 242 100 185 q 240 333 183 299 q 294 393 278 356 q 322 456 303 413 q 362 544 340 499 q 403 626 383 589 q 431 674 422 664 q 442 682 433 676 q 461 688 450 688 q 469 685 464 688 q 474 671 479 679 q 458 647 474 669 q 419 589 442 625 q 372 507 397 553 q 326 414 347 461 q 327 391 319 401 q 346 381 335 381 q 354 382 351 381 q 544 430 446 414 q 739 453 643 446 q 790 480 774 456 q 810 539 807 504 q 809 597 813 572 q 799 640 806 622 q 695 767 767 726 q 536 808 624 808 q 342 763 450 808 q 139 614 235 718 q 69 522 94 565 q 50 444 43 478 q 59 427 53 433 q 71 418 65 421 q 81 415 78 415 q 92 415 85 415 q 108 438 108 421 q 114 463 107 456 q 132 471 122 471 q 156 455 147 471 q 154 428 164 439 q 119 401 138 408 q 85 394 100 394 q 49 407 65 394 q 31 440 33 419 q 44 528 22 479 q 114 629 65 576 q 197 703 150 667 q 299 767 244 739 q 413 812 354 794 q 532 829 472 829 q 625 818 578 829 q 713 785 672 807 q 786 728 754 763 q 835 647 818 693 q 844 510 858 582 q 853 475 840 490 q 886 461 867 460 l 954 461 m 760 390 q 769 420 769 406 q 750 433 768 435 q 545 407 650 425 q 349 357 440 389 q 307 331 324 349 q 281 292 290 314 q 266 247 271 271 q 258 199 261 222 q 250 188 257 192 q 238 185 243 185 q 229 197 226 185 q 240 236 232 214 q 254 281 247 258 q 251 297 257 290 q 239 303 246 303 q 229 300 232 303 q 137 203 163 253 q 118 112 111 153 q 163 45 125 71 q 258 19 200 19 q 401 55 326 19 q 545 145 476 90 q 671 265 614 200 q 760 390 728 331 m 144 450 q 154 440 154 450 q 144 429 154 429 l -32 429 q -42 440 -42 429 q -32 450 -42 450 l 144 450 z "},"":{"ha":939,"x_min":-42,"x_max":968,"o":"m 954 461 q 965 451 965 461 q 954 440 968 440 l 914 440 l 871 440 q 806 397 826 438 q 706 253 768 325 q 566 126 643 182 q 403 34 489 69 q 236 -1 318 -1 q 114 38 146 -1 q 91 131 82 76 q 142 242 100 185 q 240 333 183 299 q 294 393 278 356 q 322 456 303 413 q 362 544 340 499 q 403 626 383 589 q 431 674 422 664 q 442 682 433 676 q 461 688 450 688 q 469 685 464 688 q 474 671 479 679 q 458 647 474 669 q 419 589 442 625 q 372 507 397 553 q 326 414 347 461 q 327 391 319 401 q 346 381 335 381 q 354 382 351 381 q 544 430 446 414 q 739 453 643 446 q 790 480 774 456 q 810 539 807 504 q 809 597 813 572 q 799 640 806 622 q 695 767 767 726 q 536 808 624 808 q 342 763 450 808 q 139 614 235 718 q 69 522 94 565 q 50 444 43 478 q 59 427 53 433 q 71 418 65 421 q 81 415 78 415 q 92 415 85 415 q 108 438 108 421 q 114 463 107 456 q 132 471 122 471 q 156 455 147 471 q 154 428 164 439 q 119 401 138 408 q 85 394 100 394 q 49 407 65 394 q 31 440 33 419 q 44 528 22 479 q 114 629 65 576 q 197 703 150 667 q 299 767 244 739 q 413 812 354 794 q 532 829 472 829 q 625 818 578 829 q 713 785 672 807 q 786 728 754 763 q 835 647 818 693 q 844 510 858 582 q 853 475 840 490 q 886 461 867 460 l 954 461 m 760 390 q 769 420 769 406 q 750 433 768 435 q 545 407 650 425 q 349 357 440 389 q 307 331 324 349 q 281 292 290 314 q 266 247 271 271 q 258 199 261 222 q 250 188 257 192 q 238 185 243 185 q 229 197 226 185 q 240 236 232 214 q 254 281 247 258 q 251 297 257 290 q 239 303 246 303 q 229 300 232 303 q 137 203 163 253 q 118 112 111 153 q 163 45 125 71 q 258 19 200 19 q 401 55 326 19 q 545 145 476 90 q 671 265 614 200 q 760 390 728 331 m 144 450 q 154 440 154 450 q 144 429 154 429 l -32 429 q -42 440 -42 429 q -32 450 -42 450 l 144 450 z "},"":{"ha":740,"x_min":14,"x_max":767,"o":"m 760 458 q 763 444 767 454 q 664 303 722 381 q 533 158 606 225 q 379 45 461 90 q 211 0 297 0 q 136 13 172 0 q 73 51 100 26 q 30 108 46 75 q 14 183 14 142 q 31 274 14 228 q 78 365 49 321 q 149 449 108 410 q 233 515 189 488 q 244 533 243 522 q 236 551 244 544 q 217 572 225 560 q 202 596 210 585 q 185 617 194 607 q 161 629 175 626 q 124 640 143 632 q 90 661 104 649 q 67 692 75 674 q 64 731 60 710 q 88 769 69 757 q 128 782 106 782 q 159 775 143 782 q 185 754 175 768 q 188 725 194 742 q 165 708 181 708 q 149 715 158 708 q 141 724 146 717 q 131 739 136 731 q 118 753 125 747 q 104 760 111 760 q 85 728 90 760 q 114 668 79 693 q 138 656 125 661 q 163 651 150 651 q 183 657 174 651 q 197 678 193 663 q 223 731 204 704 q 267 778 242 757 q 322 813 292 800 q 381 826 351 826 q 419 819 404 826 q 454 790 447 807 q 455 754 461 772 q 433 719 449 736 q 400 689 417 701 q 317 646 357 661 q 240 626 276 631 q 222 613 224 625 q 230 588 221 601 q 256 563 239 574 q 296 551 274 551 q 317 554 303 551 q 322 556 318 556 q 332 540 333 556 q 324 521 331 524 q 219 468 268 504 q 133 385 169 432 q 74 286 96 339 q 51 183 51 233 q 66 117 51 147 q 106 66 81 88 q 163 33 131 44 q 229 21 194 21 q 328 40 272 21 q 449 110 383 60 q 590 244 515 160 q 744 457 664 328 q 754 461 749 461 q 760 458 757 461 m 236 678 q 233 658 233 667 q 240 649 232 649 q 276 655 256 649 q 317 670 296 661 q 356 689 338 679 q 388 707 375 699 q 436 772 439 739 q 420 796 435 790 q 390 801 406 801 q 341 790 365 801 q 296 762 317 779 q 259 722 275 744 q 236 678 243 700 m 336 512 q 341 508 340 509 q 338 498 346 503 q 326 478 329 491 q 323 453 323 465 q 326 431 324 441 q 329 421 329 421 q 324 413 329 419 q 318 408 320 408 q 307 410 315 408 q 298 425 299 412 q 298 436 298 426 q 301 459 298 446 q 310 487 303 473 q 330 511 316 501 q 336 512 332 512 z "},"":{"ha":740,"x_min":14,"x_max":767,"o":"m 760 458 q 763 444 767 454 q 664 303 722 381 q 533 158 606 225 q 379 45 461 90 q 211 0 297 0 q 136 13 172 0 q 73 51 100 26 q 30 108 46 75 q 14 183 14 142 q 31 274 14 228 q 78 365 49 321 q 149 449 108 410 q 233 515 189 488 q 244 533 243 522 q 236 551 244 544 q 217 572 225 560 q 202 596 210 585 q 185 617 194 607 q 161 629 175 626 q 124 640 143 632 q 90 661 104 649 q 67 692 75 674 q 64 731 60 710 q 88 769 69 757 q 128 782 106 782 q 159 775 143 782 q 185 754 175 768 q 188 725 194 742 q 165 708 181 708 q 149 715 158 708 q 141 724 146 717 q 131 739 136 731 q 118 753 125 747 q 104 760 111 760 q 85 728 90 760 q 114 668 79 693 q 138 656 125 661 q 163 651 150 651 q 183 657 174 651 q 197 678 193 663 q 223 731 204 704 q 267 778 242 757 q 322 813 292 800 q 381 826 351 826 q 419 819 404 826 q 454 790 447 807 q 455 754 461 772 q 433 719 449 736 q 400 689 417 701 q 317 646 357 661 q 240 626 276 631 q 222 613 224 625 q 230 588 221 601 q 256 563 239 574 q 296 551 274 551 q 317 554 303 551 q 322 556 318 556 q 332 540 333 556 q 324 521 331 524 q 219 468 268 504 q 133 385 169 432 q 74 286 96 339 q 51 183 51 233 q 66 117 51 147 q 106 66 81 88 q 163 33 131 44 q 229 21 194 21 q 328 40 272 21 q 449 110 383 60 q 590 244 515 160 q 744 457 664 328 q 754 461 749 461 q 760 458 757 461 m 236 678 q 233 658 233 667 q 240 649 232 649 q 276 655 256 649 q 317 670 296 661 q 356 689 338 679 q 388 707 375 699 q 436 772 439 739 q 420 796 435 790 q 390 801 406 801 q 341 790 365 801 q 296 762 317 779 q 259 722 275 744 q 236 678 243 700 m 304 874 q 299 878 301 877 q 302 888 295 883 q 315 908 312 895 q 317 933 318 921 q 314 955 317 945 q 312 965 312 965 q 316 973 312 967 q 323 978 320 978 q 333 976 325 978 q 342 961 341 975 q 342 950 342 960 q 340 927 342 940 q 331 899 337 913 q 310 876 324 885 q 304 874 308 874 z "},"":{"ha":740,"x_min":14,"x_max":767,"o":"m 760 458 q 763 444 767 454 q 664 303 722 381 q 533 158 606 225 q 379 45 461 90 q 211 0 297 0 q 136 13 172 0 q 73 51 100 26 q 30 108 46 75 q 14 183 14 142 q 31 274 14 228 q 78 365 49 321 q 149 449 108 410 q 233 515 189 488 q 244 533 243 522 q 236 551 244 544 q 217 572 225 560 q 202 596 210 585 q 185 617 194 607 q 161 629 175 626 q 124 640 143 632 q 90 661 104 649 q 67 692 75 674 q 64 731 60 710 q 88 769 69 757 q 128 782 106 782 q 159 775 143 782 q 185 754 175 768 q 188 725 194 742 q 165 708 181 708 q 149 715 158 708 q 141 724 146 717 q 131 739 136 731 q 118 753 125 747 q 104 760 111 760 q 85 728 90 760 q 114 668 79 693 q 138 656 125 661 q 163 651 150 651 q 183 657 174 651 q 197 678 193 663 q 223 731 204 704 q 267 778 242 757 q 322 813 292 800 q 381 826 351 826 q 419 819 404 826 q 454 790 447 807 q 455 754 461 772 q 433 719 449 736 q 400 689 417 701 q 317 646 357 661 q 240 626 276 631 q 222 613 224 625 q 230 588 221 601 q 256 563 239 574 q 296 551 274 551 q 317 554 303 551 q 322 556 318 556 q 332 540 333 556 q 324 521 331 524 q 219 468 268 504 q 133 385 169 432 q 74 286 96 339 q 51 183 51 233 q 66 117 51 147 q 106 66 81 88 q 163 33 131 44 q 229 21 194 21 q 328 40 272 21 q 449 110 383 60 q 590 244 515 160 q 744 457 664 328 q 754 461 749 461 q 760 458 757 461 m 236 678 q 233 658 233 667 q 240 649 232 649 q 276 655 256 649 q 317 670 296 661 q 356 689 338 679 q 388 707 375 699 q 436 772 439 739 q 420 796 435 790 q 390 801 406 801 q 341 790 365 801 q 296 762 317 779 q 259 722 275 744 q 236 678 243 700 m 408 856 q 404 851 408 856 q 399 853 400 851 l 371 876 l 343 853 q 338 851 342 851 q 333 856 333 856 l 333 860 q 336 864 333 861 l 367 889 q 371 890 368 890 q 374 889 372 890 l 406 864 q 408 856 411 861 z "},"":{"ha":740,"x_min":14,"x_max":767,"o":"m 760 458 q 763 444 767 454 q 664 303 722 381 q 533 158 606 225 q 379 45 461 90 q 211 0 297 0 q 136 13 172 0 q 73 51 100 26 q 30 108 46 75 q 14 183 14 142 q 31 274 14 228 q 78 365 49 321 q 149 449 108 410 q 233 515 189 488 q 244 533 243 522 q 236 551 244 544 q 217 572 225 560 q 202 596 210 585 q 185 617 194 607 q 161 629 175 626 q 124 640 143 632 q 90 661 104 649 q 67 692 75 674 q 64 731 60 710 q 88 769 69 757 q 128 782 106 782 q 159 775 143 782 q 185 754 175 768 q 188 725 194 742 q 165 708 181 708 q 149 715 158 708 q 141 724 146 717 q 131 739 136 731 q 118 753 125 747 q 104 760 111 760 q 85 728 90 760 q 114 668 79 693 q 138 656 125 661 q 163 651 150 651 q 183 657 174 651 q 197 678 193 663 q 223 731 204 704 q 267 778 242 757 q 322 813 292 800 q 381 826 351 826 q 419 819 404 826 q 454 790 447 807 q 455 754 461 772 q 433 719 449 736 q 400 689 417 701 q 317 646 357 661 q 240 626 276 631 q 222 613 224 625 q 230 588 221 601 q 256 563 239 574 q 296 551 274 551 q 317 554 303 551 q 322 556 318 556 q 332 540 333 556 q 324 521 331 524 q 219 468 268 504 q 133 385 169 432 q 74 286 96 339 q 51 183 51 233 q 66 117 51 147 q 106 66 81 88 q 163 33 131 44 q 229 21 194 21 q 328 40 272 21 q 449 110 383 60 q 590 244 515 160 q 744 457 664 328 q 754 461 749 461 q 760 458 757 461 m 236 678 q 233 658 233 667 q 240 649 232 649 q 276 655 256 649 q 317 670 296 661 q 356 689 338 679 q 388 707 375 699 q 436 772 439 739 q 420 796 435 790 q 390 801 406 801 q 341 790 365 801 q 296 762 317 779 q 259 722 275 744 q 236 678 243 700 m 342 851 q 354 864 342 864 q 367 851 367 864 q 354 839 367 839 q 342 851 342 839 m 374 851 q 386 864 374 864 q 399 851 399 864 q 386 839 399 839 q 374 851 374 839 z "},"":{"ha":471,"x_min":-33,"x_max":481,"o":"m 471 838 q 478 831 475 838 q 479 818 481 824 q 469 811 479 811 l 378 811 q 337 801 354 811 q 315 768 319 790 l 160 81 q 167 47 154 60 q 201 33 179 33 l 278 33 q 288 24 290 33 q 284 13 288 19 q 278 7 281 7 l 117 7 l 117 7 l -22 7 q -30 14 -26 7 q -33 25 -33 21 q -22 33 -32 33 l 54 33 q 98 44 79 33 q 124 79 117 56 l 278 763 q 270 798 283 785 q 235 811 257 811 l 97 811 q 88 821 88 811 q 92 831 89 825 q 99 838 94 838 l 471 838 m 269 531 q 274 528 273 529 q 272 518 279 523 q 259 498 262 510 q 256 473 256 485 q 260 451 257 460 q 262 441 262 441 q 258 433 262 438 q 251 427 253 427 q 241 429 249 427 q 231 444 233 431 q 231 455 231 446 q 234 479 231 465 q 243 506 236 492 q 263 530 250 520 q 269 531 266 531 z "},"":{"ha":471,"x_min":-33,"x_max":481,"o":"m 471 838 q 478 831 475 838 q 479 818 481 824 q 469 811 479 811 l 378 811 q 337 801 354 811 q 315 768 319 790 l 160 81 q 167 47 154 60 q 201 33 179 33 l 278 33 q 288 24 290 33 q 284 13 288 19 q 278 7 281 7 l 117 7 l 117 7 l -22 7 q -30 14 -26 7 q -33 25 -33 21 q -22 33 -32 33 l 54 33 q 98 44 79 33 q 124 79 117 56 l 278 763 q 270 798 283 785 q 235 811 257 811 l 97 811 q 88 821 88 811 q 92 831 89 825 q 99 838 94 838 l 471 838 m 227 884 q 222 888 223 886 q 224 897 217 893 q 237 918 234 905 q 239 943 240 931 q 236 965 239 955 q 234 975 234 975 q 238 983 234 977 q 245 988 242 988 q 255 986 247 988 q 264 971 263 984 q 264 960 264 970 q 262 937 264 950 q 253 909 260 923 q 233 885 246 895 q 227 884 230 884 z "},"":{"ha":471,"x_min":-33,"x_max":481,"o":"m 471 838 q 478 831 475 838 q 479 818 481 824 q 469 811 479 811 l 378 811 q 337 801 354 811 q 315 768 319 790 l 160 81 q 167 47 154 60 q 201 33 179 33 l 278 33 q 288 24 290 33 q 284 13 288 19 q 278 7 281 7 l 117 7 l 117 7 l -22 7 q -30 14 -26 7 q -33 25 -33 21 q -22 33 -32 33 l 54 33 q 98 44 79 33 q 124 79 117 56 l 278 763 q 270 798 283 785 q 235 811 257 811 l 97 811 q 88 821 88 811 q 92 831 89 825 q 99 838 94 838 l 471 838 m 333 856 q 329 851 333 856 q 324 853 325 851 l 296 876 l 268 853 q 263 851 267 851 q 258 856 258 856 l 258 860 q 261 864 258 861 l 292 889 q 296 890 293 890 q 299 889 297 890 l 331 864 q 333 856 336 861 z "},"":{"ha":471,"x_min":-33,"x_max":481,"o":"m 471 838 q 478 831 475 838 q 479 818 481 824 q 469 811 479 811 l 378 811 q 337 801 354 811 q 315 768 319 790 l 160 81 q 167 47 154 60 q 201 33 179 33 l 278 33 q 288 24 290 33 q 284 13 288 19 q 278 7 281 7 l 117 7 l 117 7 l -22 7 q -30 14 -26 7 q -33 25 -33 21 q -22 33 -32 33 l 54 33 q 98 44 79 33 q 124 79 117 56 l 278 763 q 270 798 283 785 q 235 811 257 811 l 97 811 q 88 821 88 811 q 92 831 89 825 q 99 838 94 838 l 471 838 m 275 874 q 288 886 275 886 q 300 874 300 886 q 288 861 300 861 q 275 874 275 861 m 307 874 q 319 886 307 886 q 332 874 332 886 q 319 861 332 861 q 307 874 307 861 z "},"":{"ha":672,"x_min":31,"x_max":658,"o":"m 629 79 q 643 69 640 82 q 642 54 644 67 q 635 40 640 42 q 460 1 550 13 q 279 -11 369 -11 q 208 -9 243 -11 q 139 4 172 -7 q 133 6 138 6 q 121 1 125 6 q 85 -15 103 -15 q 51 -2 65 -15 q 35 31 38 11 q 44 58 31 50 q 64 65 51 65 q 101 50 79 65 q 113 44 108 44 q 149 81 119 44 q 214 163 179 117 q 278 250 249 208 q 314 301 307 292 l 61 197 q 58 197 58 197 q 54 196 57 196 q 42 207 44 196 q 50 225 38 218 l 344 346 q 416 460 382 403 q 479 574 450 518 q 529 679 508 629 q 560 771 550 729 q 560 803 567 796 q 550 814 553 811 q 525 819 536 819 q 456 804 497 819 q 370 763 415 789 q 281 704 325 738 q 200 635 236 671 q 176 608 189 624 q 154 577 164 593 q 142 545 144 561 q 147 515 139 529 q 163 500 153 504 q 186 496 174 496 q 226 503 206 496 q 258 521 247 510 q 266 546 267 529 q 269 569 265 563 q 290 581 276 581 q 315 567 304 581 q 315 542 325 553 q 247 493 292 511 q 175 475 203 475 q 126 506 143 475 q 183 650 96 560 q 255 710 211 676 q 349 772 299 743 q 451 822 400 801 q 543 842 503 842 q 579 833 563 842 q 598 812 590 826 q 599 765 606 797 q 533 594 583 696 q 404 371 482 493 l 633 465 q 635 466 635 465 q 638 467 636 467 q 653 457 649 467 q 643 438 658 443 l 375 328 q 258 161 317 239 q 154 35 200 83 q 152 28 151 32 q 158 22 153 24 q 238 14 183 14 q 322 18 275 14 q 421 30 369 22 q 526 50 472 38 q 629 79 579 63 m 76 7 l 81 7 q 90 10 82 7 q 98 18 97 13 q 94 28 99 24 q 89 31 92 31 q 63 43 71 43 q 56 33 56 43 q 76 7 58 17 z "},"":{"ha":1028,"x_min":31,"x_max":1100,"o":"m 1096 126 q 1100 113 1100 124 q 1096 99 1100 101 q 1053 62 1078 81 q 1001 27 1029 43 q 944 1 974 11 q 889 -8 915 -8 q 843 -3 869 -8 q 803 14 817 3 q 772 74 776 35 q 776 166 767 114 q 806 281 786 218 q 847 408 825 343 q 885 525 867 467 q 915 635 904 583 q 926 726 926 686 q 908 788 926 765 q 846 811 888 811 q 833 810 839 811 q 818 808 826 810 q 729 779 772 803 q 643 719 686 756 q 556 637 600 683 q 464 539 511 590 q 438 506 450 524 q 414 471 425 489 q 376 406 396 439 q 335 339 357 374 q 262 232 299 285 q 190 134 225 179 q 123 53 154 89 q 67 -4 92 18 q 63 -8 67 -4 q 51 -8 60 -8 q 40 -6 43 -8 q 60 38 40 1 q 115 130 79 74 q 199 256 150 186 q 306 400 247 326 q 339 441 322 421 q 371 481 356 461 q 415 542 393 507 q 454 614 436 576 q 486 690 472 651 q 508 761 500 728 q 508 794 515 786 q 499 804 501 801 q 472 808 489 808 q 400 793 443 808 q 309 753 357 778 q 215 694 261 728 q 133 625 168 661 q 110 599 122 614 q 88 569 97 585 q 76 537 79 553 q 79 507 72 521 q 117 488 93 488 q 165 497 140 488 q 200 518 189 507 q 206 545 208 528 q 208 569 204 563 q 231 582 217 582 q 254 569 244 582 q 257 544 264 557 q 231 516 249 531 q 192 491 214 501 q 149 474 171 481 q 111 467 128 467 q 61 497 78 467 q 117 640 31 551 q 188 700 143 667 q 282 763 232 733 q 383 811 332 792 q 474 831 433 831 q 508 824 496 831 q 535 802 519 817 q 543 757 550 788 q 497 632 532 707 q 496 619 492 619 q 500 622 499 619 q 576 692 533 656 q 666 760 618 729 q 765 812 714 792 q 865 832 815 832 q 943 801 917 832 q 965 735 964 776 q 956 640 967 693 q 926 526 946 588 q 886 401 907 465 q 846 283 865 342 q 816 174 826 224 q 808 85 806 124 q 832 31 810 47 q 885 14 857 14 q 953 31 918 14 q 1015 71 988 49 q 1081 126 1049 94 q 1088 131 1085 131 q 1096 126 1094 131 m 119 100 q 224 235 168 158 q 332 397 279 313 q 211 235 265 314 q 119 100 157 157 m 721 885 q 724 869 726 879 q 715 856 721 863 q 699 849 708 849 q 675 860 688 849 q 650 886 663 871 l 642 894 q 628 900 635 901 q 607 883 617 897 q 597 869 601 878 q 592 865 596 865 q 586 867 590 864 q 585 882 582 872 q 603 907 592 893 q 631 921 615 921 q 651 911 642 921 l 660 903 q 682 878 671 890 q 701 869 693 867 q 710 881 707 872 q 717 886 713 886 q 719 885 718 886 q 721 885 719 885 z "},"":{"ha":926,"x_min":13,"x_max":986,"o":"m 979 447 q 976 432 986 438 q 913 390 971 428 q 772 304 856 353 q 694 229 725 278 q 635 148 669 190 q 560 71 601 106 q 473 14 519 36 q 376 -8 426 -8 q 278 20 325 -8 q 203 90 231 49 q 174 125 190 110 q 136 151 157 140 q 90 183 108 167 q 60 219 72 200 q 23 309 33 258 q 19 415 13 360 q 47 528 25 471 q 104 640 68 586 q 263 792 171 740 q 458 843 354 843 q 560 831 510 843 q 655 793 611 818 q 731 730 699 768 q 779 639 764 692 q 793 510 799 581 q 760 363 788 440 q 758 359 758 360 q 757 356 758 358 q 759 340 754 347 q 772 333 764 333 q 803 349 775 333 q 865 386 832 365 q 928 426 899 407 q 964 450 958 444 q 971 451 967 451 q 979 447 978 451 m 649 219 q 653 232 651 226 q 651 238 654 238 q 649 237 650 238 q 647 236 649 236 q 463 156 557 190 q 267 121 369 121 q 242 122 250 121 q 225 115 231 124 q 226 96 219 106 q 291 37 250 60 q 376 14 332 14 q 456 34 417 14 q 531 85 494 54 q 597 153 567 117 q 649 219 628 189 m 606 249 q 685 310 651 272 q 733 397 718 349 q 757 519 753 458 q 746 633 761 579 q 701 717 732 682 q 629 776 669 753 q 542 810 589 799 q 447 821 494 821 q 268 772 351 821 q 122 628 185 722 q 67 522 88 576 q 41 415 47 467 q 44 315 35 363 q 78 232 53 268 q 91 216 82 226 q 110 196 100 206 q 131 178 121 186 q 149 171 142 171 q 157 190 160 171 q 155 209 156 200 q 154 229 154 218 q 167 334 151 282 q 211 432 182 386 q 249 478 225 453 q 301 524 272 503 q 364 563 331 546 q 429 585 397 579 l 432 585 q 448 577 442 585 q 455 560 454 569 q 451 542 456 550 q 433 531 446 533 q 414 535 426 528 q 389 543 401 543 q 383 542 385 543 q 378 540 379 542 q 374 539 375 540 q 288 481 324 517 q 228 403 251 444 q 194 316 206 361 q 185 229 183 271 q 204 164 185 183 q 272 144 224 144 q 390 157 326 144 q 493 193 440 168 q 606 249 546 218 m 448 552 q 453 548 452 550 q 451 539 458 544 q 438 518 441 531 q 436 493 435 506 q 439 471 436 481 q 441 462 441 462 q 437 454 441 459 q 430 448 433 448 q 420 450 428 448 q 411 465 412 452 q 411 476 411 466 q 413 499 411 486 q 422 527 415 513 q 442 551 429 541 q 448 552 445 552 z "},"":{"ha":926,"x_min":13,"x_max":986,"o":"m 979 447 q 976 432 986 438 q 913 390 971 428 q 772 304 856 353 q 694 229 725 278 q 635 148 669 190 q 560 71 601 106 q 473 14 519 36 q 376 -8 426 -8 q 278 20 325 -8 q 203 90 231 49 q 174 125 190 110 q 136 151 157 140 q 90 183 108 167 q 60 219 72 200 q 23 309 33 258 q 19 415 13 360 q 47 528 25 471 q 104 640 68 586 q 263 792 171 740 q 458 843 354 843 q 560 831 510 843 q 655 793 611 818 q 731 730 699 768 q 779 639 764 692 q 793 510 799 581 q 760 363 788 440 q 758 359 758 360 q 757 356 758 358 q 759 340 754 347 q 772 333 764 333 q 803 349 775 333 q 865 386 832 365 q 928 426 899 407 q 964 450 958 444 q 971 451 967 451 q 979 447 978 451 m 649 219 q 653 232 651 226 q 651 238 654 238 q 649 237 650 238 q 647 236 649 236 q 463 156 557 190 q 267 121 369 121 q 242 122 250 121 q 225 115 231 124 q 226 96 219 106 q 291 37 250 60 q 376 14 332 14 q 456 34 417 14 q 531 85 494 54 q 597 153 567 117 q 649 219 628 189 m 606 249 q 685 310 651 272 q 733 397 718 349 q 757 519 753 458 q 746 633 761 579 q 701 717 732 682 q 629 776 669 753 q 542 810 589 799 q 447 821 494 821 q 268 772 351 821 q 122 628 185 722 q 67 522 88 576 q 41 415 47 467 q 44 315 35 363 q 78 232 53 268 q 91 216 82 226 q 110 196 100 206 q 131 178 121 186 q 149 171 142 171 q 157 190 160 171 q 155 209 156 200 q 154 229 154 218 q 167 334 151 282 q 211 432 182 386 q 249 478 225 453 q 301 524 272 503 q 364 563 331 546 q 429 585 397 579 l 432 585 q 448 577 442 585 q 455 560 454 569 q 451 542 456 550 q 433 531 446 533 q 414 535 426 528 q 389 543 401 543 q 383 542 385 543 q 378 540 379 542 q 374 539 375 540 q 288 481 324 517 q 228 403 251 444 q 194 316 206 361 q 185 229 183 271 q 204 164 185 183 q 272 144 224 144 q 390 157 326 144 q 493 193 440 168 q 606 249 546 218 m 425 898 q 420 902 421 900 q 423 911 415 906 q 436 932 432 919 q 438 957 439 944 q 435 979 437 969 q 432 988 432 988 q 437 996 432 991 q 443 1002 441 1002 q 454 1000 446 1002 q 463 985 462 998 q 463 974 463 984 q 461 951 463 964 q 451 923 458 937 q 431 899 445 909 q 425 898 429 898 z "},"":{"ha":926,"x_min":13,"x_max":986,"o":"m 979 447 q 976 432 986 438 q 913 390 971 428 q 772 304 856 353 q 694 229 725 278 q 635 148 669 190 q 560 71 601 106 q 473 14 519 36 q 376 -8 426 -8 q 278 20 325 -8 q 203 90 231 49 q 174 125 190 110 q 136 151 157 140 q 90 183 108 167 q 60 219 72 200 q 23 309 33 258 q 19 415 13 360 q 47 528 25 471 q 104 640 68 586 q 263 792 171 740 q 458 843 354 843 q 560 831 510 843 q 655 793 611 818 q 731 730 699 768 q 779 639 764 692 q 793 510 799 581 q 760 363 788 440 q 758 359 758 360 q 757 356 758 358 q 759 340 754 347 q 772 333 764 333 q 803 349 775 333 q 865 386 832 365 q 928 426 899 407 q 964 450 958 444 q 971 451 967 451 q 979 447 978 451 m 649 219 q 653 232 651 226 q 651 238 654 238 q 649 237 650 238 q 647 236 649 236 q 463 156 557 190 q 267 121 369 121 q 242 122 250 121 q 225 115 231 124 q 226 96 219 106 q 291 37 250 60 q 376 14 332 14 q 456 34 417 14 q 531 85 494 54 q 597 153 567 117 q 649 219 628 189 m 606 249 q 685 310 651 272 q 733 397 718 349 q 757 519 753 458 q 746 633 761 579 q 701 717 732 682 q 629 776 669 753 q 542 810 589 799 q 447 821 494 821 q 268 772 351 821 q 122 628 185 722 q 67 522 88 576 q 41 415 47 467 q 44 315 35 363 q 78 232 53 268 q 91 216 82 226 q 110 196 100 206 q 131 178 121 186 q 149 171 142 171 q 157 190 160 171 q 155 209 156 200 q 154 229 154 218 q 167 334 151 282 q 211 432 182 386 q 249 478 225 453 q 301 524 272 503 q 364 563 331 546 q 429 585 397 579 l 432 585 q 448 577 442 585 q 455 560 454 569 q 451 542 456 550 q 433 531 446 533 q 414 535 426 528 q 389 543 401 543 q 383 542 385 543 q 378 540 379 542 q 374 539 375 540 q 288 481 324 517 q 228 403 251 444 q 194 316 206 361 q 185 229 183 271 q 204 164 185 183 q 272 144 224 144 q 390 157 326 144 q 493 193 440 168 q 606 249 546 218 m 501 875 q 497 871 501 875 q 492 872 493 871 l 464 896 l 436 872 q 431 871 435 871 q 426 875 426 875 l 426 879 q 429 883 426 881 l 460 908 q 464 910 461 910 q 467 908 465 910 l 499 883 q 501 875 504 881 z "},"":{"ha":926,"x_min":13,"x_max":986,"o":"m 979 447 q 976 432 986 438 q 913 390 971 428 q 772 304 856 353 q 694 229 725 278 q 635 148 669 190 q 560 71 601 106 q 473 14 519 36 q 376 -8 426 -8 q 278 20 325 -8 q 203 90 231 49 q 174 125 190 110 q 136 151 157 140 q 90 183 108 167 q 60 219 72 200 q 23 309 33 258 q 19 415 13 360 q 47 528 25 471 q 104 640 68 586 q 263 792 171 740 q 458 843 354 843 q 560 831 510 843 q 655 793 611 818 q 731 730 699 768 q 779 639 764 692 q 793 510 799 581 q 760 363 788 440 q 758 359 758 360 q 757 356 758 358 q 759 340 754 347 q 772 333 764 333 q 803 349 775 333 q 865 386 832 365 q 928 426 899 407 q 964 450 958 444 q 971 451 967 451 q 979 447 978 451 m 649 219 q 653 232 651 226 q 651 238 654 238 q 649 237 650 238 q 647 236 649 236 q 463 156 557 190 q 267 121 369 121 q 242 122 250 121 q 225 115 231 124 q 226 96 219 106 q 291 37 250 60 q 376 14 332 14 q 456 34 417 14 q 531 85 494 54 q 597 153 567 117 q 649 219 628 189 m 606 249 q 685 310 651 272 q 733 397 718 349 q 757 519 753 458 q 746 633 761 579 q 701 717 732 682 q 629 776 669 753 q 542 810 589 799 q 447 821 494 821 q 268 772 351 821 q 122 628 185 722 q 67 522 88 576 q 41 415 47 467 q 44 315 35 363 q 78 232 53 268 q 91 216 82 226 q 110 196 100 206 q 131 178 121 186 q 149 171 142 171 q 157 190 160 171 q 155 209 156 200 q 154 229 154 218 q 167 334 151 282 q 211 432 182 386 q 249 478 225 453 q 301 524 272 503 q 364 563 331 546 q 429 585 397 579 l 432 585 q 448 577 442 585 q 455 560 454 569 q 451 542 456 550 q 433 531 446 533 q 414 535 426 528 q 389 543 401 543 q 383 542 385 543 q 378 540 379 542 q 374 539 375 540 q 288 481 324 517 q 228 403 251 444 q 194 316 206 361 q 185 229 183 271 q 204 164 185 183 q 272 144 224 144 q 390 157 326 144 q 493 193 440 168 q 606 249 546 218 m 531 900 q 533 885 536 894 q 524 871 531 878 q 508 864 518 864 q 485 875 497 864 q 460 901 472 886 l 451 910 q 438 915 444 917 q 417 899 426 913 q 407 885 411 893 q 401 881 406 881 q 396 882 400 879 q 394 897 392 888 q 413 922 401 908 q 440 936 425 936 q 461 926 451 936 l 469 918 q 492 894 481 906 q 511 885 503 882 q 519 896 517 888 q 526 901 522 901 q 528 901 528 901 q 531 900 529 900 z "},"":{"ha":926,"x_min":13,"x_max":986,"o":"m 979 447 q 976 432 986 438 q 913 390 971 428 q 772 304 856 353 q 694 229 725 278 q 635 148 669 190 q 560 71 601 106 q 473 14 519 36 q 376 -8 426 -8 q 278 20 325 -8 q 203 90 231 49 q 174 125 190 110 q 136 151 157 140 q 90 183 108 167 q 60 219 72 200 q 23 309 33 258 q 19 415 13 360 q 47 528 25 471 q 104 640 68 586 q 263 792 171 740 q 458 843 354 843 q 560 831 510 843 q 655 793 611 818 q 731 730 699 768 q 779 639 764 692 q 793 510 799 581 q 760 363 788 440 q 758 359 758 360 q 757 356 758 358 q 759 340 754 347 q 772 333 764 333 q 803 349 775 333 q 865 386 832 365 q 928 426 899 407 q 964 450 958 444 q 971 451 967 451 q 979 447 978 451 m 649 219 q 653 232 651 226 q 651 238 654 238 q 649 237 650 238 q 647 236 649 236 q 463 156 557 190 q 267 121 369 121 q 242 122 250 121 q 225 115 231 124 q 226 96 219 106 q 291 37 250 60 q 376 14 332 14 q 456 34 417 14 q 531 85 494 54 q 597 153 567 117 q 649 219 628 189 m 606 249 q 685 310 651 272 q 733 397 718 349 q 757 519 753 458 q 746 633 761 579 q 701 717 732 682 q 629 776 669 753 q 542 810 589 799 q 447 821 494 821 q 268 772 351 821 q 122 628 185 722 q 67 522 88 576 q 41 415 47 467 q 44 315 35 363 q 78 232 53 268 q 91 216 82 226 q 110 196 100 206 q 131 178 121 186 q 149 171 142 171 q 157 190 160 171 q 155 209 156 200 q 154 229 154 218 q 167 334 151 282 q 211 432 182 386 q 249 478 225 453 q 301 524 272 503 q 364 563 331 546 q 429 585 397 579 l 432 585 q 448 577 442 585 q 455 560 454 569 q 451 542 456 550 q 433 531 446 533 q 414 535 426 528 q 389 543 401 543 q 383 542 385 543 q 378 540 379 542 q 374 539 375 540 q 288 481 324 517 q 228 403 251 444 q 194 316 206 361 q 185 229 183 271 q 204 164 185 183 q 272 144 224 144 q 390 157 326 144 q 493 193 440 168 q 606 249 546 218 m 435 869 q 447 882 435 882 q 460 869 460 882 q 447 857 460 857 q 435 869 435 857 m 467 869 q 479 882 467 882 q 492 869 492 882 q 479 857 492 857 q 467 869 467 857 z "},"":{"ha":926,"x_min":8,"x_max":986,"o":"m 964 450 q 971 451 967 451 q 979 447 978 451 q 976 432 986 438 q 913 390 971 428 q 772 304 856 353 q 694 229 725 278 q 635 148 669 190 q 560 71 601 106 q 473 14 519 36 q 376 -8 426 -8 q 278 20 325 -8 q 203 90 231 49 l 190 107 l 39 -75 q 28 -81 33 -81 q 18 -76 22 -81 q 17 -56 8 -67 l 169 129 q 153 141 161 136 q 136 151 144 146 q 90 183 108 167 q 60 219 72 200 q 23 309 33 258 q 19 415 13 360 q 47 528 25 471 q 104 640 68 586 q 263 792 171 740 q 458 843 354 843 q 585 824 521 843 q 697 765 649 806 l 811 904 q 824 910 817 910 q 833 906 828 910 q 835 885 844 897 l 718 744 q 779 639 760 703 q 793 510 799 581 q 760 363 788 440 q 758 359 758 360 q 757 356 758 358 q 759 340 754 347 q 772 333 764 333 q 803 349 775 333 q 865 386 832 365 q 928 426 899 407 q 964 450 958 444 m 678 742 q 570 801 633 782 q 447 821 507 821 q 268 772 351 821 q 122 628 185 722 q 67 522 88 576 q 41 415 47 467 q 44 315 35 363 q 78 232 53 268 q 91 216 82 226 q 110 196 100 206 q 131 178 121 186 q 149 171 142 171 q 157 190 160 171 q 155 209 156 200 q 154 229 154 218 q 167 334 151 282 q 211 432 182 386 q 249 478 225 453 q 301 524 272 503 q 364 563 331 546 q 429 585 397 579 l 432 585 q 448 577 442 585 q 455 560 454 569 q 451 542 456 550 q 433 531 446 533 q 414 535 426 528 q 389 543 401 543 q 383 542 385 543 q 378 540 379 542 q 374 539 375 540 q 288 481 324 517 q 228 403 251 444 q 194 316 206 361 q 185 229 183 271 q 188 197 185 214 q 201 168 190 181 l 678 742 m 390 157 q 493 193 440 168 q 606 249 546 218 q 685 310 651 272 q 733 397 718 349 q 757 519 753 458 q 746 633 761 579 q 699 721 729 685 l 225 150 q 249 144 239 144 q 319 147 285 144 q 390 157 354 150 m 376 14 q 456 34 417 14 q 531 85 494 54 q 597 153 567 117 q 649 219 628 189 q 653 232 651 226 q 651 238 654 238 q 649 237 650 238 q 647 236 649 236 q 463 156 557 190 q 267 121 369 121 q 242 122 250 121 q 225 115 231 124 q 226 96 219 106 q 291 37 250 60 q 376 14 332 14 z "},"":{"ha":1410,"x_min":13,"x_max":1442,"o":"m 458 843 q 612 815 535 843 q 736 725 689 786 q 757 765 739 750 q 800 781 775 781 q 858 753 838 781 q 860 724 868 740 q 838 708 853 708 q 821 715 828 708 q 815 724 819 717 q 803 739 810 731 q 791 753 797 747 q 778 760 785 760 q 758 726 764 760 q 788 668 750 693 q 811 656 799 661 q 836 651 824 651 q 871 678 861 651 q 897 729 878 703 q 940 777 915 756 q 995 813 965 799 q 1054 826 1025 826 q 1093 819 1072 826 q 1128 790 1121 807 q 1128 753 1135 772 q 1106 717 1122 735 q 1072 689 1090 700 q 990 645 1031 660 q 914 626 950 631 q 896 613 897 625 q 903 588 894 601 q 930 563 913 574 q 969 551 947 551 q 990 554 976 551 q 992 555 992 554 q 994 556 993 556 q 1006 540 1007 556 q 996 521 1004 524 q 891 468 940 504 q 805 385 842 432 q 746 286 768 339 q 724 183 724 233 q 739 117 724 147 q 779 66 754 88 q 836 33 804 44 q 903 21 868 21 q 1000 40 944 21 q 1122 109 1056 60 q 1263 242 1188 158 q 1418 456 1338 326 q 1426 461 1419 461 q 1433 458 1431 461 q 1436 444 1442 453 q 1337 303 1396 381 q 1206 158 1278 225 q 1053 45 1135 90 q 885 0 971 0 q 810 13 846 0 q 747 51 774 26 q 703 108 719 75 q 688 183 688 142 q 688 203 688 193 q 690 224 689 213 q 631 144 665 185 q 557 69 597 103 q 471 13 517 35 q 376 -8 425 -8 q 278 20 325 -8 q 203 90 231 49 q 174 125 190 110 q 136 151 157 140 q 90 183 108 167 q 60 219 72 200 q 23 309 33 258 q 19 415 13 360 q 47 528 25 471 q 104 640 68 586 q 263 792 171 740 q 458 843 354 843 m 390 157 q 493 193 440 168 q 606 249 546 218 q 685 310 651 272 q 733 397 718 349 q 757 519 753 458 q 746 633 761 579 q 701 717 732 682 q 629 776 669 753 q 542 810 589 799 q 447 821 494 821 q 268 772 351 821 q 122 628 185 722 q 67 522 88 576 q 41 415 47 467 q 44 315 35 363 q 78 232 53 268 q 91 216 82 226 q 110 196 100 206 q 131 178 121 186 q 149 171 142 171 q 157 190 160 171 q 155 209 156 200 q 154 229 154 218 q 167 334 151 282 q 211 432 182 386 q 249 478 225 453 q 301 524 272 503 q 364 563 331 546 q 429 585 397 579 l 432 585 q 448 577 442 585 q 455 560 454 569 q 451 542 456 550 q 433 531 446 533 q 414 535 426 528 q 389 543 401 543 q 383 542 385 543 q 378 540 379 542 q 374 539 375 540 q 288 481 324 517 q 228 403 251 444 q 194 316 206 361 q 185 229 183 271 q 206 163 185 181 q 272 144 228 144 q 390 157 326 144 m 376 14 q 456 34 417 14 q 531 85 494 54 q 597 153 567 117 q 649 219 628 189 q 653 232 651 226 q 651 238 654 238 q 649 237 650 238 q 647 236 649 236 q 463 156 557 190 q 267 121 369 121 q 242 122 250 121 q 225 115 231 124 q 226 96 219 106 q 291 37 250 60 q 376 14 332 14 m 1064 801 q 1015 790 1039 801 q 969 762 990 779 q 933 722 949 744 q 910 678 918 700 q 905 658 906 667 q 914 649 904 649 q 948 655 928 649 q 990 670 968 661 q 1030 689 1011 679 q 1061 707 1049 699 q 1110 772 1113 739 q 1093 795 1108 789 q 1064 801 1078 801 m 779 639 q 767 386 814 528 q 906 515 825 463 q 917 533 917 522 q 908 551 918 544 q 890 572 897 560 q 874 595 882 583 q 858 617 867 607 q 835 629 849 626 q 804 637 819 632 q 775 651 789 642 l 779 639 z "},"":{"ha":569,"x_min":-1,"x_max":624,"o":"m 621 446 q 613 432 624 435 q 531 406 569 421 q 456 373 493 392 q 380 331 418 354 q 297 281 342 308 q 286 263 286 274 q 293 244 286 253 q 352 179 331 213 q 367 115 374 146 q 333 73 361 93 q 266 37 304 53 q 185 12 228 21 q 106 3 142 3 q 54 10 75 3 q 31 36 33 18 q 66 119 25 64 q 221 256 107 175 l 221 256 q 220 266 226 260 q 208 278 214 272 q 187 293 197 285 q 167 310 176 301 q 78 380 118 346 q 25 443 38 414 q 50 589 -1 507 q 116 657 67 615 q 228 738 165 699 q 356 804 290 776 q 472 832 422 832 q 549 793 526 832 q 556 765 554 782 q 552 722 558 747 q 528 664 546 697 q 478 586 511 631 q 472 583 476 583 q 463 582 467 582 q 450 583 451 582 q 449 599 443 590 q 476 638 460 614 q 504 688 492 661 q 522 740 517 714 q 517 783 526 765 q 458 811 499 811 q 356 783 415 811 q 240 717 297 756 q 139 639 183 678 q 81 576 94 600 q 57 451 36 506 q 108 394 68 426 q 192 326 147 361 q 209 313 200 319 q 225 300 218 307 q 257 290 239 290 q 283 297 269 290 q 448 391 374 354 q 607 453 522 428 q 609 453 608 453 q 611 454 610 454 q 621 446 618 454 m 332 119 q 317 175 339 146 q 258 236 294 204 q 244 244 250 244 q 233 239 244 244 q 92 117 138 171 q 51 40 46 64 q 65 28 53 32 q 97 25 78 25 q 165 32 126 25 q 238 51 203 39 q 300 81 274 64 q 332 119 326 99 m 489 886 q 486 878 492 881 l 454 853 q 451 851 451 851 q 447 853 449 851 l 417 878 q 414 882 414 881 l 414 886 q 418 890 414 886 q 424 889 422 890 l 451 865 l 479 889 q 485 890 481 890 q 489 886 489 886 z "},"":{"ha":1179,"x_min":47,"x_max":1139,"o":"m 1128 33 q 1139 24 1139 36 q 1136 10 1139 19 q 1129 0 1133 0 q 1108 -2 1118 -1 q 1088 -3 1099 -3 q 989 13 1035 -3 q 918 61 943 29 q 879 198 878 114 q 903 374 881 282 q 960 558 926 467 q 1021 717 994 650 q 1022 724 1022 721 q 1018 725 1022 729 q 984 678 1003 704 q 946 625 965 653 q 773 394 858 507 q 610 195 688 282 q 468 56 533 108 q 356 3 403 3 q 325 10 342 3 q 285 78 289 31 q 299 187 281 125 q 349 322 317 249 q 418 467 382 394 q 495 633 471 571 q 526 728 519 694 q 525 776 532 763 q 507 799 518 790 q 454 813 488 813 q 376 799 419 813 q 290 762 332 785 q 209 710 247 739 q 146 653 171 682 q 83 549 101 600 q 81 461 65 497 q 102 438 88 446 q 133 431 117 431 q 174 440 153 431 q 207 468 194 449 q 205 497 214 481 q 196 522 196 513 q 221 543 200 543 q 241 537 232 543 q 250 519 250 531 q 233 469 247 490 q 199 435 218 449 q 160 417 179 422 q 128 411 140 411 q 58 465 74 411 q 63 555 47 510 q 110 642 78 600 q 189 722 143 685 q 285 788 235 760 q 383 831 335 815 q 472 847 432 847 q 530 834 506 847 q 563 793 554 821 q 563 737 569 771 q 542 659 557 703 q 505 565 528 615 q 456 457 482 514 q 392 322 424 390 q 342 193 361 253 q 323 90 324 133 q 353 28 322 46 q 371 22 361 22 q 447 60 400 22 q 551 159 494 99 q 666 292 607 219 q 777 433 725 364 q 869 557 829 501 q 928 639 910 613 q 978 707 956 676 q 1018 760 1001 738 q 1049 798 1039 788 q 1067 808 1060 808 q 1070 808 1069 808 q 1074 807 1071 807 q 1079 792 1081 801 q 1075 775 1078 783 q 1064 746 1071 763 q 1050 710 1057 729 q 994 560 1026 649 q 940 379 961 471 q 917 206 918 288 q 953 74 915 124 q 1001 40 972 50 q 1069 31 1029 31 q 1098 31 1083 31 q 1128 33 1113 32 m 758 524 q 763 521 762 522 q 761 511 768 516 q 748 491 751 504 q 745 466 745 478 q 748 444 746 453 q 751 434 751 434 q 747 426 751 431 q 740 420 742 420 q 729 422 737 420 q 720 437 722 424 q 720 448 720 439 q 723 472 720 458 q 732 499 725 485 q 752 523 739 513 q 758 524 755 524 z "},"":{"ha":1179,"x_min":47,"x_max":1139,"o":"m 1128 33 q 1139 24 1139 36 q 1136 10 1139 19 q 1129 0 1133 0 q 1108 -2 1118 -1 q 1088 -3 1099 -3 q 989 13 1035 -3 q 918 61 943 29 q 879 198 878 114 q 903 374 881 282 q 960 558 926 467 q 1021 717 994 650 q 1022 724 1022 721 q 1018 725 1022 729 q 984 678 1003 704 q 946 625 965 653 q 773 394 858 507 q 610 195 688 282 q 468 56 533 108 q 356 3 403 3 q 325 10 342 3 q 285 78 289 31 q 299 187 281 125 q 349 322 317 249 q 418 467 382 394 q 495 633 471 571 q 526 728 519 694 q 525 776 532 763 q 507 799 518 790 q 454 813 488 813 q 376 799 419 813 q 290 762 332 785 q 209 710 247 739 q 146 653 171 682 q 83 549 101 600 q 81 461 65 497 q 102 438 88 446 q 133 431 117 431 q 174 440 153 431 q 207 468 194 449 q 205 497 214 481 q 196 522 196 513 q 221 543 200 543 q 241 537 232 543 q 250 519 250 531 q 233 469 247 490 q 199 435 218 449 q 160 417 179 422 q 128 411 140 411 q 58 465 74 411 q 63 555 47 510 q 110 642 78 600 q 189 722 143 685 q 285 788 235 760 q 383 831 335 815 q 472 847 432 847 q 530 834 506 847 q 563 793 554 821 q 563 737 569 771 q 542 659 557 703 q 505 565 528 615 q 456 457 482 514 q 392 322 424 390 q 342 193 361 253 q 323 90 324 133 q 353 28 322 46 q 371 22 361 22 q 447 60 400 22 q 551 159 494 99 q 666 292 607 219 q 777 433 725 364 q 869 557 829 501 q 928 639 910 613 q 978 707 956 676 q 1018 760 1001 738 q 1049 798 1039 788 q 1067 808 1060 808 q 1070 808 1069 808 q 1074 807 1071 807 q 1079 792 1081 801 q 1075 775 1078 783 q 1064 746 1071 763 q 1050 710 1057 729 q 994 560 1026 649 q 940 379 961 471 q 917 206 918 288 q 953 74 915 124 q 1001 40 972 50 q 1069 31 1029 31 q 1098 31 1083 31 q 1128 33 1113 32 m 713 884 q 708 888 709 886 q 710 897 703 893 q 723 918 720 905 q 725 943 726 931 q 722 965 725 955 q 720 975 720 975 q 724 983 720 977 q 731 988 729 988 q 741 986 733 988 q 751 971 749 984 q 751 960 751 970 q 748 937 751 950 q 739 909 746 923 q 719 885 732 895 q 713 884 716 884 z "},"":{"ha":1179,"x_min":47,"x_max":1139,"o":"m 1128 33 q 1139 24 1139 36 q 1136 10 1139 19 q 1129 0 1133 0 q 1108 -2 1118 -1 q 1088 -3 1099 -3 q 989 13 1035 -3 q 918 61 943 29 q 879 198 878 114 q 903 374 881 282 q 960 558 926 467 q 1021 717 994 650 q 1022 724 1022 721 q 1018 725 1022 729 q 984 678 1003 704 q 946 625 965 653 q 773 394 858 507 q 610 195 688 282 q 468 56 533 108 q 356 3 403 3 q 325 10 342 3 q 285 78 289 31 q 299 187 281 125 q 349 322 317 249 q 418 467 382 394 q 495 633 471 571 q 526 728 519 694 q 525 776 532 763 q 507 799 518 790 q 454 813 488 813 q 376 799 419 813 q 290 762 332 785 q 209 710 247 739 q 146 653 171 682 q 83 549 101 600 q 81 461 65 497 q 102 438 88 446 q 133 431 117 431 q 174 440 153 431 q 207 468 194 449 q 205 497 214 481 q 196 522 196 513 q 221 543 200 543 q 241 537 232 543 q 250 519 250 531 q 233 469 247 490 q 199 435 218 449 q 160 417 179 422 q 128 411 140 411 q 58 465 74 411 q 63 555 47 510 q 110 642 78 600 q 189 722 143 685 q 285 788 235 760 q 383 831 335 815 q 472 847 432 847 q 530 834 506 847 q 563 793 554 821 q 563 737 569 771 q 542 659 557 703 q 505 565 528 615 q 456 457 482 514 q 392 322 424 390 q 342 193 361 253 q 323 90 324 133 q 353 28 322 46 q 371 22 361 22 q 447 60 400 22 q 551 159 494 99 q 666 292 607 219 q 777 433 725 364 q 869 557 829 501 q 928 639 910 613 q 978 707 956 676 q 1018 760 1001 738 q 1049 798 1039 788 q 1067 808 1060 808 q 1070 808 1069 808 q 1074 807 1071 807 q 1079 792 1081 801 q 1075 775 1078 783 q 1064 746 1071 763 q 1050 710 1057 729 q 994 560 1026 649 q 940 379 961 471 q 917 206 918 288 q 953 74 915 124 q 1001 40 972 50 q 1069 31 1029 31 q 1098 31 1083 31 q 1128 33 1113 32 m 810 856 q 806 851 810 856 q 800 853 801 851 l 772 876 l 744 853 q 739 851 743 851 q 735 856 735 856 l 735 860 q 738 864 735 861 l 768 889 q 772 890 769 890 q 775 889 774 890 l 807 864 q 810 856 813 861 z "},"":{"ha":1179,"x_min":47,"x_max":1139,"o":"m 1128 33 q 1139 24 1139 36 q 1136 10 1139 19 q 1129 0 1133 0 q 1108 -2 1118 -1 q 1088 -3 1099 -3 q 989 13 1035 -3 q 918 61 943 29 q 879 198 878 114 q 903 374 881 282 q 960 558 926 467 q 1021 717 994 650 q 1022 724 1022 721 q 1018 725 1022 729 q 984 678 1003 704 q 946 625 965 653 q 773 394 858 507 q 610 195 688 282 q 468 56 533 108 q 356 3 403 3 q 325 10 342 3 q 285 78 289 31 q 299 187 281 125 q 349 322 317 249 q 418 467 382 394 q 495 633 471 571 q 526 728 519 694 q 525 776 532 763 q 507 799 518 790 q 454 813 488 813 q 376 799 419 813 q 290 762 332 785 q 209 710 247 739 q 146 653 171 682 q 83 549 101 600 q 81 461 65 497 q 102 438 88 446 q 133 431 117 431 q 174 440 153 431 q 207 468 194 449 q 205 497 214 481 q 196 522 196 513 q 221 543 200 543 q 241 537 232 543 q 250 519 250 531 q 233 469 247 490 q 199 435 218 449 q 160 417 179 422 q 128 411 140 411 q 58 465 74 411 q 63 555 47 510 q 110 642 78 600 q 189 722 143 685 q 285 788 235 760 q 383 831 335 815 q 472 847 432 847 q 530 834 506 847 q 563 793 554 821 q 563 737 569 771 q 542 659 557 703 q 505 565 528 615 q 456 457 482 514 q 392 322 424 390 q 342 193 361 253 q 323 90 324 133 q 353 28 322 46 q 371 22 361 22 q 447 60 400 22 q 551 159 494 99 q 666 292 607 219 q 777 433 725 364 q 869 557 829 501 q 928 639 910 613 q 978 707 956 676 q 1018 760 1001 738 q 1049 798 1039 788 q 1067 808 1060 808 q 1070 808 1069 808 q 1074 807 1071 807 q 1079 792 1081 801 q 1075 775 1078 783 q 1064 746 1071 763 q 1050 710 1057 729 q 994 560 1026 649 q 940 379 961 471 q 917 206 918 288 q 953 74 915 124 q 1001 40 972 50 q 1069 31 1029 31 q 1098 31 1083 31 q 1128 33 1113 32 m 744 860 q 757 872 744 872 q 769 860 769 872 q 757 847 769 847 q 744 860 744 847 m 776 860 q 789 872 776 872 q 801 860 801 872 q 789 847 801 847 q 776 860 776 847 z "},"":{"ha":783,"x_min":13,"x_max":801,"o":"m 793 825 q 800 813 801 821 q 796 797 799 804 q 784 756 790 782 q 769 696 778 729 q 740 565 757 639 q 695 415 722 492 q 631 263 668 338 q 542 131 593 189 q 424 36 490 72 q 271 0 357 0 q 253 9 261 0 q 244 29 246 18 q 247 49 242 40 q 265 58 251 58 q 270 58 268 58 q 275 57 272 57 q 298 53 286 54 q 321 51 310 51 q 434 88 382 51 q 530 182 486 124 q 608 313 574 240 q 669 460 643 386 q 713 602 696 535 q 740 717 731 669 q 738 732 743 732 q 731 726 735 732 q 715 706 724 715 q 699 685 707 696 q 569 512 633 596 q 447 362 506 428 q 340 256 389 296 q 254 217 290 217 q 235 218 247 217 q 218 222 224 219 q 186 274 189 239 q 197 356 183 310 q 235 458 210 403 q 286 568 260 513 q 322 642 304 606 q 353 711 340 679 q 370 767 365 743 q 367 804 375 792 q 319 826 350 826 q 258 812 292 826 q 192 777 224 797 q 135 737 160 757 q 99 704 110 717 q 53 628 67 665 q 51 564 40 590 q 85 543 58 546 q 108 546 96 543 q 132 560 121 549 q 133 589 143 571 q 125 618 124 607 q 150 639 131 639 q 170 631 161 639 q 181 613 179 624 q 172 578 181 594 q 148 550 163 563 q 115 531 133 538 q 81 524 97 524 q 32 554 46 524 q 40 652 13 600 q 117 747 67 704 q 226 819 167 790 q 332 847 286 847 q 399 813 382 847 q 387 713 414 781 q 319 558 360 644 q 274 460 297 511 q 235 365 250 410 q 220 288 221 321 q 242 242 219 254 q 256 238 249 238 q 296 252 272 238 q 344 288 319 267 q 393 335 369 310 q 435 381 417 360 q 565 540 500 454 q 682 697 631 626 q 719 749 701 725 q 749 789 736 772 q 773 817 765 808 q 788 826 781 826 q 793 825 792 826 m 551 860 q 564 872 551 872 q 576 860 576 872 q 564 847 576 847 q 551 860 551 847 m 583 860 q 596 872 583 872 q 608 860 608 872 q 596 847 608 847 q 583 860 583 847 z "},"":{"ha":783,"x_min":13,"x_max":801,"o":"m 793 825 q 800 813 801 821 q 796 797 799 804 q 784 756 790 782 q 769 696 778 729 q 740 565 757 639 q 695 415 722 492 q 631 263 668 338 q 542 131 593 189 q 424 36 490 72 q 271 0 357 0 q 253 9 261 0 q 244 29 246 18 q 247 49 242 40 q 265 58 251 58 q 270 58 268 58 q 275 57 272 57 q 298 53 286 54 q 321 51 310 51 q 434 88 382 51 q 530 182 486 124 q 608 313 574 240 q 669 460 643 386 q 713 602 696 535 q 740 717 731 669 q 738 732 743 732 q 731 726 735 732 q 715 706 724 715 q 699 685 707 696 q 569 512 633 596 q 447 362 506 428 q 340 256 389 296 q 254 217 290 217 q 235 218 247 217 q 218 222 224 219 q 186 274 189 239 q 197 356 183 310 q 235 458 210 403 q 286 568 260 513 q 322 642 304 606 q 353 711 340 679 q 370 767 365 743 q 367 804 375 792 q 319 826 350 826 q 258 812 292 826 q 192 777 224 797 q 135 737 160 757 q 99 704 110 717 q 53 628 67 665 q 51 564 40 590 q 85 543 58 546 q 108 546 96 543 q 132 560 121 549 q 133 589 143 571 q 125 618 124 607 q 150 639 131 639 q 170 631 161 639 q 181 613 179 624 q 172 578 181 594 q 148 550 163 563 q 115 531 133 538 q 81 524 97 524 q 32 554 46 524 q 40 652 13 600 q 117 747 67 704 q 226 819 167 790 q 332 847 286 847 q 399 813 382 847 q 387 713 414 781 q 319 558 360 644 q 274 460 297 511 q 235 365 250 410 q 220 288 221 321 q 242 242 219 254 q 256 238 249 238 q 296 252 272 238 q 344 288 319 267 q 393 335 369 310 q 435 381 417 360 q 565 540 500 454 q 682 697 631 626 q 719 749 701 725 q 749 789 736 772 q 773 817 765 808 q 788 826 781 826 q 793 825 792 826 m 508 873 q 504 877 505 875 q 506 886 499 881 q 519 907 516 894 q 521 932 522 919 q 518 954 521 944 q 516 963 516 963 q 520 971 516 966 q 527 977 524 977 q 537 975 529 977 q 546 960 545 973 q 546 949 546 959 q 544 926 546 939 q 535 898 541 912 q 515 874 528 884 q 508 873 512 873 z "},"":{"ha":901,"x_min":46,"x_max":851,"o":"m 824 208 q 840 203 828 207 q 851 194 851 199 q 843 170 851 194 q 812 115 835 146 q 747 51 789 83 q 633 4 704 19 q 572 -1 611 -1 q 472 5 528 -1 q 357 18 415 11 q 313 24 335 21 q 269 29 292 26 q 207 26 233 29 q 147 4 181 24 q 135 -3 140 0 q 122 -10 129 -7 q 82 -19 99 -19 q 53 -6 64 -19 q 47 12 46 4 q 50 25 47 19 q 78 47 57 40 q 114 57 99 54 q 118 58 117 57 q 121 58 119 58 q 188 80 161 63 q 243 126 214 97 q 367 264 301 186 q 497 423 433 342 q 619 581 561 504 q 719 715 676 657 q 729 728 724 719 q 739 744 736 735 q 735 753 742 753 q 729 751 732 753 q 626 722 683 736 q 508 697 568 708 q 389 680 447 686 q 282 674 331 674 q 235 677 263 674 q 183 690 208 681 q 141 716 158 700 q 124 758 124 732 q 138 800 122 782 q 169 824 154 818 q 193 828 182 828 q 235 807 221 828 q 241 797 236 806 q 251 777 246 789 q 258 752 256 765 q 260 728 261 739 q 250 711 258 717 q 231 706 242 706 q 213 711 221 706 q 204 732 206 717 q 215 753 204 739 q 224 779 225 767 q 221 786 222 782 q 218 793 219 790 q 209 801 215 797 q 192 806 203 806 q 160 792 174 806 q 146 760 146 778 q 161 728 146 740 q 199 708 176 715 q 244 699 221 701 q 281 696 267 696 q 415 706 338 696 q 569 733 492 717 q 710 769 646 750 q 807 807 775 789 q 828 833 822 826 q 838 839 835 839 q 851 828 851 839 q 828 794 851 811 q 825 792 826 793 q 822 790 824 792 q 792 751 810 775 q 756 701 775 728 q 647 556 708 638 q 519 391 586 475 q 385 228 453 307 q 258 92 318 150 q 252 67 247 81 q 272 51 257 54 q 315 46 293 49 q 360 40 336 43 q 472 26 417 33 q 571 19 526 19 q 725 63 658 19 q 810 199 792 107 q 824 208 813 211 m 138 25 q 142 32 143 28 q 136 36 140 36 q 125 35 129 36 q 118 35 121 35 q 84 26 96 32 q 69 17 72 21 q 69 13 69 15 q 72 7 69 11 q 83 3 75 3 q 115 11 94 3 q 126 17 119 14 q 138 25 132 21 m 526 886 q 524 878 529 881 l 492 853 q 489 851 489 851 q 485 853 486 851 l 454 878 q 451 882 451 881 l 451 886 q 456 890 451 886 q 461 889 460 890 l 489 865 l 517 889 q 522 890 518 890 q 526 886 526 886 z "},"":{"ha":340,"x_min":-25,"x_max":383,"o":"m 375 429 q 378 414 383 422 q 178 214 251 214 q 156 219 169 214 q 124 262 132 232 q 117 315 117 292 q 117 340 117 324 q 111 350 118 356 q 68 319 94 336 q 18 301 42 301 q -15 317 -1 301 q -24 340 -22 325 q -12 382 -25 356 q 45 451 13 435 q 106 467 78 467 q 135 464 121 467 q 147 460 142 461 q 153 444 158 454 q 147 439 151 440 q 154 438 151 439 q 163 429 158 435 q 164 408 167 424 q 152 355 156 382 q 150 304 149 328 q 158 263 151 281 q 175 240 164 246 q 186 238 181 238 q 208 244 194 238 q 241 272 221 251 q 290 328 261 292 q 358 426 319 365 q 368 432 364 432 q 375 429 369 432 m 14 331 q 31 326 22 326 q 63 338 46 326 q 94 365 79 350 q 119 395 108 381 q 133 417 131 410 q 139 432 136 425 q 144 438 139 435 q 138 439 139 438 q 128 442 136 439 q 108 444 121 444 q 65 431 89 444 q 18 372 40 417 q 14 331 4 342 m 67 172 q 71 168 70 169 q 69 158 76 163 q 56 138 59 151 q 54 113 53 125 q 57 91 54 101 q 59 81 59 81 q 55 73 59 79 q 48 68 51 68 q 38 69 46 68 q 29 85 30 71 q 29 96 29 86 q 31 119 29 105 q 40 146 34 132 q 60 170 47 161 q 67 172 63 172 z "},"":{"ha":340,"x_min":-25,"x_max":383,"o":"m 375 429 q 378 414 383 422 q 178 214 251 214 q 156 219 169 214 q 124 262 132 232 q 117 315 117 292 q 117 340 117 324 q 111 350 118 356 q 68 319 94 336 q 18 301 42 301 q -15 317 -1 301 q -24 340 -22 325 q -12 382 -25 356 q 45 451 13 435 q 106 467 78 467 q 135 464 121 467 q 147 460 142 461 q 153 444 158 454 q 147 439 151 440 q 154 438 151 439 q 163 429 158 435 q 164 408 167 424 q 152 355 156 382 q 150 304 149 328 q 158 263 151 281 q 175 240 164 246 q 186 238 181 238 q 208 244 194 238 q 241 272 221 251 q 290 328 261 292 q 358 426 319 365 q 368 432 364 432 q 375 429 369 432 m 14 331 q 31 326 22 326 q 63 338 46 326 q 94 365 79 350 q 119 395 108 381 q 133 417 131 410 q 139 432 136 425 q 144 438 139 435 q 138 439 139 438 q 128 442 136 439 q 108 444 121 444 q 65 431 89 444 q 18 372 40 417 q 14 331 4 342 m 54 517 q 49 521 51 520 q 52 531 45 526 q 65 551 62 538 q 67 576 68 564 q 64 598 67 588 q 62 608 62 608 q 66 616 62 610 q 73 621 70 621 q 83 620 75 621 q 92 604 91 618 q 92 593 92 603 q 90 570 92 583 q 81 542 87 557 q 60 519 74 528 q 54 517 58 517 z "},"":{"ha":340,"x_min":-25,"x_max":383,"o":"m 375 429 q 378 414 383 422 q 178 214 251 214 q 156 219 169 214 q 124 262 132 232 q 117 315 117 292 q 117 340 117 324 q 111 350 118 356 q 68 319 94 336 q 18 301 42 301 q -15 317 -1 301 q -24 340 -22 325 q -12 382 -25 356 q 45 451 13 435 q 106 467 78 467 q 135 464 121 467 q 147 460 142 461 q 153 444 158 454 q 147 439 151 440 q 154 438 151 439 q 163 429 158 435 q 164 408 167 424 q 152 355 156 382 q 150 304 149 328 q 158 263 151 281 q 175 240 164 246 q 186 238 181 238 q 208 244 194 238 q 241 272 221 251 q 290 328 261 292 q 358 426 319 365 q 368 432 364 432 q 375 429 369 432 m 14 331 q 31 326 22 326 q 63 338 46 326 q 94 365 79 350 q 119 395 108 381 q 133 417 131 410 q 139 432 136 425 q 144 438 139 435 q 138 439 139 438 q 128 442 136 439 q 108 444 121 444 q 65 431 89 444 q 18 372 40 417 q 14 331 4 342 m 151 490 q 147 486 151 490 q 142 488 143 486 l 114 511 l 86 488 q 81 486 85 486 q 76 490 76 490 l 76 494 q 79 499 76 496 l 110 524 q 114 525 111 525 q 117 524 115 525 l 149 499 q 151 490 154 496 z "},"":{"ha":340,"x_min":-25,"x_max":383,"o":"m 375 429 q 378 414 383 422 q 178 214 251 214 q 156 219 169 214 q 124 262 132 232 q 117 315 117 292 q 117 340 117 324 q 111 350 118 356 q 68 319 94 336 q 18 301 42 301 q -15 317 -1 301 q -24 340 -22 325 q -12 382 -25 356 q 45 451 13 435 q 106 467 78 467 q 135 464 121 467 q 147 460 142 461 q 153 444 158 454 q 147 439 151 440 q 154 438 151 439 q 163 429 158 435 q 164 408 167 424 q 152 355 156 382 q 150 304 149 328 q 158 263 151 281 q 175 240 164 246 q 186 238 181 238 q 208 244 194 238 q 241 272 221 251 q 290 328 261 292 q 358 426 319 365 q 368 432 364 432 q 375 429 369 432 m 14 331 q 31 326 22 326 q 63 338 46 326 q 94 365 79 350 q 119 395 108 381 q 133 417 131 410 q 139 432 136 425 q 144 438 139 435 q 138 439 139 438 q 128 442 136 439 q 108 444 121 444 q 65 431 89 444 q 18 372 40 417 q 14 331 4 342 m 164 503 q 166 492 168 499 q 159 481 164 487 q 147 476 155 476 q 130 484 139 476 q 112 504 121 493 l 106 510 q 95 514 100 515 q 80 502 87 512 q 73 492 76 498 q 69 489 72 489 q 65 490 68 488 q 64 501 62 494 q 78 519 69 509 q 97 529 86 529 q 113 522 106 529 l 119 516 q 135 498 127 507 q 149 492 143 490 q 156 500 153 494 q 161 504 158 504 q 162 503 162 504 q 164 503 163 503 z "},"":{"ha":340,"x_min":-25,"x_max":383,"o":"m 375 429 q 378 414 383 422 q 178 214 251 214 q 156 219 169 214 q 124 262 132 232 q 117 315 117 292 q 117 340 117 324 q 111 350 118 356 q 68 319 94 336 q 18 301 42 301 q -15 317 -1 301 q -24 340 -22 325 q -12 382 -25 356 q 45 451 13 435 q 106 467 78 467 q 135 464 121 467 q 147 460 142 461 q 153 444 158 454 q 147 439 151 440 q 154 438 151 439 q 163 429 158 435 q 164 408 167 424 q 152 355 156 382 q 150 304 149 328 q 158 263 151 281 q 175 240 164 246 q 186 238 181 238 q 208 244 194 238 q 241 272 221 251 q 290 328 261 292 q 358 426 319 365 q 368 432 364 432 q 375 429 369 432 m 14 331 q 31 326 22 326 q 63 338 46 326 q 94 365 79 350 q 119 395 108 381 q 133 417 131 410 q 139 432 136 425 q 144 438 139 435 q 138 439 139 438 q 128 442 136 439 q 108 444 121 444 q 65 431 89 444 q 18 372 40 417 q 14 331 4 342 m 85 492 q 97 504 85 504 q 110 492 110 504 q 97 479 110 479 q 85 492 85 479 m 117 492 q 129 504 117 504 q 142 492 142 504 q 129 479 142 479 q 117 492 117 479 z "},"":{"ha":340,"x_min":-25,"x_max":383,"o":"m 375 429 q 378 414 383 422 q 178 214 251 214 q 156 219 169 214 q 124 262 132 232 q 117 315 117 292 q 117 340 117 324 q 111 350 118 356 q 68 319 94 336 q 18 301 42 301 q -15 317 -1 301 q -24 340 -22 325 q -12 382 -25 356 q 45 451 13 435 q 106 467 78 467 q 135 464 121 467 q 147 460 142 461 q 153 444 158 454 q 147 439 151 440 q 154 438 151 439 q 163 429 158 435 q 164 408 167 424 q 152 355 156 382 q 150 304 149 328 q 158 263 151 281 q 175 240 164 246 q 186 238 181 238 q 208 244 194 238 q 241 272 221 251 q 290 328 261 292 q 358 426 319 365 q 368 432 364 432 q 375 429 369 432 m 14 331 q 31 326 22 326 q 63 338 46 326 q 94 365 79 350 q 119 395 108 381 q 133 417 131 410 q 139 432 136 425 q 144 438 139 435 q 138 439 139 438 q 128 442 136 439 q 108 444 121 444 q 65 431 89 444 q 18 372 40 417 q 14 331 4 342 m 108 519 q 130 510 121 519 q 139 489 139 501 q 130 466 139 475 q 108 457 121 457 q 85 466 94 457 q 76 489 76 475 q 85 510 76 501 q 108 519 94 519 m 108 471 q 126 489 126 471 q 108 506 126 506 q 90 489 90 506 q 108 471 90 471 z "},"":{"ha":622,"x_min":-25,"x_max":650,"o":"m 375 429 q 378 414 383 422 q 178 214 251 214 q 156 219 169 214 q 124 262 132 232 q 117 315 117 292 q 117 340 117 324 q 111 350 118 356 q 68 319 94 336 q 18 301 42 301 q -15 317 -1 301 q -24 340 -22 325 q -12 382 -25 356 q 45 451 13 435 q 106 467 78 467 q 135 464 121 467 q 147 460 142 461 q 153 444 158 454 q 147 439 151 440 q 154 438 151 439 q 163 429 158 435 q 164 408 167 424 q 152 355 156 382 q 150 304 149 328 q 158 263 151 281 q 175 240 164 246 q 186 238 181 238 q 208 244 194 238 q 241 272 221 251 q 290 328 261 292 q 358 426 319 365 q 368 432 364 432 q 375 429 369 432 m 14 331 q 31 326 22 326 q 63 338 46 326 q 94 365 79 350 q 119 395 108 381 q 133 417 131 410 q 139 432 136 425 q 144 438 139 435 q 138 439 139 438 q 128 442 136 439 q 108 444 121 444 q 65 431 89 444 q 18 372 40 417 q 14 331 4 342 m 363 200 q 314 217 335 200 q 289 299 281 242 q 305 344 293 317 q 335 399 317 372 q 374 444 353 425 q 417 464 394 464 q 440 456 431 464 q 444 417 456 440 q 419 381 436 399 q 376 357 403 364 q 325 304 333 346 q 324 299 324 301 q 322 294 324 297 q 338 235 317 254 q 371 224 353 224 q 438 247 401 224 q 509 303 474 271 q 575 372 544 336 q 624 431 606 407 q 633 435 628 435 q 640 432 638 435 q 643 415 650 425 q 632 402 642 414 q 606 372 622 390 q 569 331 590 354 q 524 286 549 308 q 363 200 426 200 m 417 440 q 411 439 414 440 q 391 426 400 436 q 371 401 382 417 q 367 390 367 396 q 374 385 368 385 q 400 401 382 385 q 422 426 418 418 q 424 439 426 435 q 421 440 422 439 q 417 440 419 440 z "},"":{"ha":268,"x_min":-76,"x_max":294,"o":"m 7 194 q -42 211 -21 194 q -65 293 -76 238 q -51 339 -62 311 q -21 393 -39 367 q 18 439 -3 419 q 61 458 39 458 q 85 450 75 458 q 90 413 100 435 q 79 404 86 404 q 74 406 75 404 q 68 422 64 411 q 71 431 69 425 q 65 433 72 436 q 38 415 53 429 q 8 381 22 401 q -17 336 -7 360 q -32 289 -28 313 q -17 229 -40 249 q 17 218 -4 218 q 83 242 47 218 q 154 298 119 265 q 219 366 189 331 q 268 425 250 401 q 278 429 272 429 q 286 426 281 429 q 288 410 294 418 q 278 397 288 408 q 252 367 268 385 q 215 326 236 349 q 168 281 193 303 q 7 194 71 194 m -19 188 q 8 180 -4 188 q 19 154 19 172 q 8 123 19 133 q -15 110 -3 113 q -25 108 -19 108 q -57 128 -50 108 q -54 136 -60 133 q -46 133 -49 139 q -25 121 -39 121 q -18 122 -21 121 q -1 132 -10 125 q 7 153 7 139 q -21 175 6 175 q -28 174 -26 175 q -31 174 -29 174 q -36 176 -33 174 q -37 183 -40 181 l -18 217 q -12 219 -18 219 q -10 218 -11 219 q -7 214 -7 218 q -7 210 -7 214 l -19 188 z "},"":{"ha":474,"x_min":-22,"x_max":601,"o":"m 472 422 q 482 428 474 428 q 489 426 486 428 q 493 411 499 422 q 475 378 492 407 q 432 309 458 350 q 372 219 406 268 q 302 128 339 171 q 227 53 265 85 q 156 11 189 21 q 151 10 154 11 q 140 10 147 10 q 114 15 129 10 q 88 35 99 19 q 72 80 76 50 q 79 160 68 110 q 101 245 88 197 q 133 346 114 293 q 133 355 136 351 q 124 358 129 358 q 118 357 119 358 q 89 340 104 347 q 53 328 72 332 q 22 324 35 324 q -3 331 7 324 q -17 351 -11 336 q -3 399 -22 367 q 65 461 22 442 q 139 481 107 481 q 158 478 147 481 q 160 477 160 478 q 163 476 161 476 q 165 476 164 476 q 168 475 167 475 q 188 488 183 475 q 313 753 244 626 l 176 753 q 164 765 164 753 q 176 776 164 775 l 325 776 q 361 841 336 797 q 417 930 386 885 q 480 1008 447 975 q 539 1042 513 1042 q 557 1038 547 1042 q 575 1018 567 1033 q 475 776 601 968 l 558 776 q 569 765 569 776 q 558 753 569 753 l 460 753 q 343 589 407 674 q 206 422 279 504 q 176 371 192 407 q 148 294 161 335 q 125 214 135 253 q 113 154 115 175 q 106 91 106 115 q 112 53 107 67 q 124 36 117 40 q 138 32 131 32 q 150 35 144 32 q 357 240 231 57 q 403 308 382 275 q 439 365 424 340 q 463 406 454 390 q 472 422 472 422 m 554 1007 q 543 1013 549 1013 q 511 994 531 1013 q 468 945 492 976 q 417 870 444 914 q 361 776 389 826 l 446 776 q 447 778 447 778 q 449 781 447 779 q 542 940 519 885 q 554 1007 565 994 m 349 753 q 331 719 339 736 q 313 683 322 701 q 269 594 290 639 q 229 504 249 549 q 235 494 226 494 q 240 497 238 494 q 342 628 294 563 q 431 753 390 693 l 349 753 m 26 386 q 19 350 8 357 q 32 347 25 347 q 93 368 54 347 q 165 432 132 389 q 166 434 165 433 q 167 438 167 435 q 164 446 164 440 q 163 450 164 447 q 153 456 161 453 q 139 457 149 457 q 81 440 114 457 q 26 386 47 422 z "},"":{"ha":265,"x_min":-76,"x_max":293,"o":"m 6 200 q -43 217 -22 200 q -68 299 -76 242 q -52 344 -64 317 q -22 399 -40 372 q 17 444 -4 425 q 60 464 38 464 q 83 456 74 464 q 88 417 99 440 q 63 381 79 399 q 19 357 46 364 q -32 304 -24 346 q -33 299 -33 301 q -35 294 -33 297 q -19 235 -40 254 q 14 224 -4 224 q 81 247 44 224 q 152 303 117 271 q 218 372 188 336 q 267 431 249 407 q 276 435 271 435 q 283 432 281 435 q 286 415 293 425 q 275 402 285 414 q 249 372 265 390 q 213 331 233 354 q 167 286 192 308 q 6 200 69 200 m 60 440 q 54 439 57 440 q 34 426 43 436 q 14 401 25 417 q 10 390 10 396 q 17 385 11 385 q 43 401 25 385 q 65 426 61 418 q 67 439 69 435 q 64 440 65 439 q 60 440 63 440 m 33 155 q 38 151 37 152 q 36 141 43 146 q 23 121 26 134 q 20 96 20 108 q 23 74 21 84 q 26 64 26 64 q 22 56 26 62 q 15 51 17 51 q 4 53 12 51 q -5 68 -3 55 q -5 79 -5 69 q -2 102 -5 89 q 7 130 0 116 q 27 154 14 144 q 33 155 30 155 z "},"":{"ha":265,"x_min":-76,"x_max":293,"o":"m 6 200 q -43 217 -22 200 q -68 299 -76 242 q -52 344 -64 317 q -22 399 -40 372 q 17 444 -4 425 q 60 464 38 464 q 83 456 74 464 q 88 417 99 440 q 63 381 79 399 q 19 357 46 364 q -32 304 -24 346 q -33 299 -33 301 q -35 294 -33 297 q -19 235 -40 254 q 14 224 -4 224 q 81 247 44 224 q 152 303 117 271 q 218 372 188 336 q 267 431 249 407 q 276 435 271 435 q 283 432 281 435 q 286 415 293 425 q 275 402 285 414 q 249 372 265 390 q 213 331 233 354 q 167 286 192 308 q 6 200 69 200 m 60 440 q 54 439 57 440 q 34 426 43 436 q 14 401 25 417 q 10 390 10 396 q 17 385 11 385 q 43 401 25 385 q 65 426 61 418 q 67 439 69 435 q 64 440 65 439 q 60 440 63 440 m 21 522 q 16 525 17 524 q 19 535 11 530 q 31 555 28 542 q 34 580 34 568 q 31 602 33 592 q 28 612 28 612 q 33 620 28 615 q 39 626 37 626 q 50 624 42 626 q 59 608 58 622 q 59 597 59 607 q 56 574 59 588 q 47 547 54 561 q 27 523 41 533 q 21 522 25 522 z "},"":{"ha":265,"x_min":-76,"x_max":293,"o":"m 6 200 q -43 217 -22 200 q -68 299 -76 242 q -52 344 -64 317 q -22 399 -40 372 q 17 444 -4 425 q 60 464 38 464 q 83 456 74 464 q 88 417 99 440 q 63 381 79 399 q 19 357 46 364 q -32 304 -24 346 q -33 299 -33 301 q -35 294 -33 297 q -19 235 -40 254 q 14 224 -4 224 q 81 247 44 224 q 152 303 117 271 q 218 372 188 336 q 267 431 249 407 q 276 435 271 435 q 283 432 281 435 q 286 415 293 425 q 275 402 285 414 q 249 372 265 390 q 213 331 233 354 q 167 286 192 308 q 6 200 69 200 m 60 440 q 54 439 57 440 q 34 426 43 436 q 14 401 25 417 q 10 390 10 396 q 17 385 11 385 q 43 401 25 385 q 65 426 61 418 q 67 439 69 435 q 64 440 65 439 q 60 440 63 440 m 94 482 q 90 478 94 482 q 85 479 86 478 l 57 503 l 29 479 q 24 478 28 478 q 19 482 19 482 l 19 486 q 22 490 19 488 l 53 515 q 57 517 54 517 q 60 515 58 517 l 92 490 q 94 482 97 488 z "},"":{"ha":265,"x_min":-76,"x_max":293,"o":"m 6 200 q -43 217 -22 200 q -68 299 -76 242 q -52 344 -64 317 q -22 399 -40 372 q 17 444 -4 425 q 60 464 38 464 q 83 456 74 464 q 88 417 99 440 q 63 381 79 399 q 19 357 46 364 q -32 304 -24 346 q -33 299 -33 301 q -35 294 -33 297 q -19 235 -40 254 q 14 224 -4 224 q 81 247 44 224 q 152 303 117 271 q 218 372 188 336 q 267 431 249 407 q 276 435 271 435 q 283 432 281 435 q 286 415 293 425 q 275 402 285 414 q 249 372 265 390 q 213 331 233 354 q 167 286 192 308 q 6 200 69 200 m 60 440 q 54 439 57 440 q 34 426 43 436 q 14 401 25 417 q 10 390 10 396 q 17 385 11 385 q 43 401 25 385 q 65 426 61 418 q 67 439 69 435 q 64 440 65 439 q 60 440 63 440 m 39 496 q 51 508 39 508 q 64 496 64 508 q 51 483 64 483 q 39 496 39 483 m 71 496 q 83 508 71 508 q 96 496 96 508 q 83 483 96 483 q 71 496 71 483 z "},"":{"ha":222,"x_min":-22,"x_max":242,"o":"m -6 282 q -22 330 -22 301 q -13 384 -21 358 q 3 429 -6 410 q 13 450 13 449 q 31 456 17 456 q 39 454 36 456 q 43 439 49 450 q 30 410 38 429 q 17 371 22 392 q 12 330 11 350 q 22 297 13 310 q 51 286 32 286 q 96 302 72 288 q 142 337 119 317 q 185 380 165 357 q 215 421 204 403 q 224 426 217 426 q 231 425 228 426 q 235 408 242 417 q 200 365 222 389 q 151 319 178 340 q 97 282 125 297 q 44 264 68 267 q 17 267 29 264 q -6 282 6 271 m 4 166 q 9 162 8 164 q 6 153 14 157 q -6 132 -3 145 q -9 107 -9 120 q -6 85 -8 95 q -3 75 -3 75 q -8 68 -3 73 q -14 62 -12 62 q -25 64 -17 62 q -34 79 -33 66 q -34 90 -34 80 q -31 113 -34 100 q -22 141 -29 127 q -2 165 -16 155 q 4 166 0 166 z "},"":{"ha":222,"x_min":-22,"x_max":242,"o":"m -6 282 q -22 330 -22 301 q -13 384 -21 358 q 3 429 -6 410 q 13 450 13 449 q 31 456 17 456 q 39 454 36 456 q 43 439 49 450 q 30 410 38 429 q 17 371 22 392 q 12 330 11 350 q 22 297 13 310 q 51 286 32 286 q 96 302 72 288 q 142 337 119 317 q 185 380 165 357 q 215 421 204 403 q 224 426 217 426 q 231 425 228 426 q 235 408 242 417 q 200 365 222 389 q 151 319 178 340 q 97 282 125 297 q 44 264 68 267 q 17 267 29 264 q -6 282 6 271 m -17 510 q -21 514 -20 513 q -19 524 -26 519 q -6 544 -9 531 q -4 569 -3 557 q -7 591 -4 581 q -9 601 -9 601 q -5 609 -9 603 q 2 614 -1 614 q 12 613 4 614 q 21 597 20 611 q 21 586 21 596 q 19 563 21 576 q 10 535 16 550 q -10 512 3 521 q -17 510 -13 510 z "},"":{"ha":222,"x_min":-22,"x_max":242,"o":"m -6 282 q -22 330 -22 301 q -13 384 -21 358 q 3 429 -6 410 q 13 450 13 449 q 31 456 17 456 q 39 454 36 456 q 43 439 49 450 q 30 410 38 429 q 17 371 22 392 q 12 330 11 350 q 22 297 13 310 q 51 286 32 286 q 96 302 72 288 q 142 337 119 317 q 185 380 165 357 q 215 421 204 403 q 224 426 217 426 q 231 425 228 426 q 235 408 242 417 q 200 365 222 389 q 151 319 178 340 q 97 282 125 297 q 44 264 68 267 q 17 267 29 264 q -6 282 6 271 m 74 482 q 69 478 74 482 q 64 479 65 478 l 36 503 l 8 479 q 3 478 7 478 q -1 482 -1 482 l -1 486 q 1 490 -1 488 l 32 515 q 36 517 33 517 q 39 515 38 517 l 71 490 q 74 482 76 488 z "},"":{"ha":222,"x_min":-22,"x_max":242,"o":"m -6 282 q -22 330 -22 301 q -13 384 -21 358 q 3 429 -6 410 q 13 450 13 449 q 31 456 17 456 q 39 454 36 456 q 43 439 49 450 q 30 410 38 429 q 17 371 22 392 q 12 330 11 350 q 22 297 13 310 q 51 286 32 286 q 96 302 72 288 q 142 337 119 317 q 185 380 165 357 q 215 421 204 403 q 224 426 217 426 q 231 425 228 426 q 235 408 242 417 q 200 365 222 389 q 151 319 178 340 q 97 282 125 297 q 44 264 68 267 q 17 267 29 264 q -6 282 6 271 m 7 485 q 19 497 7 497 q 32 485 32 497 q 19 472 32 472 q 7 485 7 472 m 39 485 q 51 497 39 497 q 64 485 64 497 q 51 472 64 472 q 39 485 39 472 z "},"":{"ha":300,"x_min":-131,"x_max":432,"o":"m 367 1019 q 318 985 346 1017 q 260 908 290 954 q 198 805 229 861 q 139 694 167 749 q 89 592 111 639 q 56 518 67 546 q 64 507 53 507 q 84 525 68 507 q 122 571 100 543 q 169 632 144 599 q 217 696 194 665 q 257 750 240 726 q 279 782 274 774 q 371 940 350 886 q 383 1008 392 993 q 369 1019 379 1019 l 367 1019 m -82 18 q -106 66 -101 32 q -100 161 -111 100 q -69 277 -90 211 q -21 418 -49 343 l -107 386 q -114 385 -110 385 q -126 394 -124 385 q -118 414 -131 407 l -6 454 q 28 534 6 481 q 83 653 51 588 q 151 788 114 718 q 225 914 188 857 q 297 1007 263 971 q 360 1043 332 1043 q 383 1039 369 1043 q 406 1019 397 1035 q 299 769 432 965 q 199 630 254 703 q 81 485 143 557 l 290 561 q 302 560 297 561 q 310 551 307 558 q 300 533 315 539 l 44 442 q -27 305 0 379 q -67 156 -54 231 q -74 65 -81 88 q -61 39 -67 42 q -39 33 -51 33 q -19 36 -26 33 q 188 242 58 57 q 233 309 213 276 q 269 367 254 342 q 294 408 285 392 q 303 424 303 424 q 313 429 304 429 q 318 428 317 429 q 324 413 329 424 q 260 306 303 374 q 165 171 217 238 q 56 56 113 104 q -46 7 0 7 q -82 18 -67 7 z "},"":{"ha":401,"x_min":-39,"x_max":418,"o":"m -11 285 q -19 286 -17 285 q -26 292 -22 289 q -33 301 -31 294 q -35 338 -39 315 q -23 385 -31 361 q -7 428 -15 408 q 6 456 1 449 q 13 460 7 458 q 24 463 18 463 q 27 462 26 463 q 31 461 28 461 q 36 446 42 456 q 23 414 31 432 q 9 378 15 396 q -1 344 3 360 q -6 318 -6 328 q -1 314 -6 314 q 4 317 1 314 q 24 355 11 331 q 55 403 38 379 q 91 445 72 428 q 128 463 110 463 q 164 444 146 463 q 184 415 175 431 q 203 381 193 399 q 230 333 217 354 q 263 310 243 313 q 390 424 307 307 q 401 429 396 429 q 403 428 403 429 q 406 428 404 428 q 410 410 418 421 q 380 372 397 393 q 342 333 363 351 q 298 301 321 314 q 251 288 275 288 q 206 315 224 290 q 172 371 188 340 q 156 402 164 386 q 138 429 147 418 q 117 439 128 439 q 85 408 104 438 q 50 351 67 379 q 18 303 32 322 q -11 285 4 285 m 153 509 q 155 498 158 505 q 149 487 153 492 q 136 482 144 482 q 118 490 128 482 q 99 511 109 499 l 93 517 q 82 521 88 522 q 66 508 74 519 q 59 498 62 504 q 55 495 58 495 q 50 496 54 494 q 49 507 47 500 q 64 526 55 516 q 84 537 73 537 q 100 530 93 537 l 107 523 q 124 505 115 514 q 138 498 132 496 q 145 506 143 500 q 150 511 147 511 q 152 510 151 511 q 153 509 152 509 z "}}}
